<svg width="106" height="106" viewBox="0 0 106 106" fill="none" xmlns="http://www.w3.org/2000/svg">
<path d="M53 0C23.7218 0 0 23.7218 0 53C0 82.2782 23.7218 106 53 106C82.2782 106 106 82.2782 106 53C106 23.7218 82.2782 0 53 0ZM83.7742 58.9839C83.7742 60.3944 82.6202 61.5484 81.2097 61.5484H61.5484V81.2097C61.5484 82.6202 60.3944 83.7742 58.9839 83.7742H47.0161C45.6056 83.7742 44.4516 82.6202 44.4516 81.2097V61.5484H24.7903C23.3798 61.5484 22.2258 60.3944 22.2258 58.9839V47.0161C22.2258 45.6056 23.3798 44.4516 24.7903 44.4516H44.4516V24.7903C44.4516 23.3798 45.6056 22.2258 47.0161 22.2258H58.9839C60.3944 22.2258 61.5484 23.3798 61.5484 24.7903V44.4516H81.2097C82.6202 44.4516 83.7742 45.6056 83.7742 47.0161V58.9839Z" fill="#E6E6E6"/>
</svg>
