<svg width="50" height="50" viewBox="0 0 50 50" fill="none" xmlns="http://www.w3.org/2000/svg">
<path d="M18.0556 0C15.4601 0 13.3073 2.00195 12.691 4.70703C12.6215 4.70703 12.5694 4.6875 12.5 4.6875C9.43576 4.6875 6.94444 7.49023 6.94444 10.9375C6.94444 11.4063 6.99653 11.8652 7.09201 12.3047C4.55729 13.4766 2.77778 16.2695 2.77778 19.5312C2.77778 20.7617 3.05556 21.9043 3.49826 22.9395C1.41493 24.2871 0 26.7871 0 29.6875C0 32.9395 1.77083 35.7324 4.28819 36.9043C4.21007 37.3535 4.16667 37.8125 4.16667 38.2812C4.16667 42.168 6.96181 45.3125 10.4167 45.3125C10.7726 45.3125 11.1198 45.2637 11.4583 45.1953C12.2917 47.9785 14.6007 50 17.3611 50C20.816 50 23.6111 46.8555 23.6111 42.9688V6.25C23.6111 2.80273 21.1198 0 18.0556 0ZM50 29.6875C50 26.7871 48.5851 24.2871 46.5017 22.9395C46.9531 21.9043 47.2222 20.7617 47.2222 19.5312C47.2222 16.2695 45.4427 13.4766 42.908 12.3047C42.9948 11.8652 43.0556 11.4063 43.0556 10.9375C43.0556 7.49023 40.5642 4.6875 37.5 4.6875C37.4306 4.6875 37.3698 4.70703 37.309 4.70703C36.6927 2.00195 34.5399 0 31.9444 0C28.8802 0 26.3889 2.79297 26.3889 6.25V42.9688C26.3889 46.8555 29.184 50 32.6389 50C35.3993 50 37.7083 47.9785 38.5417 45.1953C38.8802 45.2637 39.2274 45.3125 39.5833 45.3125C43.0382 45.3125 45.8333 42.168 45.8333 38.2812C45.8333 37.8125 45.7899 37.3535 45.7118 36.9043C48.2292 35.7324 50 32.9395 50 29.6875Z" fill="#FFB6B6"/>
</svg>
