<svg width="107" height="107" viewBox="0 0 107 107" fill="none" xmlns="http://www.w3.org/2000/svg">
<path d="M53.44 0C23.9187 0 0 23.9187 0 53.44C0 82.9613 23.9187 106.88 53.44 106.88C82.9613 106.88 106.88 82.9613 106.88 53.44C106.88 23.9187 82.9613 0 53.44 0ZM65.7441 75.4409L46.7384 61.6284C46.0704 61.1328 45.6826 60.357 45.6826 59.5382V23.2723C45.6826 21.8501 46.8462 20.6865 48.2684 20.6865H58.6116C60.0338 20.6865 61.1974 21.8501 61.1974 23.2723V52.9444L74.8806 62.8997C76.0443 63.7401 76.2813 65.3563 75.4409 66.5199L69.3643 74.8806C68.5239 76.0227 66.9077 76.2813 65.7441 75.4409Z" fill="#E6E6E6"/>
</svg>
