<svg width="169" height="145" viewBox="0 0 169 145" fill="none" xmlns="http://www.w3.org/2000/svg">
<g clip-path="url(#clip0_54_306)">
<path d="M0 143.531C0 143.743 0.169973 143.913 0.381632 143.913H167.871C168.083 143.913 168.253 143.743 168.253 143.531C168.253 143.32 168.083 143.15 167.871 143.15H0.381632C0.16997 143.15 0 143.32 0 143.531Z" fill="#3F3C57"/>
<path d="M54.647 15.4099L56.4684 23.7212L52.5942 35.2899L46.3525 22.8603L47.2186 15.6494L54.647 15.4099Z" fill="#FDB4B4"/>
<path d="M56.8069 23.2908H46.0298V36.3122H56.8069V23.2908Z" fill="#419EF3"/>
<path d="M52.3751 19.5964C56.4399 19.5964 59.7351 16.3013 59.7351 12.2364C59.7351 8.17164 56.4399 4.87646 52.3751 4.87646C48.3103 4.87646 45.0151 8.17164 45.0151 12.2364C45.0151 16.3013 48.3103 19.5964 52.3751 19.5964Z" fill="#FDB4B4"/>
<path d="M45.9685 17.7093C45.9685 17.7093 40.4823 7.57734 45.4288 2.70157C50.3752 -2.17421 54.3459 1.03862 54.3459 1.03862L56.6133 0.946983C56.6133 0.946983 57.0862 2.73142 57.8488 1.76543C58.6113 0.799438 59.9893 4.31745 59.9893 4.31745C62.5468 8.92337 53.6809 9.95518 53.6809 9.95518C53.6809 9.95518 54.3211 11.9945 53.6704 12.4216C53.0196 12.8487 51.281 14.4553 51.281 14.4553L49.7248 15.6307L48.8 14.2216C48.8 14.2216 47.8341 13.4591 47.346 13.7794C46.858 14.0997 47.5293 18.3143 47.5293 18.3143L45.9685 17.7093Z" fill="#2E2E41"/>
<path d="M37.1391 92.2488L34.3252 134.223L41.2427 134.457L50.3879 92.6006L37.1391 92.2488Z" fill="#2E2E41"/>
<path d="M53.9052 92.0143L51.0913 133.989L58.0088 134.223L67.1541 92.366L53.9052 92.0143Z" fill="#2E2E41"/>
<path d="M35.4447 101.839L39.1272 56.1229L33.4799 32.3176C32.993 28.7789 35.2227 25.4306 38.6639 24.5176L44.1899 23.0515L46.6357 20.6056L52.1989 32.891L55.6735 20.6149L58.3832 22.5857L66.4199 26.1313L66.4163 26.2143L65.1271 54.971L68.0047 101.432L67.8771 101.433L35.4447 101.839Z" fill="#E8E9EA"/>
<path d="M57.5651 133.746L59.5681 139.726C59.5681 139.726 67.4043 140.791 67.5262 143.217C67.6481 145.643 56.8764 144.239 50.5689 144.556C44.2615 144.873 49.5119 138.042 49.5119 138.042L50.1841 134.117L57.5651 133.746Z" fill="#2E2E41"/>
<path d="M41.2074 133.316L43.2104 139.295C43.2104 139.295 51.0466 140.361 51.1685 142.786C51.2905 145.212 40.5187 143.808 34.2113 144.125C27.9038 144.442 33.1543 137.612 33.1543 137.612L33.8264 133.687L41.2074 133.316Z" fill="#2E2E41"/>
<path d="M31.4349 77.5595C31.35 76.3806 31.5487 75.1984 32.0144 74.112L30.5195 61.8489L36.3755 61.3082L37.2612 73.8059C37.8497 74.8306 38.1842 75.9813 38.2369 77.1618C38.4091 80.1146 37.026 82.5961 35.1475 82.7057C33.269 82.8154 31.6067 80.5113 31.4349 77.5595Z" fill="#FDB4B4"/>
<path d="M68.5251 79.3595C68.453 78.1797 68.6646 76.9998 69.1421 75.9185L67.781 63.6399L73.6425 63.1631L74.3919 75.6697C74.9692 76.7007 75.2912 77.855 75.3309 79.036C75.471 81.9905 74.0609 84.4568 72.1813 84.5459C70.3017 84.6351 68.6647 82.313 68.5251 79.3595Z" fill="#FDB4B4"/>
<path d="M30.4956 72.6416L30.4757 72.5358L27.4238 56.1607L31.03 29.4957C31.3518 27.1151 33.4775 25.4002 35.8746 25.5918C37.1265 25.692 38.2497 26.2858 39.0375 27.2639C39.8253 28.242 40.1662 29.466 39.9973 30.7105L37.2831 50.709L38.992 72.0992L30.4956 72.6416Z" fill="#E8E9EA"/>
<path d="M66.7163 72.2573L60.5804 31.299C60.2614 30.098 60.4481 28.8412 61.1087 27.7732C61.7694 26.7051 62.8105 25.9769 64.0404 25.7225C66.3934 25.2359 68.7168 26.6742 69.331 28.9965L75.2257 71.7429L66.7163 72.2573Z" fill="#E8E9EA"/>
<path d="M52.379 36.6351C52.7951 36.6351 53.1323 36.2978 53.1323 35.8818C53.1323 35.4657 52.7951 35.1285 52.379 35.1285C51.963 35.1285 51.6257 35.4657 51.6257 35.8818C51.6257 36.2978 51.963 36.6351 52.379 36.6351Z" fill="#D6D7D8"/>
<path d="M52.379 42.3387C52.7951 42.3387 53.1323 42.0014 53.1323 41.5854C53.1323 41.1694 52.7951 40.8321 52.379 40.8321C51.963 40.8321 51.6257 41.1694 51.6257 41.5854C51.6257 42.0014 51.963 42.3387 52.379 42.3387Z" fill="#D6D7D8"/>
<path d="M52.379 48.0423C52.7951 48.0423 53.1323 47.7051 53.1323 47.289C53.1323 46.873 52.7951 46.5357 52.379 46.5357C51.963 46.5357 51.6257 46.873 51.6257 47.289C51.6257 47.7051 51.963 48.0423 52.379 48.0423Z" fill="#D6D7D8"/>
<path d="M52.379 53.7459C52.7951 53.7459 53.1323 53.4087 53.1323 52.9926C53.1323 52.5766 52.7951 52.2393 52.379 52.2393C51.963 52.2393 51.6257 52.5766 51.6257 52.9926C51.6257 53.4087 51.963 53.7459 52.379 53.7459Z" fill="#D6D7D8"/>
<path d="M52.379 59.4496C52.7951 59.4496 53.1323 59.1123 53.1323 58.6963C53.1323 58.2802 52.7951 57.9429 52.379 57.9429C51.963 57.9429 51.6257 58.2802 51.6257 58.6963C51.6257 59.1123 51.963 59.4496 52.379 59.4496Z" fill="#D6D7D8"/>
<path d="M52.379 65.1532C52.7951 65.1532 53.1323 64.8159 53.1323 64.3999C53.1323 63.9838 52.7951 63.6466 52.379 63.6466C51.963 63.6466 51.6257 63.9838 51.6257 64.3999C51.6257 64.8159 51.963 65.1532 52.379 65.1532Z" fill="#D6D7D8"/>
<path d="M52.379 70.8568C52.7951 70.8568 53.1323 70.5195 53.1323 70.1035C53.1323 69.6874 52.7951 69.3502 52.379 69.3502C51.963 69.3502 51.6257 69.6874 51.6257 70.1035C51.6257 70.5195 51.963 70.8568 52.379 70.8568Z" fill="#D6D7D8"/>
<path d="M52.379 76.5604C52.7951 76.5604 53.1323 76.2231 53.1323 75.8071C53.1323 75.3911 52.7951 75.0538 52.379 75.0538C51.963 75.0538 51.6257 75.3911 51.6257 75.8071C51.6257 76.2231 51.963 76.5604 52.379 76.5604Z" fill="#D6D7D8"/>
<path d="M52.38 80.9725L38.1266 79.073L37.8521 79.0366L30.5675 62.2399L26.2292 52.2397H37.529L52.38 80.9725Z" fill="#419EF3"/>
<path d="M109.529 17.2372L118.591 12.2728V26.4568H108.11L109.529 17.2372Z" fill="#2E2E41"/>
<path d="M120.533 20.3995L121.37 27.363L115.342 39.3661L111.601 28.1944L113.36 20.1682L120.533 20.3995Z" fill="#FDB4B4"/>
<path d="M121.682 27.7787H111.274V40.3534H121.682V27.7787Z" fill="#419EF3"/>
<path d="M130.267 94.3705L132.984 134.904L126.304 135.131L117.473 94.7102L130.267 94.3705Z" fill="#2E2E41"/>
<path d="M114.076 94.1441L116.793 134.678L110.113 134.904L101.282 94.4837L114.076 94.1441Z" fill="#2E2E41"/>
<path d="M137.325 102.968L137.165 102.967L94.6096 102.828L94.6478 102.677L105.589 59.329L102.848 37.4526C102.329 33.3072 104.548 29.389 108.37 27.7028L109.75 27.0942L112.371 25.1878L115.725 37.0375L121.095 25.1786L123.461 27.5439L128.796 28.9594C132.121 29.8416 134.275 33.077 133.807 36.4852L133.801 36.509L125.654 59.7569L137.325 102.968Z" fill="#E8E9EA"/>
<path d="M110.542 134.444L117.67 134.802L118.319 138.592C118.319 138.592 123.389 145.189 117.298 144.882C111.207 144.576 100.805 145.932 100.923 143.59C101.041 141.247 108.608 140.218 108.608 140.218L110.542 134.444Z" fill="#2E2E41"/>
<path d="M126.339 134.028L133.466 134.386L134.115 138.177C134.115 138.177 139.186 144.773 133.095 144.467C127.004 144.161 116.602 145.517 116.719 143.174C116.837 140.831 124.404 139.802 124.404 139.802L126.339 134.028Z" fill="#2E2E41"/>
<path d="M132.865 79.7696C132.7 82.6201 131.094 84.8451 129.28 84.7392C127.466 84.6334 126.131 82.237 126.297 79.3855C126.348 78.2455 126.671 77.1343 127.239 76.1448L128.094 64.076L133.749 64.5981L132.306 76.4404C132.756 77.4895 132.948 78.6311 132.865 79.7696Z" fill="#FDB4B4"/>
<path d="M103.805 78.6857C103.579 81.532 101.926 83.7224 100.115 83.5779C98.3035 83.4334 97.0192 81.0092 97.2462 78.1619C97.3213 77.0232 97.6679 75.9192 98.2572 74.942L99.3692 62.8941L105.012 63.5364L103.316 75.3453C103.744 76.4038 103.911 77.5492 103.805 78.6857Z" fill="#FDB4B4"/>
<path d="M133.776 75.0248L125.563 74.5006L125.573 74.3775L127.214 53.8405L124.593 34.5287C124.43 33.3259 124.759 32.1427 125.521 31.1973C126.282 30.2518 127.368 29.6778 128.578 29.5809C130.895 29.3983 132.95 31.0534 133.261 33.3544L136.743 59.1052L136.74 59.1244L133.776 75.0248Z" fill="#E8E9EA"/>
<path d="M105.172 74.2381L96.9465 73.7408L96.9646 73.6109L102.637 32.4707C103.233 30.2112 105.48 28.8214 107.754 29.2916C108.943 29.5374 109.949 30.2413 110.587 31.2738C111.226 32.3062 111.407 33.521 111.096 34.6944L105.172 74.2381Z" fill="#E8E9EA"/>
<path d="M115.55 40.6651C115.952 40.6651 116.278 40.3394 116.278 39.9377C116.278 39.5359 115.952 39.2102 115.55 39.2102C115.148 39.2102 114.823 39.5359 114.823 39.9377C114.823 40.3394 115.148 40.6651 115.55 40.6651Z" fill="#D6D7D8"/>
<path d="M115.55 46.173C115.952 46.173 116.278 45.8473 116.278 45.4456C116.278 45.0438 115.952 44.7181 115.55 44.7181C115.148 44.7181 114.823 45.0438 114.823 45.4456C114.823 45.8473 115.148 46.173 115.55 46.173Z" fill="#D6D7D8"/>
<path d="M115.55 51.6809C115.952 51.6809 116.278 51.3552 116.278 50.9535C116.278 50.5517 115.952 50.226 115.55 50.226C115.148 50.226 114.823 50.5517 114.823 50.9535C114.823 51.3552 115.148 51.6809 115.55 51.6809Z" fill="#D6D7D8"/>
<path d="M115.55 57.1888C115.952 57.1888 116.278 56.8631 116.278 56.4614C116.278 56.0596 115.952 55.7339 115.55 55.7339C115.148 55.7339 114.823 56.0596 114.823 56.4614C114.823 56.8631 115.148 57.1888 115.55 57.1888Z" fill="#D6D7D8"/>
<path d="M115.55 62.6967C115.952 62.6967 116.278 62.371 116.278 61.9693C116.278 61.5675 115.952 61.2418 115.55 61.2418C115.148 61.2418 114.823 61.5675 114.823 61.9693C114.823 62.371 115.148 62.6967 115.55 62.6967Z" fill="#D6D7D8"/>
<path d="M115.55 68.2046C115.952 68.2046 116.278 67.8789 116.278 67.4772C116.278 67.0754 115.952 66.7497 115.55 66.7497C115.148 66.7497 114.823 67.0754 114.823 67.4772C114.823 67.8789 115.148 68.2046 115.55 68.2046Z" fill="#D6D7D8"/>
<path d="M115.55 73.7126C115.952 73.7126 116.278 73.3869 116.278 72.9851C116.278 72.5834 115.952 72.2577 115.55 72.2577C115.148 72.2577 114.823 72.5834 114.823 72.9851C114.823 73.3869 115.148 73.7126 115.55 73.7126Z" fill="#D6D7D8"/>
<path d="M115.55 79.2205C115.952 79.2205 116.278 78.8948 116.278 78.493C116.278 78.0912 115.952 77.7655 115.55 77.7655C115.148 77.7655 114.823 78.0912 114.823 78.493C114.823 78.8948 115.148 79.2205 115.55 79.2205Z" fill="#D6D7D8"/>
<path d="M116.654 23.9534C120.412 23.9534 123.459 20.907 123.459 17.1491C123.459 13.3912 120.412 10.3448 116.654 10.3448C112.896 10.3448 109.85 13.3912 109.85 17.1491C109.85 20.907 112.896 23.9534 116.654 23.9534Z" fill="#FDB4B4"/>
<path d="M120.22 9.20596C120.546 9.86909 120.029 10.6974 119.345 10.9762C118.661 11.255 117.887 11.142 117.158 11.026C116.428 10.9099 115.654 10.7999 114.971 11.0836C114.089 11.4508 113.591 12.3717 113.162 13.2262C112.362 14.8216 111.561 16.417 110.76 18.0123C110.369 18.7918 109.969 19.6063 109.962 20.4784C109.948 22.0791 111.218 23.3584 111.901 24.806C112.733 26.5686 112.664 28.7287 111.722 30.435C110.78 32.1413 108.989 33.3502 107.054 33.5854C106.545 33.6473 106.006 33.6406 105.548 33.4093C105.091 33.178 104.741 32.673 104.826 32.1672C104.992 31.178 106.504 30.9469 106.781 29.983C106.926 29.4799 106.669 28.9426 106.323 28.5496C105.977 28.1566 105.54 27.8501 105.21 27.4436C104.449 26.5063 104.398 25.0594 105.092 24.0711C105.499 23.4903 106.13 23.0588 106.393 22.3999C106.618 21.8384 106.536 21.2071 106.451 20.6084C106.342 19.839 106.232 19.0696 106.123 18.3002C105.996 17.4025 105.87 16.4726 106.122 15.6016C106.699 13.6057 108.953 12.6683 110.275 11.0651C110.889 10.3201 111.302 9.42409 111.932 8.69249C112.99 7.46477 114.654 6.7875 116.268 6.92829C117.882 7.06908 119.405 8.02432 120.234 9.41655" fill="#2E2E41"/>
<path d="M119.146 9.33182C118.814 9.4507 118.69 9.88368 118.786 10.2235C118.882 10.5633 119.132 10.8334 119.362 11.1018C121.956 14.1374 122.558 18.7292 120.836 22.3316C120.378 23.2898 119.768 24.1916 119.521 25.2246C119.341 25.9762 119.351 26.8006 118.934 27.4513C118.509 28.1137 117.668 28.5576 117.585 29.34C117.531 29.842 117.837 30.3297 118.248 30.6241C118.658 30.9184 119.159 31.0531 119.652 31.1629C120.933 31.4484 122.242 31.6042 123.554 31.6273C123.982 31.6348 124.424 31.6255 124.816 31.4551C125.209 31.2846 125.543 30.915 125.548 30.4871C125.551 30.1509 125.358 29.8407 125.333 29.5054C125.259 28.5005 126.611 27.966 126.874 26.9934C127.047 26.354 126.706 25.6961 126.343 25.1423C125.979 24.5886 125.564 24.0071 125.573 23.3447C125.582 22.7106 125.98 22.1522 126.134 21.5372C126.348 20.6865 126.086 19.7967 125.825 18.9592C125.603 18.2471 125.382 17.5351 125.16 16.823C124.925 16.0661 124.689 15.3091 124.453 14.5522C124.042 13.2307 123.61 11.871 122.72 10.8111C121.83 9.75121 120.356 9.05654 119.041 9.48927" fill="#2E2E41"/>
<path d="M123.783 35.6985L123.316 35.5626C124.288 32.2311 122.193 26.0141 122.172 25.9517L122.632 25.795C122.721 26.0558 124.797 32.2212 123.783 35.6985Z" fill="#3F3C57"/>
<path d="M123.549 39.5251C124.67 39.5251 125.579 38.6166 125.579 37.4959C125.579 36.3752 124.67 35.4666 123.549 35.4666C122.429 35.4666 121.52 36.3752 121.52 37.4959C121.52 38.6166 122.429 39.5251 123.549 39.5251Z" fill="#3F3C57"/>
<path d="M110.216 44.6799H108.986C108.851 44.6799 108.743 44.5712 108.743 44.437C108.743 44.3029 108.851 44.1941 108.986 44.1941H110.216C110.556 44.1941 110.874 44.062 111.114 43.8219C111.353 43.582 111.485 43.2631 111.484 42.9241L111.469 35.344C111.469 33.6973 110.13 32.358 108.484 32.358C106.837 32.358 105.498 33.6973 105.498 35.3435L105.513 42.4385C105.514 43.1307 106.078 43.6981 106.771 43.7035L107.615 43.7099C107.749 43.7109 107.857 43.8204 107.856 43.9547C107.855 44.0881 107.747 44.1957 107.613 44.1957H107.612L106.767 44.1893C105.809 44.1819 105.029 43.3969 105.027 42.4395L105.012 35.344C105.012 33.4295 106.569 31.8722 108.484 31.8722C110.398 31.8722 111.955 33.4295 111.955 35.3435L111.97 42.9232C111.971 43.3921 111.789 43.8332 111.457 44.1651C111.126 44.497 110.685 44.6799 110.216 44.6799Z" fill="#3F3C57"/>
<path d="M107.614 44.8137C108.089 44.8137 108.475 44.4283 108.475 43.9528C108.475 43.4773 108.089 43.0919 107.614 43.0919C107.138 43.0919 106.753 43.4773 106.753 43.9528C106.753 44.4283 107.138 44.8137 107.614 44.8137Z" fill="#3F3C57"/>
<path d="M108.986 45.298C109.461 45.298 109.847 44.9125 109.847 44.4371C109.847 43.9616 109.461 43.5761 108.986 43.5761C108.51 43.5761 108.125 43.9616 108.125 44.4371C108.125 44.9125 108.51 45.298 108.986 45.298Z" fill="#3F3C57"/>
<path d="M59.2851 32.0575L58.8187 31.9216C59.7903 28.5901 57.7189 22.2769 57.6978 22.2145L58.2807 22.6539C58.3696 22.9147 60.2994 28.5802 59.2851 32.0575Z" fill="#3F3C57"/>
<path d="M42.8918 32.6494L43.3581 32.5135C42.3865 29.182 44.4815 22.965 44.5027 22.9026L44.0038 23.2368C43.9148 23.4976 41.8775 29.1721 42.8918 32.6494Z" fill="#3F3C57"/>
<path d="M59.0522 35.8841C60.1729 35.8841 61.0814 34.9756 61.0814 33.8549C61.0814 32.7342 60.1729 31.8257 59.0522 31.8257C57.9315 31.8257 57.0229 32.7342 57.0229 33.8549C57.0229 34.9756 57.9315 35.8841 59.0522 35.8841Z" fill="#3F3C57"/>
<path d="M45.0552 45.1283H43.8245C43.6903 45.1283 43.5816 45.0196 43.5816 44.8854C43.5816 44.7513 43.6903 44.6425 43.8245 44.6425H45.0552C45.3944 44.6425 45.713 44.5104 45.9525 44.2704C46.1919 44.0304 46.3235 43.7115 46.3228 43.3725L46.3079 35.7924C46.3079 34.1457 44.9686 32.8065 43.3224 32.8065C41.6761 32.8065 40.3366 34.1457 40.3366 35.792L40.3516 42.887C40.353 43.5791 40.9173 44.1465 41.6095 44.1519L42.4542 44.1583C42.5882 44.1594 42.6961 44.2688 42.6952 44.4031C42.6942 44.5365 42.5856 44.6441 42.4523 44.6441H42.4504L41.6057 44.6377C40.6483 44.6303 39.8677 43.8453 39.8658 42.8879L39.8508 35.7924C39.8508 33.8779 41.4081 32.3206 43.3224 32.3206C45.2364 32.3206 46.7937 33.8779 46.7937 35.792L46.8086 43.3716C46.8096 43.8405 46.6276 44.2816 46.2963 44.6135C45.9651 44.9455 45.5241 45.1283 45.0552 45.1283Z" fill="#3F3C57"/>
<path d="M42.4525 45.2621C42.928 45.2621 43.3134 44.8767 43.3134 44.4012C43.3134 43.9257 42.928 43.5403 42.4525 43.5403C41.977 43.5403 41.5916 43.9257 41.5916 44.4012C41.5916 44.8767 41.977 45.2621 42.4525 45.2621Z" fill="#3F3C57"/>
<path d="M43.8245 45.7464C44.3 45.7464 44.6855 45.361 44.6855 44.8855C44.6855 44.41 44.3 44.0246 43.8245 44.0246C43.3491 44.0246 42.9636 44.41 42.9636 44.8855C42.9636 45.361 43.3491 45.7464 43.8245 45.7464Z" fill="#3F3C57"/>
</g>
<defs>
<clipPath id="clip0_54_306">
<rect width="168.253" height="145" fill="white"/>
</clipPath>
</defs>
</svg>
