<svg xmlns="http://www.w3.org/2000/svg" viewBox="0 0 512 512"><defs><style>.cls-1{fill:#3342ae;}.cls-2{fill:#1fb7a2;}.cls-3{fill:#1e9b86;}.cls-4{fill:#1b8772;}.cls-5{fill:#54efd1;}.cls-6{fill:#4ed8be;}.cls-7{fill:#b0fff0;}.cls-8{fill:#a1e2d6;}.cls-9{fill:#fff;}.cls-10{fill:#d1d2d3;}.cls-11{fill:#cc375e;}.cls-12{fill:#eb3c65;}</style></defs><title>Dental Care</title><g id="BULINE"><circle class="cls-1" cx="256" cy="256" r="256"/></g><g id="Icons"><path class="cls-2" d="M113.6,143.26C127.37,157,132,174.68,124,182.69S98.38,186,84.61,172.26c-10.56-10.56-11-28.12-10.71-35.72a4.17,4.17,0,0,1,4-4C85.49,132.21,103.05,132.71,113.6,143.26Z"/><path class="cls-3" d="M127.44,167c1.26,6.37.24,12-3.41,15.65-8,8-25.65,3.33-39.42-10.43C74.06,161.7,73.55,144.14,73.9,136.54a4.15,4.15,0,0,1,2.43-3.61c.85,8.19,3.43,18.21,10.4,25.18,13.77,13.77,31.42,18.44,39.43,10.43A13.15,13.15,0,0,0,127.44,167Z"/><path class="cls-4" d="M121.5,180.15a3,3,0,0,1-4.25,0L82,144.86a3,3,0,0,1,4.24-4.25l35.3,35.29A3,3,0,0,1,121.5,180.15Z"/><path class="cls-2" d="M190.94,105.78c0,19.47-9.18,35.25-20.5,35.25s-20.5-15.78-20.5-35.25c0-14.93,12.06-27.7,17.68-32.83a4.16,4.16,0,0,1,5.64,0C178.88,78.08,190.94,90.85,190.94,105.78Z"/><path class="cls-3" d="M183.91,132.37c-3.61,5.4-8.32,8.66-13.47,8.66-11.32,0-20.5-15.78-20.5-35.25,0-14.93,12.06-27.7,17.68-32.83a4.17,4.17,0,0,1,4.27-.84c-5.19,6.4-10.45,15.31-10.45,25.17,0,19.47,9.18,35.25,20.5,35.25A11.81,11.81,0,0,0,183.91,132.37Z"/><path class="cls-4" d="M170.44,137.44a3,3,0,0,1-3-3V84.53a3,3,0,0,1,6,0v49.91A3,3,0,0,1,170.44,137.44Z"/><path class="cls-5" d="M403.61,435.61H280.43a18.08,18.08,0,0,1-18.07-17.44l-10.9-307A9.77,9.77,0,0,1,261.23,101H422.81a9.78,9.78,0,0,1,9.78,10.13l-10.9,307A18.09,18.09,0,0,1,403.61,435.61Z"/><path class="cls-6" d="M422.7,390.09l-1,28.07a18.09,18.09,0,0,1-18.08,17.45H280.44a18.09,18.09,0,0,1-18.08-17.45l-10.9-307A9.79,9.79,0,0,1,261.23,101H294.3l1.34,37.77,8.3,233.86A18.09,18.09,0,0,0,322,390.09Z"/><path class="cls-7" d="M391.27,419.63h-98.5c-7.79,0-14.18-6.47-14.45-14.64L269.6,147.28a8,8,0,0,1,7.82-8.5H406.63a8,8,0,0,1,7.82,8.5L405.73,405C405.45,413.16,399.06,419.63,391.27,419.63Z"/><path class="cls-8" d="M406.23,390.09l-.5,14.9c-.27,8.17-6.66,14.65-14.46,14.65h-98.5c-7.78,0-14.17-6.48-14.45-14.65l-8.71-257.7a8,8,0,0,1,7.82-8.51h18.21l8.3,233.86A18.09,18.09,0,0,0,322,390.09Z"/><circle class="cls-9" cx="361.67" cy="179.19" r="19.65"/><circle class="cls-9" cx="324.85" cy="261.55" r="12.23"/><circle class="cls-9" cx="369.09" cy="343.37" r="22.08"/><rect class="cls-9" x="84.5" y="213.59" width="159.32" height="227.85" rx="9.99" transform="translate(-31.83 17.99) rotate(-5.72)"/><rect class="cls-9" x="108.38" y="414.96" width="49.75" height="21.71" rx="10.85" transform="translate(-41.78 15.4) rotate(-5.72)"/><path class="cls-10" d="M251.07,396l2.71,27a10,10,0,0,1-8.94,10.94L106.2,447.82a10,10,0,0,1-10.94-8.95L74.54,232a10,10,0,0,1,8.95-10.94l29-2.9,18,179.8c0,.3.07.61.13.91a10,10,0,0,0,10.8,8Z"/><path class="cls-11" d="M124.62,339.61l2.16,21.6-14,1.4a10.85,10.85,0,1,1-2.17-21.6Z"/><rect class="cls-11" x="108.38" y="414.96" width="49.75" height="21.71" rx="10.85" transform="translate(-41.78 15.4) rotate(-5.72)"/><rect class="cls-12" x="170.37" y="218.35" width="49.75" height="21.71" rx="10.85" transform="translate(-21.87 20.6) rotate(-5.72)"/><rect class="cls-12" x="174.14" y="256.05" width="49.75" height="21.71" rx="10.85" transform="translate(-25.61 21.17) rotate(-5.72)"/><rect class="cls-12" x="177.92" y="293.75" width="49.75" height="21.71" rx="10.85" transform="translate(-29.35 21.73) rotate(-5.72)"/><rect class="cls-12" x="181.7" y="331.45" width="49.75" height="21.71" rx="10.85" transform="translate(-33.09 22.29) rotate(-5.72)"/><rect class="cls-12" x="185.47" y="369.16" width="49.75" height="21.71" rx="10.85" transform="translate(-36.83 22.86) rotate(-5.72)"/><rect class="cls-11" x="189.25" y="406.86" width="49.75" height="21.71" rx="10.85" transform="translate(-40.57 23.42) rotate(-5.72)"/><rect class="cls-10" x="158.11" y="229.75" width="12.95" height="203.99" rx="6.47" transform="translate(-32.25 18.06) rotate(-5.72)"/><rect class="cls-12" x="89.5" y="226.45" width="49.75" height="21.71" rx="10.85" transform="translate(-23.08 12.58) rotate(-5.72)"/><rect class="cls-12" x="93.27" y="264.15" width="49.75" height="21.71" rx="10.85" transform="translate(-26.82 13.15) rotate(-5.72)"/><rect class="cls-12" x="97.05" y="301.85" width="49.75" height="21.71" rx="10.85" transform="translate(-30.56 13.71) rotate(-5.72)"/><rect class="cls-12" x="100.82" y="339.56" width="49.75" height="21.71" rx="10.85" transform="translate(-34.3 14.27) rotate(-5.72)"/><rect class="cls-12" x="104.6" y="377.26" width="49.75" height="21.71" rx="10.85" transform="translate(-38.04 14.84) rotate(-5.72)"/><path class="cls-11" d="M113.29,226.5l2.16,21.6-14,1.4a10.85,10.85,0,1,1-2.17-21.6Z"/><path class="cls-11" d="M117.07,264.21l2.16,21.6-14,1.39a10.85,10.85,0,0,1-2.16-21.6Z"/><path class="cls-11" d="M120.84,301.91l2.17,21.6-14,1.4a10.85,10.85,0,1,1-2.16-21.6Z"/><path class="cls-11" d="M130.6,398.91l-14,1.4a10.85,10.85,0,0,1-2.16-21.6l14-1.4L130.47,398C130.5,398.3,130.54,398.61,130.6,398.91Z"/><path class="cls-2" d="M449.58,239.87c-11.42,15.77-28.12,23.16-37.28,16.51s-7.34-24.81,4.09-40.57c8.76-12.09,26-15.35,33.58-16.21a4.19,4.19,0,0,1,4.57,3.31C456.07,210.37,458.35,227.78,449.58,239.87Z"/><path class="cls-3" d="M428.28,257.28c-6.09,2.25-11.81,2.12-16-.9-9.17-6.64-7.34-24.81,4.09-40.57,8.76-12.09,26-15.35,33.58-16.2a4.15,4.15,0,0,1,3.95,1.82c-8,2.14-17.45,6.26-23.23,14.25-11.43,15.76-13.26,33.93-4.09,40.57A12,12,0,0,0,428.28,257.28Z"/><path class="cls-4" d="M414.4,253.48a3,3,0,0,1-.67-4.19L443,208.88a3,3,0,1,1,4.85,3.52l-29.29,40.41A3,3,0,0,1,414.4,253.48Z"/></g></svg>