<svg width="24" height="19" viewBox="0 0 24 19" fill="none" xmlns="http://www.w3.org/2000/svg">
<path d="M21.57 11.6008C21.5775 11.5331 21.6 11.469 21.6 11.4013C21.6 10.144 20.5237 9.12178 19.2 9.12178C18.7275 9.12178 18.2925 9.25713 17.9212 9.47796C17.2612 8.09598 15.8025 7.12717 14.1 7.12717C11.7825 7.12717 9.9 8.91164 9.9 11.1164C9.9 11.2232 9.92625 11.323 9.93375 11.4263C8.07375 11.5581 6.6 13.0184 6.6 14.8207C6.6 16.7084 8.2125 18.24 10.2 18.24H20.4C22.3875 18.24 24 16.7084 24 14.8207C24 13.3211 22.98 12.0638 21.57 11.6008ZM5.43 10.7958C3.79125 9.23932 3.79125 6.71044 5.43 5.15749C7.06875 3.60098 9.73125 3.60098 11.37 5.15749C11.7337 5.50299 12.0037 5.90191 12.2062 6.3222C12.5737 6.19042 12.96 6.1085 13.3575 6.05507L14.475 2.88862C14.625 2.46477 14.2012 2.06585 13.755 2.20476L10.4625 3.24837L8.90625 0.299192C8.7 -0.0997305 8.1 -0.0997305 7.89 0.299192L6.3375 3.24837L3.04125 2.20476C2.59875 2.06585 2.175 2.46833 2.32125 2.88862L3.42 6.01589L0.315 7.49404C-0.105 7.6935 -0.105 8.25982 0.315 8.45929L3.42 9.93387L2.32125 13.0611C2.17125 13.485 2.595 13.8839 3.04125 13.745L5.895 12.8439C6.12375 12.4022 6.42 11.9997 6.78 11.6507C6.28875 11.4583 5.8275 11.1734 5.43 10.7958ZM5.25 7.97488C5.25 9.4281 6.34875 10.6391 7.79625 10.9062C8.09625 10.7388 8.4075 10.5928 8.74125 10.4895C8.94375 8.91164 9.90375 7.55103 11.2687 6.74962C10.7737 5.71313 9.675 4.98653 8.4 4.98653C6.66375 4.98653 5.25 6.32576 5.25 7.97488Z" fill="#18607E"/>
</svg>
