<svg width="262" height="174" viewBox="0 0 262 174" fill="none" xmlns="http://www.w3.org/2000/svg">
<g clip-path="url(#clip0_29_437)">
<path d="M93.9162 100.139C102.889 84.3545 120.005 72.235 138.123 73.4025C124.758 87.936 116.965 106.728 116.122 126.455C115.825 134.063 116.286 142.557 111.234 148.254C108.091 151.8 103.286 153.516 98.5618 153.877C93.8374 154.237 89.1141 153.383 84.4529 152.533L83.3222 152.88C82.8917 134.729 84.9435 115.923 93.9162 100.139Z" fill="#F0F0F0"/>
<path d="M138.15 73.7825C124.752 80.2325 113.327 91.0046 106.314 104.142C104.798 106.982 103.507 109.996 102.944 113.181C102.38 116.369 102.774 119.403 103.862 122.43C104.858 125.198 106.196 127.913 106.501 130.875C106.823 133.996 105.675 136.915 103.607 139.231C101.078 142.065 97.681 143.821 94.2994 145.423C90.5448 147.202 86.6168 148.99 83.9575 152.309C83.6353 152.711 83.03 152.188 83.3517 151.786C87.9785 146.011 95.8983 144.925 101.39 140.273C103.953 138.102 105.877 135.145 105.755 131.681C105.649 128.652 104.271 125.85 103.239 123.057C102.156 120.124 101.616 117.174 102.004 114.047C102.402 110.848 103.577 107.778 105.014 104.912C108.255 98.4467 112.69 92.5115 117.771 87.3809C123.61 81.4834 130.415 76.6282 137.891 73.0253C138.354 72.8025 138.61 73.5612 138.15 73.7825Z" fill="white"/>
<path d="M108.368 99.7515C106.314 98.2496 104.861 96.0665 104.268 93.5921C103.675 91.1176 103.981 88.5129 105.131 86.2432C105.365 85.7847 106.089 86.1273 105.854 86.5864C104.779 88.698 104.495 91.1242 105.051 93.4273C105.608 95.7304 106.97 97.7586 108.891 99.1458C109.308 99.4477 108.783 100.052 108.368 99.7515Z" fill="white"/>
<path d="M103.173 121.093C108.32 120.341 112.994 117.677 116.264 113.632C116.588 113.231 117.193 113.754 116.87 114.155C113.459 118.358 108.589 121.121 103.232 121.891C102.721 121.965 102.665 121.166 103.173 121.093Z" fill="white"/>
<path d="M124.005 82.468C124.679 83.2147 125.527 83.7824 126.475 84.1201C127.422 84.4579 128.438 84.555 129.432 84.4029C129.942 84.3233 129.997 85.1219 129.491 85.2009C128.392 85.3639 127.269 85.2552 126.222 84.8844C125.175 84.5136 124.234 83.892 123.482 83.0737C123.405 83.0026 123.358 82.9046 123.35 82.7998C123.342 82.695 123.375 82.5912 123.441 82.5094C123.51 82.4296 123.609 82.3804 123.714 82.3727C123.82 82.3649 123.925 82.3992 124.005 82.468Z" fill="white"/>
<path d="M174.173 123.195C173.856 123.254 173.539 123.313 173.22 123.378C168.965 124.189 164.784 125.345 160.717 126.834C160.4 126.944 160.082 127.06 159.769 127.179C150.009 130.87 141.018 136.341 133.255 143.315C130.168 146.092 127.297 149.101 124.667 152.314C121.035 156.751 117.45 161.852 112.704 164.746C112.212 165.053 111.701 165.33 111.175 165.574L83.8331 154.233C83.7839 154.176 83.7319 154.125 83.6823 154.068L82.5699 153.665C82.694 153.49 82.8265 153.311 82.9506 153.136C83.0221 153.034 83.0997 152.934 83.1713 152.832C83.2209 152.765 83.2709 152.698 83.3118 152.635C83.3283 152.612 83.345 152.59 83.3589 152.574C83.3998 152.51 83.4446 152.456 83.4829 152.399C84.2206 151.396 84.9665 150.396 85.7208 149.4C85.7234 149.394 85.7234 149.394 85.7321 149.391C91.4986 141.817 97.9481 134.658 105.279 128.706C105.5 128.527 105.723 128.341 105.956 128.167C109.275 125.503 112.807 123.114 116.515 121.024C118.55 119.887 120.64 118.853 122.779 117.927C128.311 115.545 134.182 114.047 140.179 113.489C152.133 112.379 164.309 115.105 173.478 122.615C173.712 122.807 173.941 122.997 174.173 123.195Z" fill="#F0F0F0"/>
<path d="M173.968 123.517C159.386 120.6 143.779 122.323 130.27 128.59C127.349 129.945 124.504 131.573 122.137 133.778C119.768 135.984 118.255 138.643 117.302 141.716C116.43 144.525 115.864 147.499 114.325 150.047C112.702 152.733 110.028 154.372 106.983 154.977C103.257 155.717 99.4874 155.074 95.823 154.317C91.7543 153.476 87.5415 152.539 83.4195 153.589C82.9201 153.716 82.752 152.933 83.2507 152.806C90.4221 150.98 97.3993 154.882 104.586 154.474C107.939 154.283 111.255 153.081 113.243 150.242C114.982 147.76 115.569 144.693 116.427 141.841C117.328 138.847 118.672 136.167 120.865 133.904C123.109 131.589 125.896 129.846 128.769 128.422C135.249 125.211 142.363 123.142 149.509 122.105C157.722 120.911 166.078 121.132 174.217 122.756C174.72 122.857 174.468 123.617 173.968 123.517Z" fill="white"/>
<path d="M134.553 126.321C133.818 123.885 133.972 121.267 134.988 118.934C136.004 116.602 137.817 114.706 140.102 113.586C140.565 113.361 140.936 114.071 140.472 114.296C138.343 115.335 136.655 117.1 135.713 119.275C134.771 121.449 134.637 123.888 135.336 126.152C135.487 126.644 134.704 126.81 134.553 126.321Z" fill="white"/>
<path d="M117.556 140.233C122.118 142.732 127.455 143.419 132.501 142.157C133.001 142.032 133.169 142.814 132.67 142.939C127.416 144.242 121.864 143.516 117.123 140.906C116.671 140.657 117.107 139.986 117.556 140.233Z" fill="white"/>
<path d="M157.444 121.936C157.533 122.937 157.868 123.902 158.421 124.741C158.974 125.581 159.727 126.271 160.613 126.748C161.068 126.991 160.631 127.662 160.179 127.42C159.203 126.889 158.373 126.126 157.76 125.2C157.147 124.273 156.77 123.21 156.662 122.104C156.643 122.001 156.665 121.894 156.722 121.806C156.778 121.718 156.867 121.654 156.969 121.629C157.073 121.607 157.181 121.627 157.27 121.684C157.359 121.742 157.422 121.832 157.444 121.936Z" fill="white"/>
<path d="M122.088 141.906C118.259 123.391 113.472 117.218 113.472 117.218L111.643 115.8L109.444 114.092L109.455 113.873L108.933 113.695L108.811 113.6L108.61 113.446L108.578 113.481L108.51 113.551L98.559 110.169L85.9347 105.881L80.0889 98.2822C79.1368 97.0447 77.9111 96.0445 76.5077 95.36C75.1044 94.6755 73.5616 94.3253 72.0003 94.3369L53.3306 94.475C50.8063 94.4937 48.3802 95.456 46.5294 97.1728L34.2581 108.555L15.137 117.687L15.1048 117.655L14.904 117.799L11.9496 119.211L12.0715 119.846L10.2429 121.165C10.2429 121.165 5.4564 126.909 1.62717 144.137C0.653053 148.521 0.173558 157.924 0.000486368 169.511C-0.00820701 170.098 0.0997173 170.68 0.317981 171.224C0.536245 171.768 0.860496 172.263 1.27188 172.681C1.68326 173.098 2.17357 173.43 2.71429 173.657C3.25502 173.883 3.83537 174 4.42161 174H106.551L119.298 174C119.884 174 120.464 173.883 121.004 173.657C121.544 173.431 122.035 173.099 122.446 172.682C122.857 172.265 123.181 171.77 123.4 171.227C123.619 170.683 123.727 170.102 123.719 169.516C123.55 156.907 123.071 146.66 122.088 141.906Z" fill="#3F3D56"/>
<path d="M135.191 16.1465C131.218 16.1465 127.407 17.725 124.598 20.5346C121.788 23.3443 120.21 27.1549 120.21 31.1284C120.21 35.1018 121.788 38.9125 124.598 41.7221C127.407 44.5318 131.218 46.1102 135.191 46.1102H246.842C250.815 46.1102 254.626 44.5318 257.435 41.7221C260.245 38.9125 261.824 35.1018 261.824 31.1284C261.824 27.1549 260.245 23.3443 257.435 20.5346C254.626 17.725 250.815 16.1465 246.842 16.1465H135.191Z" fill="#E5E5E5"/>
<path d="M135.191 19.1786C132.022 19.1786 128.983 20.4376 126.742 22.6786C124.501 24.9196 123.242 27.9591 123.242 31.1284C123.242 34.2977 124.501 37.3371 126.742 39.5782C128.983 41.8192 132.022 43.0782 135.191 43.0782H246.842C250.011 43.0782 253.05 41.8192 255.291 39.5782C257.532 37.3371 258.791 34.2977 258.791 31.1284C258.791 27.9591 257.532 24.9196 255.291 22.6786C253.05 20.4376 250.011 19.1786 246.842 19.1786H135.191Z" fill="white"/>
<path d="M65.5973 87.3231C79.1057 87.3231 90.0564 76.3724 90.0564 62.864C90.0564 49.3556 79.1057 38.4048 65.5973 38.4048C52.0889 38.4048 41.1382 49.3556 41.1382 62.864C41.1382 76.3724 52.0889 87.3231 65.5973 87.3231Z" fill="#9E616A"/>
<path d="M59.3403 86.1254C59.2358 85.8954 59.1316 85.6645 59.0277 85.4329C59.0678 85.4342 59.1074 85.4399 59.1474 85.441L59.3403 86.1254Z" fill="#2F2E41"/>
<path d="M40.4581 39.5171C41.6951 38.5303 43.141 37.6223 44.7226 37.6733C46.3042 37.7243 47.9081 39.1528 47.5804 40.7009C50.4856 35.5571 55.1097 31.601 60.6411 29.5268C66.1725 27.4527 72.2577 27.3932 77.8287 29.3587C81.7597 30.7455 85.6146 33.5202 86.5176 37.5896C86.7495 38.6343 86.7992 39.7797 87.4515 40.628C88.2739 41.6976 89.8474 41.9395 91.143 41.5633C91.156 41.5595 91.1689 41.5557 91.1818 41.5518C91.4007 41.4771 91.637 41.4697 91.8601 41.5307C92.0832 41.5917 92.2828 41.7183 92.4332 41.894C92.5836 42.0697 92.6779 42.2865 92.7037 42.5163C92.7295 42.7462 92.6858 42.9785 92.5782 43.1832L91.4659 45.2576C92.868 45.5701 94.3249 45.5391 95.7124 45.1673C95.9429 45.1068 96.1865 45.1192 96.4097 45.2026C96.6329 45.2861 96.8248 45.4365 96.9591 45.6333C97.0934 45.8302 97.1636 46.0637 97.1599 46.302C97.1562 46.5403 97.0789 46.7716 96.9386 46.9641C93.271 51.9995 87.1437 55.2511 80.8908 55.2129C76.4467 55.1858 71.9569 53.6542 67.6318 54.6762C65.9585 55.0715 64.3951 55.8365 63.056 56.9149C61.717 57.9933 60.6364 59.3578 59.8935 60.9083C59.1506 62.4588 58.7643 64.156 58.7629 65.8753C58.7615 67.5946 59.145 69.2924 59.8853 70.8441C58.5566 69.3908 55.9881 69.7349 54.6289 71.1598C53.2698 72.5848 52.918 74.7116 53.0549 76.676C53.2643 79.6805 54.4415 82.5116 55.6825 85.267C45.2779 84.9395 35.4368 77.6408 32.1243 67.7691C28.7979 57.8561 32.2841 46.0378 40.4581 39.5171Z" fill="#2F2E41"/>
<path opacity="0.2" d="M24.0741 136.316L30.9343 173.642L35.0506 174L24.0741 136.316Z" fill="black"/>
<path opacity="0.2" d="M99.641 133.501L92.7807 173.615L88.6644 174L99.641 133.501Z" fill="black"/>
<path d="M46.3092 26.9554C44.9939 27.5046 43.6214 26.9027 43.0458 25.5242C42.4614 24.1247 43.0072 22.7039 44.3436 22.1459C45.6802 21.5878 47.0283 22.1912 47.6221 23.6133C48.207 25.0141 47.6671 26.3884 46.3092 26.9554ZM43.7896 19.3911L42.7437 19.8278C42.4825 19.9356 42.1902 19.9414 41.9249 19.8441C41.6595 19.7468 41.4404 19.5534 41.3108 19.3022L41.259 19.201C40.1337 17.1715 40.0049 14.705 40.8781 11.8737C41.6871 9.33396 42.023 7.54774 41.3473 5.92953C40.5661 4.05857 38.8978 3.47249 36.7704 4.32149C35.9453 4.66603 35.6828 4.66053 35.0335 5.30467C34.8922 5.44648 34.7239 5.55841 34.5384 5.63376C34.353 5.70911 34.1543 5.74635 33.9542 5.74326C33.7607 5.74098 33.5697 5.69976 33.3925 5.62207C33.2153 5.54437 33.0555 5.43179 32.9228 5.29103C32.667 5.01976 32.5238 4.66156 32.5219 4.28875C32.52 3.91593 32.6596 3.5563 32.9126 3.28247C34.004 2.13999 35.3204 1.23614 36.7787 0.627963C41.3495 -1.28067 43.6505 1.53715 44.7035 4.05884C45.7334 6.52534 45.1541 8.81384 44.2232 11.7777C43.4431 14.2404 43.4885 16.0653 44.3747 17.8798C44.4387 18.017 44.4743 18.1657 44.4793 18.317C44.4844 18.4682 44.4588 18.619 44.4042 18.7601C44.3495 18.9013 44.2669 19.0299 44.1613 19.1384C44.0557 19.2468 43.9292 19.3327 43.7896 19.3911Z" fill="#419EF3"/>
<path d="M159.853 38.2737H137.639C137.569 38.2742 137.499 38.2607 137.433 38.234C137.368 38.2073 137.309 38.168 137.258 38.1183C137.208 38.0685 137.169 38.0094 137.142 37.9442C137.114 37.8791 137.1 37.8092 137.1 37.7386C137.1 37.6681 137.114 37.5982 137.142 37.533C137.169 37.4679 137.208 37.4087 137.258 37.359C137.309 37.3093 137.368 37.2699 137.433 37.2432C137.499 37.2166 137.569 37.2031 137.639 37.2036H159.853C159.995 37.2045 160.13 37.2613 160.229 37.3616C160.329 37.4618 160.385 37.5973 160.385 37.7386C160.385 37.8799 160.329 38.0155 160.229 38.1157C160.13 38.2159 159.995 38.2727 159.853 38.2737Z" fill="#419EF3"/>
<path d="M188.034 38.452H165.819C165.749 38.4525 165.679 38.439 165.613 38.4124C165.548 38.3857 165.489 38.3464 165.439 38.2966C165.389 38.2469 165.349 38.1877 165.322 38.1226C165.295 38.0574 165.281 37.9876 165.281 37.917C165.281 37.8464 165.295 37.7765 165.322 37.7114C165.349 37.6462 165.389 37.5871 165.439 37.5373C165.489 37.4876 165.548 37.4483 165.613 37.4216C165.679 37.3949 165.749 37.3814 165.819 37.3819H188.034C188.104 37.3814 188.174 37.3949 188.24 37.4216C188.305 37.4483 188.364 37.4876 188.414 37.5373C188.464 37.5871 188.504 37.6462 188.531 37.7114C188.558 37.7765 188.572 37.8464 188.572 37.917C188.572 37.9876 188.558 38.0574 188.531 38.1226C188.504 38.1877 188.464 38.2469 188.414 38.2966C188.364 38.3464 188.305 38.3857 188.24 38.4124C188.174 38.439 188.104 38.4525 188.034 38.452Z" fill="#419EF3"/>
<path d="M216.214 38.6304H193.999C193.858 38.6294 193.723 38.5726 193.623 38.4724C193.524 38.3721 193.468 38.2366 193.468 38.0953C193.468 37.954 193.524 37.8185 193.623 37.7182C193.723 37.618 193.858 37.5612 193.999 37.5603H216.214C216.284 37.5598 216.354 37.5733 216.42 37.5999C216.485 37.6266 216.544 37.6659 216.594 37.7157C216.645 37.7654 216.684 37.8246 216.711 37.8897C216.738 37.9549 216.752 38.0247 216.752 38.0953C216.752 38.1659 216.738 38.2358 216.711 38.3009C216.684 38.3661 216.645 38.4252 216.594 38.475C216.544 38.5247 216.485 38.564 216.42 38.5907C216.354 38.6174 216.284 38.6309 216.214 38.6304Z" fill="#419EF3"/>
<path d="M244.394 38.8087H222.18C222.038 38.8078 221.903 38.751 221.804 38.6507C221.704 38.5505 221.648 38.415 221.648 38.2737C221.648 38.1324 221.704 37.9968 221.804 37.8966C221.903 37.7964 222.038 37.7396 222.18 37.7386H244.394C244.535 37.7396 244.67 37.7964 244.77 37.8966C244.869 37.9968 244.925 38.1324 244.925 38.2737C244.925 38.415 244.869 38.5505 244.77 38.6507C244.67 38.751 244.535 38.8078 244.394 38.8087Z" fill="#419EF3"/>
<path d="M148.698 33.3494C150.978 33.3494 152.826 31.5009 152.826 29.2207C152.826 26.9405 150.978 25.092 148.698 25.092C146.417 25.092 144.569 26.9405 144.569 29.2207C144.569 31.5009 146.417 33.3494 148.698 33.3494Z" fill="#419EF3"/>
<path d="M177.048 33.3494C179.328 33.3494 181.176 31.5009 181.176 29.2207C181.176 26.9405 179.328 25.092 177.048 25.092C174.768 25.092 172.919 26.9405 172.919 29.2207C172.919 31.5009 174.768 33.3494 177.048 33.3494Z" fill="#419EF3"/>
<path d="M205.398 33.3494C207.678 33.3494 209.527 31.5009 209.527 29.2207C209.527 26.9405 207.678 25.092 205.398 25.092C203.118 25.092 201.27 26.9405 201.27 29.2207C201.27 31.5009 203.118 33.3494 205.398 33.3494Z" fill="#419EF3"/>
<path d="M233.748 33.3494C236.029 33.3494 237.877 31.5009 237.877 29.2207C237.877 26.9405 236.029 25.092 233.748 25.092C231.468 25.092 229.62 26.9405 229.62 29.2207C229.62 31.5009 231.468 33.3494 233.748 33.3494Z" fill="#419EF3"/>
</g>
<defs>
<clipPath id="clip0_29_437">
<rect width="261.824" height="174" fill="white"/>
</clipPath>
</defs>
</svg>
