<svg width="50" height="56" viewBox="0 0 50 56" fill="none" xmlns="http://www.w3.org/2000/svg">
<path fill-rule="evenodd" clip-rule="evenodd" d="M20.8608 0H26.9954V4.05476C28.9467 3.93593 30.838 4.04955 32.5375 4.4083C25.3286 7.24567 22.0119 14.5373 21.4689 15.7315L21.4354 15.8046C19.6739 15.5371 17.7654 15.3148 15.9595 15.3313C14.0985 15.4899 12.2929 15.7649 9.31928 17.4398C8.89998 17.7361 8.33467 18.2221 7.56645 18.9632C7.51063 18.923 7.45081 18.8858 7.37259 18.8368C7.31002 18.7977 7.23533 18.7513 7.14147 18.6899C6.7168 18.4125 6.09674 18.037 5.34064 17.662C3.78307 16.8892 1.87244 16.2302 0 16.2302V10.2822C3.23765 10.2822 6.14857 11.3814 8.13498 12.3669C8.82406 12.7088 9.42879 13.0505 9.92922 13.3541C10.372 12.4091 10.9562 11.5301 11.6546 10.7197L8.28574 5.43336L13.6858 1.92656L16.7938 6.80382C18.0738 6.14373 19.4467 5.59599 20.8608 5.16552V0ZM37.3575 13.3291C35.1219 14.3654 33.1867 16.0689 31.442 19.3479C31.442 19.3479 27.5712 17.5777 24.4308 16.6576C26.841 11.7714 29.6456 9.02212 33.7815 7.10503C37.7822 5.25056 42.555 4.77572 48.2248 4.97165L47.9564 12.2695C42.7249 12.0887 39.7281 12.2302 37.3575 13.3291ZM10.5556 20.2743C-0.582963 30.2095 15.3291 55.0472 28.059 55.0472C40.7888 55.0472 58.3174 30.2315 45.5625 18.8551C45.2682 18.5925 45.0105 18.3563 44.7713 18.137C43.717 17.1703 43.0154 16.5271 41.0701 15.3704C37.1557 15.3704 34.7968 19.286 33.7229 21.6715C33.6683 21.7927 33.601 21.9057 33.523 22.0094L31.0474 28.8965L30.1553 32.0991C30.0611 32.4373 30.0856 32.7974 30.225 33.1196L31.267 35.5278L36.6625 34.9016L37.0161 37.9484L31.9417 38.5374L32.2714 43.3713L29.2113 43.58L28.7998 37.5499L27.41 34.3376C26.9918 33.3711 26.9178 32.2903 27.2003 31.276L27.227 31.1803L24.1075 32.5909L22.0679 37.7468L19.2156 36.6185L20.831 32.5353L15.9072 31.3752L16.6105 28.3896L22.7536 29.8369L28.3615 27.3007L30.2473 22.0548C25.3886 19.7721 15.411 15.9434 10.5556 20.2743Z" fill="#FF0000"/>
</svg>
