<svg width="107" height="82" viewBox="0 0 107 82" fill="none" xmlns="http://www.w3.org/2000/svg">
<g clip-path="url(#clip0_57_593)">
<path d="M72.2349 81.3394C72.1311 81.4279 72.024 81.5142 71.9158 81.5994H58.7818C58.7064 81.5142 58.631 81.4279 58.5567 81.3394C57.9503 80.6121 57.4164 79.8272 56.9628 78.996C55.8844 77.0535 55.5129 74.5068 55.5129 71.9132C55.5129 71.7548 55.5141 71.5964 55.5173 71.438C55.5294 70.7104 55.5698 69.9817 55.6299 69.265C55.6408 69.1405 55.6517 69.017 55.6637 68.8935C55.761 67.8655 55.8976 66.8648 56.0527 65.9296C56.0723 65.8105 56.092 65.6925 56.1127 65.5756C56.4289 63.7182 56.8528 61.8808 57.3823 60.0726C57.3823 60.0726 57.3998 60.077 57.4336 60.0858C57.5308 60.1131 57.7635 60.1775 58.1055 60.2791C59.0472 60.5588 60.816 61.1226 62.8557 61.9605C62.9672 62.0053 63.0797 62.0523 63.1933 62.1003C64.9189 62.8117 66.5892 63.6506 68.1904 64.6098C68.2898 64.6699 68.3881 64.7311 68.4865 64.7923V64.801L68.2713 71.7679L70.1941 65.9678C70.5863 66.2661 70.961 66.5753 71.3183 66.8954C71.4166 66.9828 71.5149 67.0723 71.61 67.1652C72.4216 67.9091 73.1143 68.7731 73.6639 69.7271C76.5404 74.9133 75.3332 78.7261 72.2349 81.3394Z" fill="#F2F2F2"/>
<path d="M70.3832 81.5994H70.0336C70.0314 81.5131 70.0281 81.4268 70.0226 81.3394C69.8817 78.7185 68.7575 75.8244 67.2269 73.0309C67.1723 72.9293 67.1166 72.8255 67.0576 72.7239C66.3147 71.3954 65.4865 70.0953 64.6311 68.8597C64.5656 68.7636 64.4978 68.6663 64.4301 68.5702C63.2917 66.9456 62.1162 65.4423 61.0542 64.1586C60.9799 64.0669 60.9035 63.9773 60.8281 63.8888C59.2538 62.0009 57.9548 60.6255 57.4337 60.0858C57.3561 60.006 57.296 59.9448 57.2545 59.9022C57.2163 59.8607 57.1933 59.8389 57.189 59.8345L57.3113 59.7121L57.3124 59.7089L57.437 59.5865C57.4413 59.592 57.5167 59.6641 57.65 59.8028C57.7625 59.9175 57.9165 60.0781 58.1056 60.2792C58.7655 60.9784 59.8568 62.1681 61.1198 63.6768C61.193 63.7643 61.2684 63.8549 61.3437 63.9456C62.2057 64.9868 63.1398 66.1667 64.0652 67.4351C64.2979 67.7541 64.5237 68.0705 64.7426 68.3845C64.8114 68.4806 64.8791 68.5767 64.9446 68.6729C65.87 70.0079 66.6781 71.292 67.369 72.5251L67.5415 72.8342C69.3027 76.0462 70.251 78.8911 70.3734 81.3394C70.3777 81.4268 70.381 81.5131 70.3832 81.5994Z" fill="white"/>
<path d="M63.048 61.7049C62.9858 61.7912 62.9224 61.8764 62.8558 61.9605C62.3548 62.6062 61.7711 63.1832 61.1198 63.6768C61.0247 63.7468 60.9275 63.8189 60.8281 63.8888C60.5569 64.078 60.2761 64.253 59.9868 64.4132C58.795 65.0769 57.4732 65.4736 56.1128 65.5756C56.0691 65.58 56.0243 65.5833 55.9806 65.5855C55.9609 65.7024 55.9424 65.8193 55.9216 65.9383C55.9653 65.9361 56.009 65.934 56.0528 65.9296C57.4937 65.8358 58.8957 65.4227 60.1573 64.7202C60.466 64.549 60.7654 64.3615 61.0542 64.1586C61.1525 64.0898 61.2487 64.0177 61.3437 63.9456C62.0404 63.4164 62.6625 62.7958 63.1934 62.1004C63.2567 62.0162 63.319 61.931 63.3802 61.8458C63.2665 61.7977 63.1562 61.7508 63.048 61.7049Z" fill="white"/>
<path d="M68.3095 64.3629C68.2712 64.446 68.2308 64.5279 68.1903 64.6098C67.4114 66.1621 66.218 67.4685 64.7424 68.3845C64.6397 68.4489 64.5359 68.5112 64.4299 68.5702C64.3983 68.5888 64.3644 68.6084 64.3327 68.6259C63.0136 69.3579 61.5386 69.7641 60.0307 69.8107C58.5227 69.8572 57.0255 69.5428 55.6637 68.8936C55.6309 68.8783 55.5992 68.863 55.5675 68.8477C55.5555 68.9722 55.5446 69.0968 55.5359 69.2224C55.5665 69.2366 55.5981 69.2519 55.6298 69.265C57.0307 69.9108 58.5641 70.2173 60.1057 70.1596C61.6472 70.1019 63.1534 69.6816 64.5021 68.9329C64.5458 68.9088 64.5884 68.8848 64.631 68.8597C64.737 68.7985 64.8418 68.7362 64.9445 68.6729C66.4568 67.7302 67.6818 66.3911 68.4864 64.801C68.529 64.7191 68.5695 64.6361 68.6088 64.5519C68.5094 64.4886 68.41 64.4252 68.3095 64.3629Z" fill="white"/>
<path d="M71.3762 66.6474C71.3576 66.7304 71.339 66.8134 71.3183 66.8954C70.7563 69.2016 69.3462 71.2116 67.3689 72.525C67.2673 72.5939 67.1624 72.6594 67.0575 72.7239C66.9449 72.7916 66.8324 72.8594 66.7166 72.9227C64.9371 73.9077 62.8883 74.2951 60.872 74.0278C58.8558 73.7605 56.9787 72.8526 55.5173 71.438C55.4922 71.4151 55.4682 71.391 55.4441 71.367C55.4441 71.5298 55.443 71.6904 55.4452 71.8521C55.467 71.8728 55.49 71.8936 55.5129 71.9132C57.0345 73.2918 58.9492 74.1599 60.9888 74.3959C63.0284 74.632 65.0908 74.2242 66.8871 73.2297C67.0029 73.1663 67.1165 73.1008 67.2268 73.0309C67.3339 72.9675 67.4377 72.902 67.5414 72.8342C69.5469 71.5074 70.9948 69.4899 71.61 67.1652C71.6307 67.0866 71.6515 67.0079 71.67 66.9281C71.575 66.832 71.4756 66.7413 71.3762 66.6474Z" fill="white"/>
<path d="M62.2164 48.857H0V2.17846H62.2164V48.857Z" fill="white"/>
<path d="M15.0764 11.9206C16.4441 11.9206 17.5529 10.8118 17.5529 9.44408C17.5529 8.07633 16.4441 6.96755 15.0764 6.96755C13.7086 6.96755 12.5999 8.07633 12.5999 9.44408C12.5999 10.8118 13.7086 11.9206 15.0764 11.9206Z" fill="#E6E6E6"/>
<path d="M20.7958 7.79307C20.6865 7.79326 20.5817 7.83684 20.5044 7.91422C20.4272 7.99161 20.3838 8.09648 20.3838 8.20582C20.3838 8.31516 20.4272 8.42004 20.5044 8.49742C20.5817 8.57481 20.6865 8.61838 20.7958 8.61858H50.9317C51.0411 8.61838 51.1459 8.57481 51.2231 8.49742C51.3004 8.42004 51.3437 8.31516 51.3437 8.20582C51.3437 8.09648 51.3004 7.99161 51.2231 7.91422C51.1459 7.83684 51.0411 7.79326 50.9317 7.79307H20.7958Z" fill="#E6E6E6"/>
<path d="M20.796 10.2696C20.6865 10.2694 20.5814 10.3126 20.5038 10.3899C20.4263 10.4671 20.3826 10.572 20.3823 10.6815C20.3821 10.7909 20.4254 10.896 20.5026 10.9736C20.5798 11.0512 20.6847 11.0949 20.7942 11.0951H39.8465C39.9007 11.0952 39.9545 11.0846 40.0046 11.0639C40.0548 11.0432 40.1004 11.0128 40.1388 10.9745C40.1772 10.9361 40.2077 10.8906 40.2285 10.8405C40.2492 10.7903 40.26 10.7366 40.26 10.6823C40.26 10.6281 40.2492 10.5743 40.2285 10.5242C40.2077 10.4741 40.1772 10.4286 40.1388 10.3902C40.1004 10.3519 40.0548 10.3215 40.0046 10.3008C39.9545 10.2801 39.9007 10.2695 39.8465 10.2696H20.796Z" fill="#E6E6E6"/>
<path d="M62.2164 48.857H0V2.17846H62.2164V48.857ZM0.696356 48.1606H61.52V2.87483H0.696356V48.1606Z" fill="#E6E6E6"/>
<path d="M3.47754 16.4135V44.177H58.739V16.4135H3.47754ZM58.4733 23.2879H44.9901V16.6792H58.4733V23.2879ZM31.2411 23.2879V16.6792H44.7244V23.2879H31.2411ZM44.7244 23.5536V30.1624H31.2411V23.5536H44.7244ZM30.9754 23.2879H17.4922V16.6792H30.9754V23.2879ZM30.9754 23.5536V30.1624H17.4922V23.5536H30.9754ZM17.2265 30.1624H3.74322V23.5536H17.2265V30.1624ZM17.2265 30.4281V37.0369H3.74322V30.4281H17.2265ZM17.4922 30.4281H30.9754V37.0369H17.4922V30.4281ZM30.9754 37.3026V43.9114H17.4922V37.3026H30.9754ZM31.2411 37.3026H44.7244V43.9114H31.2411V37.3026ZM31.2411 37.0369V30.4281H44.7244V37.0369H31.2411ZM44.9901 30.4281H58.4733V37.0369H44.9901V30.4281ZM44.9901 30.1624V23.5536H58.4733V30.1624H44.9901ZM17.2265 16.6792V23.2879H3.74322V16.6792H17.2265ZM3.74322 37.3026H17.2265V43.9114H3.74322V37.3026ZM44.9901 43.9114V37.3026H58.4733V43.9114H44.9901Z" fill="#E4E4E4"/>
<path d="M26.1628 23.8827L20.6642 23.7582C20.1142 21.6277 20.3618 19.599 20.8007 17.7297L26.2993 17.8541C25.7431 19.8196 25.6962 21.8942 26.1628 23.8827Z" fill="#419EF3"/>
<path d="M21.7429 19.062L21.7458 18.8528L24.5946 18.9545L24.5915 19.1638L21.7429 19.062Z" fill="white"/>
<path d="M21.731 19.8989L21.7339 19.6897L24.5825 19.7916L24.5796 20.0008L21.731 19.8989Z" fill="white"/>
<path d="M21.7188 20.7358L21.7218 20.5266L24.5704 20.6285L24.5675 20.8377L21.7188 20.7358Z" fill="white"/>
<path d="M21.7068 21.5727L21.7097 21.3635L24.5585 21.4654L24.5554 21.6746L21.7068 21.5727Z" fill="white"/>
<path d="M21.6948 22.4096L21.6977 22.2004L24.5465 22.3023L24.5434 22.5115L21.6948 22.4096Z" fill="white"/>
<path d="M14.2072 39.2922L8.70864 39.1677C8.15863 37.0371 8.40625 35.0085 8.84516 33.1391L14.3437 33.2636C13.7876 35.229 13.7406 37.3036 14.2072 39.2922Z" fill="#F0F0F0"/>
<path d="M9.78711 34.4715L9.79003 34.2622L12.6388 34.364L12.6357 34.5732L9.78711 34.4715Z" fill="white"/>
<path d="M9.77539 35.3084L9.77831 35.0991L12.6269 35.201L12.624 35.4102L9.77539 35.3084Z" fill="white"/>
<path d="M9.76318 36.1452L9.76624 35.936L12.6149 36.0379L12.6119 36.2471L9.76318 36.1452Z" fill="white"/>
<path d="M9.75122 36.9821L9.75414 36.7729L12.6029 36.8748L12.5998 37.084L9.75122 36.9821Z" fill="white"/>
<path d="M9.73926 37.819L9.74218 37.6098L12.5909 37.7117L12.5879 37.9209L9.73926 37.819Z" fill="white"/>
<path d="M42.9006 32.2517L37.402 32.1272C36.852 29.9966 37.0996 27.968 37.5385 26.0986L43.0371 26.2231C42.4809 28.1885 42.434 30.2631 42.9006 32.2517Z" fill="#F0F0F0"/>
<path d="M38.4807 27.4309L38.4836 27.2217L41.3324 27.3235L41.3293 27.5327L38.4807 27.4309Z" fill="white"/>
<path d="M38.4688 28.2678L38.4717 28.0586L41.3203 28.1605L41.3174 28.3697L38.4688 28.2678Z" fill="white"/>
<path d="M38.4568 29.1047L38.4598 28.8955L41.3085 28.9974L41.3055 29.2066L38.4568 29.1047Z" fill="white"/>
<path d="M38.4446 29.9416L38.4475 29.7324L41.2963 29.8343L41.2932 30.0435L38.4446 29.9416Z" fill="white"/>
<path d="M38.4326 30.7785L38.4355 30.5693L41.2843 30.6712L41.2812 30.8804L38.4326 30.7785Z" fill="white"/>
<path d="M40.5095 30.9233L35.0109 30.7988C34.4609 28.6682 34.7085 26.6396 35.1474 24.7702L40.646 24.8947C40.0898 26.8601 40.0428 28.9347 40.5095 30.9233Z" fill="#419EF3"/>
<path d="M36.0896 26.1025L36.0925 25.8933L38.9413 25.9951L38.9382 26.2043L36.0896 26.1025Z" fill="white"/>
<path d="M36.0776 26.9394L36.0806 26.7302L38.9292 26.8321L38.9263 27.0413L36.0776 26.9394Z" fill="white"/>
<path d="M36.0654 27.7763L36.0685 27.5671L38.9171 27.669L38.9142 27.8782L36.0654 27.7763Z" fill="white"/>
<path d="M36.0535 28.6132L36.0564 28.404L38.9051 28.5059L38.9021 28.7151L36.0535 28.6132Z" fill="white"/>
<path d="M36.0417 29.4501L36.0447 29.2409L38.8934 29.3428L38.8904 29.552L36.0417 29.4501Z" fill="white"/>
<path d="M60.7898 43.0582L55.2912 42.9337C54.7412 40.8031 54.9888 38.7745 55.4277 36.9051L60.9263 37.0296C60.3701 38.995 60.3231 41.0696 60.7898 43.0582Z" fill="#419EF3"/>
<path d="M56.3696 38.2373L56.3727 38.0281L59.2213 38.13L59.2183 38.3392L56.3696 38.2373Z" fill="white"/>
<path d="M56.3577 39.0742L56.3606 38.865L59.2093 38.9669L59.2063 39.1761L56.3577 39.0742Z" fill="white"/>
<path d="M56.3457 39.9113L56.3488 39.702L59.1974 39.8038L59.1945 40.013L56.3457 39.9113Z" fill="white"/>
<path d="M56.3337 40.7481L56.3368 40.5389L59.1854 40.6407L59.1824 40.8499L56.3337 40.7481Z" fill="white"/>
<path d="M56.3218 41.585L56.3247 41.3758L59.1735 41.4777L59.1704 41.6869L56.3218 41.585Z" fill="white"/>
<path d="M54.8564 24.9455L49.3578 24.821C48.8078 22.6904 49.0554 20.6618 49.4943 18.7924L54.9929 18.9169C54.4367 20.8823 54.3898 22.9569 54.8564 24.9455Z" fill="#F0F0F0"/>
<path d="M50.4363 20.1247L50.4392 19.9155L53.288 20.0173L53.2849 20.2265L50.4363 20.1247Z" fill="white"/>
<path d="M50.4243 20.9616L50.4272 20.7524L53.2759 20.8543L53.2729 21.0635L50.4243 20.9616Z" fill="white"/>
<path d="M50.4124 21.7985L50.4154 21.5893L53.264 21.6912L53.2611 21.9004L50.4124 21.7985Z" fill="white"/>
<path d="M50.4004 22.6354L50.4033 22.4262L53.2521 22.5281L53.249 22.7373L50.4004 22.6354Z" fill="white"/>
<path d="M50.3882 23.4723L50.3911 23.2631L53.2399 23.365L53.2368 23.5742L50.3882 23.4723Z" fill="white"/>
<path d="M60.4934 38.6153C60.683 38.5686 60.8601 38.4809 61.0121 38.3584C61.1642 38.2358 61.2875 38.0815 61.3735 37.9061C61.4594 37.7307 61.5059 37.5387 61.5096 37.3434C61.5133 37.1482 61.4741 36.9545 61.3948 36.776L64.8618 33.5335L62.4633 32.9571L59.5387 36.1246C59.2477 36.2776 59.023 36.5321 58.907 36.8398C58.7911 37.1475 58.7921 37.487 58.9098 37.794C59.0274 38.101 59.2536 38.3542 59.5455 38.5055C59.8374 38.6569 60.1746 38.696 60.4934 38.6153Z" fill="#FFB6B6"/>
<path d="M62.2841 36.0034L60.6672 33.7237L66.7405 27.4421L68.1506 17.5408C68.2204 17.0514 68.397 16.5834 68.6679 16.1699C68.9389 15.7564 69.2975 15.4076 69.7184 15.1483C70.1393 14.889 70.6122 14.7256 71.1033 14.6696C71.5945 14.6136 72.092 14.6664 72.5605 14.8243C73.4063 15.1104 74.1041 15.7204 74.5007 16.5203C74.8974 17.3203 74.9605 18.245 74.6762 19.0914L71.0783 29.7662L62.2841 36.0034Z" fill="#E4E4E4"/>
<path d="M73.6874 78.1919L71.8925 78.1918L71.0386 71.2686L73.6878 71.2687L73.6874 78.1919Z" fill="#FFB6B6"/>
<path d="M74.6532 81.6H73.3796L73.1522 80.3975L72.57 81.6H69.192C69.0301 81.6 68.8724 81.5483 68.742 81.4523C68.6115 81.3563 68.5152 81.2212 68.467 81.0666C68.4188 80.912 68.4213 80.7461 68.4741 80.593C68.5269 80.44 68.6273 80.3078 68.7605 80.2158L71.4581 78.3528V77.1371L74.2955 77.3065L74.6532 81.6Z" fill="#2F2E41"/>
<path d="M84.7611 76.3654L83.1844 77.2232L79.1252 71.5502L81.4522 70.2841L84.7611 76.3654Z" fill="#FFB6B6"/>
<path d="M87.2384 78.8974L86.1197 79.5062L85.3452 78.5586L85.4086 79.8931L82.4414 81.5077C82.2992 81.5851 82.136 81.6151 81.9755 81.5931C81.8151 81.5712 81.6659 81.4985 81.5497 81.3858C81.4335 81.273 81.3563 81.1261 81.3296 80.9664C81.3028 80.8067 81.3277 80.6426 81.4008 80.4981L82.8798 77.5723L82.2987 76.5045L84.872 75.2971L87.2384 78.8974Z" fill="#2F2E41"/>
<path d="M74.4437 75.7266H70.7343V62.5177L68.4379 53.9061C66.7897 47.7477 66.3517 41.3281 67.1482 35.0028L67.1514 34.977L67.1713 34.9602C67.2303 34.9107 73.1078 30.0509 76.8255 33.7686C79.3314 36.2745 76.9767 45.2852 76.845 45.7798V61.3134L74.4437 75.7266Z" fill="#2F2E41"/>
<path d="M66.0186 37.4022L67.2141 25.4466C67.0588 25.1206 64.823 23.0555 67.1607 19.4246L69.6858 13.4976L74.4146 13.4241L74.4344 13.444C75.5469 14.5541 76.3674 15.9222 76.8228 17.4263C77.2782 18.9304 77.3544 20.5239 77.0445 22.0646L75.6511 29.0317L76.8584 33.8609L66.0186 37.4022Z" fill="#E4E4E4"/>
<path d="M72.2307 62.5859L79.851 73.3043L82.7741 71.226L76.4099 58.1478L72.2307 62.5859Z" fill="#2F2E41"/>
<path d="M71.6084 12.2928C74.0199 12.2928 75.9749 10.3379 75.9749 7.92635C75.9749 5.51483 74.0199 3.5599 71.6084 3.5599C69.1969 3.5599 67.2419 5.51483 67.2419 7.92635C67.2419 10.3379 69.1969 12.2928 71.6084 12.2928Z" fill="#FFB6B6"/>
<path opacity="0.1" d="M70.5352 23.7197L71.7307 30.893L70.5352 36.8708H68.144L69.2309 30.893L70.5352 23.7197Z" fill="black"/>
<path d="M71.6758 43.03C71.8211 42.8995 71.936 42.7388 72.0125 42.5591C72.0889 42.3794 72.1251 42.1851 72.1183 41.9899C72.1116 41.7948 72.0621 41.6034 71.9734 41.4295C71.8848 41.2555 71.759 41.103 71.6051 40.9829L73.137 36.4899L70.7496 37.1107L69.6608 41.2821C69.4762 41.5542 69.3977 41.8845 69.4403 42.2105C69.4829 42.5365 69.6436 42.8356 69.892 43.051C70.1403 43.2665 70.4591 43.3834 70.7879 43.3795C71.1166 43.3756 71.4326 43.2512 71.6758 43.03Z" fill="#FFB6B6"/>
<path d="M72.026 39.8824L69.5262 38.6325L71.9265 30.2313L68.5087 20.8322C68.3397 20.3676 68.2751 19.8715 68.3195 19.3792C68.3638 18.8868 68.5161 18.4102 68.7653 17.9833C69.0145 17.5564 69.3547 17.1896 69.7617 16.9089C70.1686 16.6282 70.6324 16.4406 71.12 16.3593C72.0009 16.2135 72.9037 16.4231 73.6303 16.9421C74.3569 17.4611 74.8479 18.2471 74.9957 19.1277L76.8476 30.2392L72.026 39.8824Z" fill="#E4E4E4"/>
<path d="M106.431 81.4413C106.431 81.4621 106.427 81.4827 106.419 81.5019C106.411 81.5211 106.4 81.5386 106.385 81.5532C106.37 81.5679 106.353 81.5796 106.334 81.5875C106.314 81.5954 106.294 81.5995 106.273 81.5994H20.287C20.2451 81.5994 20.2049 81.5828 20.1752 81.5531C20.1456 81.5235 20.1289 81.4833 20.1289 81.4413C20.1289 81.3994 20.1456 81.3592 20.1752 81.3296C20.2049 81.2999 20.2451 81.2833 20.287 81.2833H106.273C106.315 81.2834 106.355 81.3001 106.385 81.3297C106.414 81.3593 106.431 81.3994 106.431 81.4413Z" fill="#CACACA"/>
<path d="M88.5902 7.71286C88.0394 8.60715 86.8725 9.00139 85.8375 8.82233C84.8025 8.64327 83.9032 7.97526 83.2389 7.16163C82.5747 6.34799 82.1152 5.39027 81.663 4.44224C81.2109 3.4942 80.7535 2.53574 80.0926 1.71942C79.4316 0.903078 78.5371 0.229934 77.5036 0.0424425C76.9411 -0.0595946 76.3041 0.0077707 75.8937 0.405685C75.6107 0.703934 75.4563 1.10138 75.4635 1.51242C75.2846 1.44944 75.093 1.43143 74.9056 1.45998C74.7181 1.48853 74.5405 1.56275 74.3885 1.67611C74.2365 1.78946 74.1147 1.93848 74.0339 2.11001C73.953 2.28154 73.9156 2.47033 73.9249 2.65973C73.9096 2.65944 73.8945 2.65842 73.8792 2.65842C71.9535 1.5636 69.0307 2.1996 69.0307 3.39516C67.974 3.39516 66.6826 4.43866 66.6826 6.02322C68.8676 6.02322 70.1535 8.82279 68.8779 10.8301C68.5486 11.3421 68.1856 11.8317 67.7913 12.2954H70.5236C70.7529 11.9665 70.8912 11.5829 70.9246 11.1834C71.025 11.5464 71.0849 11.9193 71.1034 12.2954C71.1034 12.2954 78.567 13.2572 76.6407 5.81777C76.7681 5.81141 76.8921 5.77383 77.0017 5.70835C77.2926 5.53303 77.451 5.16224 77.4787 4.786C77.5507 4.80525 77.6225 4.82445 77.6941 4.84361C78.2076 4.98223 78.741 5.16185 79.0935 5.5602C79.6891 6.23346 79.5638 7.25533 79.7801 8.12788C80.041 9.18012 80.8213 10.0312 81.6882 10.6822C82.6195 11.3816 83.7075 11.913 84.8671 12.0233C86.0266 12.1336 87.2604 11.781 88.0638 10.9377C88.8673 10.0944 89.147 8.73592 88.5902 7.71286Z" fill="#2F2E41"/>
</g>
<defs>
<clipPath id="clip0_57_593">
<rect width="106.431" height="81.6" fill="white"/>
</clipPath>
</defs>
</svg>
