<svg width="50" height="50" viewBox="0 0 50 50" fill="none" xmlns="http://www.w3.org/2000/svg">
<path d="M9.13709 35.216C-6.00396 28.1382 -0.0285019 4.24786 10.482 0.300505C14.8422 -1.33699 19.6534 4.09556 19.6226 7.46855C19.6092 8.92698 18.9302 10.349 18.2228 11.8304C17.2941 13.7755 16.3163 15.8233 16.7314 18.1905C17.463 22.3612 18.2823 29.3983 16.1712 32.7387C14.0599 36.0791 11.9368 36.5247 9.13709 35.216Z" fill="#CF3333"/>
<path d="M39.5181 0.300505C50.0286 4.24786 56.0041 28.1382 40.8631 35.216C38.0632 36.5247 35.9401 36.0791 33.829 32.7387C31.7179 29.3983 32.5372 22.3612 33.2686 18.1905C33.6838 15.8233 32.7061 13.7755 31.7772 11.8304C31.0698 10.349 30.3908 8.92698 30.3776 7.46855C30.3468 4.09556 35.158 -1.33699 39.5181 0.300505Z" fill="#CF3333"/>
<path d="M31.5333 22.8998C31.6289 24.4408 31.6297 24.4407 31.6306 24.4407L31.6323 24.4405L31.6353 24.4402L31.6408 24.4398L31.6484 24.4391L31.6525 24.4387C31.6501 24.439 31.6383 24.4405 31.6183 24.4441C31.5783 24.4512 31.5082 24.466 31.4185 24.4941C31.2358 24.5516 30.9949 24.6566 30.7591 24.8429C30.3554 25.1616 29.7617 25.8693 29.7617 27.6552V49.9998C29.7617 50 29.7617 50 28.368 50C26.9744 50 26.9744 49.9994 26.9744 49.9992V27.6552C26.9744 24.9268 27.9633 23.2569 29.1422 22.3264C29.6977 21.888 30.2482 21.6508 30.6589 21.5218C30.866 21.4568 31.0433 21.4176 31.1763 21.3939C31.2429 21.382 31.2992 21.374 31.3431 21.3686C31.3651 21.3658 31.3842 21.3636 31.3999 21.3621L31.4213 21.3601L31.4302 21.3595L31.4341 21.3592L31.4359 21.359C31.4369 21.3589 31.4377 21.3589 31.5333 22.8998Z" fill="#CF3333"/>
<path d="M18.467 22.8998C18.3714 24.4408 18.3704 24.4407 18.3696 24.4407L18.368 24.4405L18.3648 24.4402L18.3595 24.4398L18.3517 24.4391C18.3491 24.4388 18.3477 24.4387 18.3474 24.4387C18.3498 24.439 18.362 24.4405 18.3818 24.4441C18.422 24.4512 18.4921 24.466 18.5817 24.4941C18.7644 24.5516 19.0052 24.6566 19.2412 24.8429C19.6449 25.1616 20.2386 25.8693 20.2386 27.6552V49.9998C20.2386 50 20.2386 50 21.6323 50C23.0259 50 23.0259 49.9994 23.0259 49.9992V27.6552C23.0259 24.9268 22.0368 23.2569 20.858 22.3264C20.3026 21.888 19.7521 21.6508 19.3412 21.5218C19.1343 21.4568 18.957 21.4176 18.824 21.3939C18.7573 21.382 18.7011 21.374 18.6571 21.3686C18.6351 21.3658 18.6161 21.3636 18.6002 21.3621L18.5789 21.3601L18.5701 21.3595L18.5662 21.3592L18.5643 21.359C18.5634 21.3589 18.5625 21.3589 18.467 22.8998Z" fill="#CF3333"/>
</svg>
