<svg width="50" height="51" viewBox="0 0 50 51" fill="none" xmlns="http://www.w3.org/2000/svg">
<path d="M18.6142 44.7571L19.0501 45.1948L18.6142 44.7571C16.4934 46.8691 13.2823 48.4745 10.0596 49.0968C6.82297 49.7219 3.71815 49.332 1.70363 47.6547C1.53423 47.5136 1.35299 47.2588 1.18783 46.8451C1.02449 46.4361 0.891608 45.9087 0.795524 45.2677C0.603316 43.9856 0.568354 42.3191 0.684079 40.3892C0.91527 36.5339 1.74217 31.7157 3.03039 27.0039C4.3197 22.2881 6.06046 17.7183 8.10142 14.3428C9.12212 12.6546 10.2024 11.2912 11.3167 10.3561C12.429 9.42271 13.5408 8.9433 14.6449 8.9442C16.5202 8.94574 17.835 9.57714 18.7854 10.5574C19.7537 11.556 20.3853 12.9608 20.7857 14.5643C21.4756 17.3266 21.4403 20.4873 21.4149 22.7576C21.4106 23.137 21.4067 23.4916 21.4064 23.8153C21.4056 24.8283 21.4491 26.0281 21.4962 27.3247C21.5153 27.8517 21.535 28.3947 21.5526 28.9477C21.6137 30.8734 21.6497 32.9429 21.5517 34.966C21.4536 36.9915 21.2218 38.9495 20.7557 40.6556C20.2885 42.3655 19.598 43.7773 18.6142 44.7571Z" fill="#964B00" stroke="#964B00" stroke-width="1.23557"/>
<path d="M35.4099 8.96142C36.514 8.96232 37.625 9.44356 38.7358 10.3788C39.8485 11.3157 40.9266 12.6809 41.9445 14.3707C43.98 17.7496 45.7132 22.3223 46.9948 27.0401C48.2753 31.754 49.0944 36.5736 49.3192 40.4293C49.4318 42.3594 49.3941 44.0259 49.1998 45.3077C49.1027 45.9484 48.969 46.4756 48.805 46.8844C48.6391 47.2978 48.4575 47.5523 48.2879 47.6931C46.2706 49.3671 43.1651 49.7519 39.9295 49.1216C36.7078 48.4939 33.4994 46.8832 31.3821 44.7678C30.3998 43.7864 29.7116 42.3735 29.2473 40.6628C28.784 38.956 28.5554 36.9976 28.4606 34.9719C28.3659 32.9486 28.4053 30.8792 28.4696 28.9536C28.4881 28.4006 28.5087 27.8575 28.5287 27.3304C28.5779 26.034 28.6234 24.8343 28.6242 23.8214C28.6245 23.4979 28.6211 23.1435 28.6175 22.7643C28.5958 20.494 28.5655 17.3328 29.2599 14.5715C29.6631 12.9686 30.2969 11.5649 31.2668 10.5679C32.2188 9.58916 33.5347 8.95991 35.4099 8.96142ZM35.4099 8.96142L35.4104 8.34363L35.4099 8.96142Z" fill="#964B00" stroke="#964B00" stroke-width="1.23557"/>
<path d="M25.0349 0C25.0349 0 25.0224 15.2808 25.0185 20.1429C25.0145 25.0051 20.8479 25.0016 20.8479 25.0016" fill="#964B00"/>
<path d="M25.0349 0C25.0349 0 25.0224 15.2808 25.0185 20.1429C25.0145 25.0051 20.8479 25.0016 20.8479 25.0016" stroke="#964B00" stroke-width="2.47114"/>
<path d="M25.0351 0C25.0351 0 25.0226 15.2809 25.0186 20.143C25.0147 25.005 29.1813 25.0085 29.1813 25.0085" fill="#964B00"/>
<path d="M25.0351 0C25.0351 0 25.0226 15.2809 25.0186 20.143C25.0147 25.005 29.1813 25.0085 29.1813 25.0085" stroke="#964B00" stroke-width="2.47114"/>
</svg>
