<svg width="26" height="24" viewBox="0 0 26 24" fill="none" xmlns="http://www.w3.org/2000/svg">
<path d="M13.0006 7.44599C10.3142 7.44599 8.12539 9.45175 8.12539 11.9136C8.12539 14.3754 10.3142 16.3812 13.0006 16.3812C15.6871 16.3812 17.8759 14.3754 17.8759 11.9136C17.8759 9.45175 15.6871 7.44599 13.0006 7.44599ZM25.5137 11.1923L20.7045 8.99103L22.4058 4.31867C22.6343 3.68576 21.9792 3.08543 21.2936 3.2995L16.1949 4.85851L13.7878 0.446759C13.4628 -0.14892 12.5385 -0.14892 12.2135 0.446759L9.81141 4.85385L4.70765 3.29485C4.01699 3.08543 3.36188 3.68576 3.59549 4.31402L5.29674 8.98638L0.487524 11.1923C-0.162508 11.4901 -0.162508 12.3371 0.487524 12.6349L5.29674 14.8361L3.59549 19.5131C3.36696 20.146 4.02207 20.7464 4.70765 20.5323L9.80634 18.9733L12.2084 23.3804C12.5334 23.9761 13.4577 23.9761 13.7827 23.3804L16.1848 18.9733L21.2835 20.5323C21.9741 20.7417 22.6292 20.1414 22.3956 19.5131L20.6944 14.8408L25.5036 12.6396C26.1638 12.3371 26.1638 11.4901 25.5137 11.1923ZM17.5966 16.1252C15.0624 18.4474 10.9388 18.4474 8.4047 16.1252C5.8706 13.803 5.8706 10.0242 8.4047 7.70194C10.9388 5.37973 15.0624 5.37973 17.5966 7.70194C20.1307 10.0242 20.1307 13.803 17.5966 16.1252Z" fill="#FDB813"/>
</svg>
