<svg width="109" height="83" viewBox="0 0 109 83" fill="none" xmlns="http://www.w3.org/2000/svg">
<g clip-path="url(#clip0_57_497)">
<path d="M94.72 64.5743C94.6957 64.5371 94.6716 64.4998 94.6478 64.4625C94.6239 64.4252 94.6001 64.3878 94.5764 64.3503C94.5527 64.3128 94.5292 64.2751 94.5057 64.2374C94.4822 64.1997 94.4589 64.1618 94.4356 64.1236C94.3967 63.0302 94.3961 61.9463 94.434 60.8722C94.4709 59.8056 94.5457 58.7519 94.6581 57.711C94.7692 56.6779 94.9164 55.6607 95.0997 54.6595C95.2815 53.666 95.4982 52.6912 95.7498 51.7351C95.7785 51.6249 95.8076 51.5151 95.8373 51.4058C95.867 51.2964 95.8973 51.1878 95.9281 51.0799C95.9588 50.9714 95.99 50.8635 96.0217 50.756C96.0535 50.6486 96.0857 50.5415 96.1183 50.4348C96.3607 49.6365 96.6274 48.8578 96.9185 48.0986C97.2076 47.3446 97.5198 46.6115 97.8553 45.8993C98.188 45.1921 98.5428 44.5066 98.9197 43.843C99.2938 43.1843 99.6888 42.5486 100.105 41.936L100.17 41.8399L100.236 41.7443L100.302 41.6492L100.368 41.5546L100.416 41.4868L100.464 41.4191C100.48 41.3967 100.496 41.3743 100.512 41.352C100.529 41.3298 100.545 41.3077 100.562 41.2859L100.601 41.2598L100.641 41.2339L100.68 41.2081L100.719 41.1824L100.721 41.1814L100.724 41.18L100.726 41.1786L100.729 41.1775L100.744 41.1671L100.76 41.1566L100.775 41.1461L100.79 41.1356L100.858 41.0916L100.925 41.0483L100.993 41.0051L101.06 40.9615L101.009 40.9304L100.88 40.8531L100.881 40.8525C100.892 40.8582 100.903 40.8642 100.914 40.8705C100.925 40.8769 100.936 40.883 100.947 40.8889C100.958 40.8951 100.969 40.9013 100.98 40.9075C100.99 40.9137 101.001 40.92 101.012 40.9265L101.025 40.9329L101.037 40.9394L101.05 40.946C101.054 40.948 101.058 40.9505 101.062 40.9533C101.066 40.9556 101.069 40.9575 101.073 40.959L101.084 40.9647L101.095 40.9704L101.106 40.9762C101.575 41.2356 102.045 41.499 102.509 41.7752C102.972 42.0514 103.429 42.3392 103.873 42.649C104.316 42.9565 104.746 43.2918 105.16 43.6537C105.572 44.0137 105.963 44.4094 106.329 44.8376C106.714 45.2928 107.059 45.7958 107.358 46.3383C107.653 46.8712 107.896 47.4439 108.081 48.0448C108.26 48.6168 108.366 49.2179 108.397 49.8281C108.426 50.4149 108.358 51.003 108.196 51.5573C108.174 51.6296 108.15 51.7009 108.125 51.7711C108.099 51.8414 108.072 51.9106 108.044 51.9787C108.015 52.0469 107.985 52.1138 107.952 52.1795C107.92 52.2452 107.887 52.3098 107.851 52.3731C107.836 52.3995 107.821 52.4257 107.806 52.4516C107.791 52.4775 107.775 52.5032 107.759 52.5287C107.744 52.5542 107.728 52.5795 107.711 52.6048C107.695 52.6301 107.679 52.6551 107.662 52.68C107.355 53.1461 106.965 53.5224 106.521 53.781C106.075 54.0387 105.59 54.1841 105.095 54.2082C104.575 54.2345 104.056 54.1434 103.564 53.9398C103.037 53.7222 102.546 53.3899 102.117 52.9593C101.969 52.8113 101.829 52.6524 101.697 52.4834C101.566 52.316 101.444 52.1389 101.332 51.9532C101.22 51.769 101.118 51.5766 101.027 51.377C100.936 51.1789 100.856 50.9738 100.787 50.7632C100.755 51.4175 100.839 52.0726 101.034 52.6844C101.239 53.3275 101.519 53.9325 101.864 54.4816C102.228 55.0663 102.633 55.613 103.073 56.116C103.516 56.6293 103.986 57.1103 104.451 57.5534C104.916 57.9965 105.397 58.4496 105.863 58.9222C106.329 59.3868 106.772 59.8832 107.19 60.4089C107.596 60.9168 107.956 61.4764 108.261 62.078C108.562 62.6719 108.779 63.3216 108.904 64.001C109.038 64.741 109.032 65.5082 108.884 66.2446C108.813 66.6028 108.711 66.9513 108.581 67.2844C108.449 67.6202 108.291 67.9401 108.11 68.2399L108.093 68.2673L108.076 68.2946L108.058 68.3218L108.04 68.3489C107.597 69.049 107.04 69.6328 106.404 70.0648C106.084 70.2822 105.747 70.4602 105.397 70.5962C105.039 70.7353 104.671 70.8311 104.297 70.8821C103.587 70.9612 102.87 70.9117 102.171 70.7351C101.452 70.5531 100.753 70.2704 100.087 69.8928C99.3997 69.5039 98.7422 69.0411 98.1231 68.51C97.4985 67.976 96.9071 67.3874 96.3538 66.7489C96.2068 66.5796 96.0624 66.4073 95.9207 66.2318C95.779 66.0563 95.64 65.8779 95.5037 65.6965C95.3672 65.5151 95.2337 65.3309 95.1033 65.1439C94.9728 64.957 94.8451 64.7671 94.72 64.5743Z" fill="#F2F2F2"/>
<path d="M106.147 51.9049C105.708 51.6294 105.285 51.3163 104.883 50.968C104.08 50.2723 103.362 49.4426 102.751 48.5035C102.448 48.0376 102.174 47.5456 101.931 47.0314C101.727 46.5971 101.547 46.1477 101.391 45.686C101.238 45.2355 101.109 44.7736 101.006 44.3031C100.905 43.8435 100.83 43.3762 100.781 42.9044C100.733 42.4423 100.712 41.9766 100.718 41.5109C100.718 41.4847 100.719 41.4586 100.719 41.4327C100.72 41.4068 100.72 41.3807 100.721 41.3544C100.721 41.3281 100.722 41.3022 100.723 41.2766L100.727 41.1992C100.708 41.2168 100.69 41.2346 100.671 41.2525L100.616 41.3065L100.562 41.3609L100.507 41.4155L100.472 41.4505L100.437 41.4858L100.402 41.5214L100.367 41.557L100.415 41.4892L100.464 41.4193C100.48 41.3969 100.496 41.3745 100.513 41.3522C100.529 41.3299 100.545 41.3079 100.562 41.2861L100.602 41.26L100.641 41.2341L100.679 41.2083L100.718 41.1826L100.721 41.1816L100.723 41.1802L100.726 41.1788L100.728 41.1777L100.744 41.1673L100.759 41.1569L100.775 41.1464L100.789 41.1359L100.857 41.0919L100.925 41.0486L100.993 41.0054L101.06 40.962L101.007 40.9303L100.879 40.8529L100.88 40.8522C100.891 40.8579 100.902 40.8639 100.912 40.8703C100.923 40.8766 100.934 40.8827 100.945 40.8886C100.956 40.8948 100.967 40.9011 100.978 40.9072C100.989 40.9134 101 40.9197 101.01 40.9262L101.023 40.9326L101.035 40.9391L101.048 40.9457C101.052 40.9477 101.057 40.9502 101.06 40.953L101.059 40.9777L101.058 41.0008L101.057 41.0238L101.056 41.0471C101.008 41.8315 101.042 42.62 101.156 43.3943C101.274 44.1913 101.467 44.9694 101.732 45.7132C102.005 46.4832 102.347 47.2149 102.751 47.8957C103.168 48.6 103.647 49.2485 104.178 49.8305C104.713 50.4081 105.296 50.9165 105.918 51.3475C106.226 51.5602 106.542 51.7531 106.866 51.9254C107.188 52.0959 107.517 52.2452 107.852 52.3726C107.837 52.3991 107.822 52.4252 107.806 52.4511C107.791 52.477 107.776 52.5027 107.76 52.5282C107.744 52.5537 107.728 52.5791 107.712 52.6043C107.696 52.6296 107.679 52.6547 107.663 52.6795C107.534 52.6278 107.405 52.5728 107.277 52.5146C107.149 52.4563 107.022 52.3948 106.896 52.3302C106.769 52.2655 106.644 52.1977 106.519 52.1266C106.394 52.0556 106.27 51.9817 106.147 51.9049Z" fill="white"/>
<path d="M97.452 57.7674C97.3082 57.508 97.1724 57.2438 97.0447 56.9748C96.9171 56.7058 96.7977 56.433 96.6868 56.1564C96.5758 55.8798 96.4734 55.5997 96.3794 55.3161C96.2853 55.0326 96.2002 54.7465 96.1239 54.458C96.085 54.305 96.049 54.1514 96.0161 53.9973C95.9832 53.8432 95.9534 53.6888 95.9266 53.5342C95.8999 53.3796 95.8762 53.2247 95.8555 53.0694C95.8348 52.9141 95.8173 52.7589 95.803 52.6039C95.7958 52.5316 95.7893 52.4592 95.7835 52.3867C95.7778 52.3142 95.7726 52.2417 95.7681 52.1693C95.7637 52.0968 95.7599 52.0244 95.7568 51.9521C95.7537 51.8797 95.7512 51.8075 95.7493 51.7354C95.7779 51.6252 95.8071 51.5154 95.8368 51.406C95.8665 51.2967 95.8967 51.1878 95.9274 51.0794C95.9581 50.9709 95.9893 50.863 96.021 50.7555C96.0527 50.648 96.085 50.541 96.1178 50.4343C96.1107 50.5237 96.1045 50.6132 96.0995 50.7031C96.0944 50.7929 96.0904 50.883 96.0874 50.9733C96.0844 51.0637 96.0824 51.1543 96.0815 51.2451C96.0807 51.3359 96.0808 51.4269 96.082 51.518C96.0819 51.5677 96.0822 51.6174 96.0831 51.667C96.0839 51.7167 96.085 51.7664 96.0864 51.8161C96.0878 51.8658 96.0896 51.9154 96.0918 51.9651C96.0939 52.0148 96.0964 52.0645 96.0991 52.1142C96.1307 52.6716 96.2031 53.2246 96.3154 53.7667C96.4292 54.3153 96.5776 54.8525 96.7593 55.3737C96.9445 55.905 97.158 56.4211 97.3986 56.9189C97.6433 57.4254 97.9108 57.9152 98.2 58.3862C98.5113 58.8947 98.8403 59.3898 99.187 59.8715C99.5338 60.3531 99.8937 60.8216 100.267 61.277C100.64 61.7318 101.025 62.1726 101.42 62.5994C101.815 63.0261 102.217 63.4381 102.626 63.8354C103.044 64.2432 103.471 64.6356 103.906 65.0124C104.341 65.3893 104.784 65.7497 105.233 66.0935C105.682 66.4372 106.139 66.7642 106.601 67.0744C107.064 67.3846 107.532 67.6771 108.005 67.9519C108.027 67.9647 108.047 67.9822 108.063 68.0036C108.079 68.0244 108.093 68.0485 108.102 68.0747C108.111 68.1006 108.117 68.1283 108.118 68.1565C108.12 68.1849 108.117 68.2134 108.109 68.2404C108.107 68.252 108.103 68.2634 108.099 68.2742C108.095 68.2847 108.09 68.2947 108.084 68.304C108.078 68.3132 108.072 68.3217 108.064 68.3293C108.057 68.3367 108.049 68.3432 108.041 68.3487C108.032 68.3536 108.022 68.3571 108.013 68.3592C108.003 68.3612 107.993 68.3619 107.984 68.361C107.974 68.3602 107.964 68.358 107.954 68.3544C107.944 68.3509 107.935 68.346 107.926 68.3398C107.867 68.3059 107.809 68.2719 107.751 68.2377C107.692 68.2036 107.634 68.1692 107.576 68.1347C107.517 68.1001 107.459 68.0651 107.401 68.0299C107.343 67.9947 107.285 67.959 107.227 67.9227C106.745 67.6234 106.269 67.3061 105.8 66.9709C105.33 66.6357 104.868 66.283 104.412 65.9129C103.957 65.5428 103.51 65.1561 103.071 64.7527C102.632 64.3494 102.203 63.9301 101.783 63.4946C101.377 63.0755 100.976 62.6421 100.585 62.194C100.194 61.7459 99.8123 61.2835 99.4452 60.8063C99.0781 60.329 98.7255 59.8373 98.3915 59.3307C98.0575 58.8241 97.7431 58.3033 97.452 57.7674Z" fill="white"/>
<path d="M106.539 16.1279L106.193 16.1821L108.51 5.67847C108.681 4.9771 108.709 4.23627 108.591 3.51912C108.489 2.93315 108.237 2.40083 107.871 1.9977C107.487 1.59463 107.016 1.33089 106.514 1.23692C105.902 1.12239 105.277 1.1562 104.675 1.33636L88.9307 5.66786C88.3811 5.82893 87.8551 6.09032 87.3708 6.44303C86.8441 6.82139 86.3543 7.27004 85.9106 7.78054C85.454 8.30112 85.0442 8.87843 84.688 9.50288C84.34 10.1073 84.0563 10.7622 83.8436 11.4522L67.37 66.1882C67.0961 67.0882 66.9182 68.0266 66.8405 68.9809C66.7684 69.8281 66.8024 70.6836 66.9415 71.5186C67.0575 72.244 67.2998 72.9314 67.6525 73.5352C67.9759 74.0841 68.4315 74.4993 68.9573 74.7241L85.5925 81.6422C86.3315 81.9462 87.1247 82.0033 87.8883 81.8074C88.7046 81.5926 89.4724 81.1655 90.1382 80.5558C90.8858 79.8772 91.5288 79.0449 92.0375 78.0969C92.601 77.0555 93.022 75.9112 93.2844 74.7081L104.437 24.1432L104.787 24.1094L106.539 16.1279Z" fill="#2F2E41"/>
<path d="M105.335 15.5464L104.99 15.6006L107.307 5.09694C107.477 4.39557 107.505 3.65474 107.388 2.93759C107.286 2.35162 107.034 1.8193 106.667 1.41617C106.283 1.0131 105.813 0.749364 105.31 0.655394C104.698 0.540866 104.073 0.574668 103.472 0.754833L87.727 5.08633C87.1775 5.2474 86.6515 5.5088 86.1672 5.86151C85.6405 6.23986 85.1507 6.68851 84.707 7.19902C84.2504 7.71959 83.8406 8.2969 83.4844 8.92135C83.1364 9.52577 82.8527 10.1807 82.64 10.8706L66.1664 65.6066C65.8925 66.5067 65.7146 67.4451 65.6369 68.3994C65.5648 69.2466 65.5988 70.1021 65.7378 70.937C65.8539 71.6625 66.0962 72.3499 66.4488 72.9536C66.7722 73.5026 67.2279 73.9177 67.7536 74.1426L84.3889 81.0607C85.1279 81.3647 85.9211 81.4217 86.6847 81.2258C87.501 81.011 88.2688 80.5839 88.9346 79.9743C89.6822 79.2956 90.3251 78.4633 90.8339 77.5154C91.3974 76.4739 91.8184 75.3297 92.0808 74.1266L103.234 23.5617L103.584 23.5278L105.335 15.5464Z" fill="#3F3D56"/>
<path d="M103.333 2.12534L101.018 2.73783C101.043 2.97972 101.023 3.22539 100.96 3.45674C100.888 3.72735 100.783 3.98372 100.649 4.21767C100.348 4.74878 99.9468 5.18537 99.478 5.49106C99.4218 5.52712 99.3658 5.56041 99.3101 5.59094C99.2543 5.62147 99.1986 5.64919 99.1428 5.6741C99.0873 5.69901 99.0321 5.72101 98.9773 5.7401C98.9225 5.7592 98.8684 5.77528 98.8148 5.78837L89.766 8.0018C89.5981 8.04893 89.4233 8.04653 89.2563 7.99482C89.1219 7.95124 89.0033 7.85476 88.9194 7.72063C88.8347 7.57662 88.7869 7.40576 88.7819 7.22924C88.775 7.00408 88.8045 6.77944 88.8687 6.5679C88.8847 6.51082 88.903 6.45334 88.9236 6.39548C88.9441 6.33762 88.9665 6.27976 88.9907 6.2219C89.0148 6.16374 89.0411 6.10588 89.0696 6.04831C89.098 5.99074 89.1281 5.93322 89.1597 5.87574L87.4463 6.32919C87.0337 6.44609 86.6385 6.6393 86.2746 6.90199C85.8771 7.1849 85.5074 7.52143 85.1727 7.90512C84.8277 8.29713 84.5183 8.73244 84.2497 9.20367C83.9878 9.65903 83.7749 10.1528 83.6161 10.673L67.1734 65.8847C66.9689 66.5632 66.8376 67.2706 66.7827 67.9896C66.732 68.6242 66.7619 69.2645 66.8714 69.8883C66.9626 70.4273 67.1488 70.9364 67.4175 71.3807C67.6637 71.7838 68.0069 72.0852 68.4003 72.2436L85.1579 78.8204C85.7108 79.0345 86.301 79.0665 86.8676 78.913C87.4709 78.7461 88.0377 78.4249 88.5296 77.971C89.0798 77.4677 89.5534 76.8528 89.9294 76.1538C90.3455 75.3859 90.6578 74.5429 90.8545 73.6564L106.166 5.40238C106.294 4.88136 106.318 4.33085 106.235 3.7965C106.163 3.3586 105.98 2.95876 105.711 2.65278C105.429 2.34687 105.081 2.14412 104.707 2.0682C104.25 1.97558 103.783 1.99501 103.333 2.12534Z" fill="white"/>
<path d="M94.3457 28.2743H61.0103V14.6279H94.3457V28.2743Z" fill="white"/>
<path d="M84.5999 33.0906H51.929V52.2223H84.5999V33.0906Z" fill="white"/>
<path d="M57.2363 42.2776C58.5414 42.2776 59.5995 40.9995 59.5995 39.4228C59.5995 37.8461 58.5414 36.568 57.2363 36.568C55.9311 36.568 54.873 37.8461 54.873 39.4228C54.873 40.9995 55.9311 42.2776 57.2363 42.2776Z" fill="#419EF3"/>
<path d="M62.6942 37.5196C62.5897 37.5196 62.4895 37.5697 62.4157 37.659C62.3418 37.7482 62.3003 37.8692 62.3003 37.9954C62.3003 38.1216 62.3418 38.2426 62.4157 38.3318C62.4895 38.4211 62.5897 38.4712 62.6942 38.4712H81.2623C81.3665 38.4709 81.4665 38.4206 81.5401 38.3314C81.6138 38.2422 81.6551 38.1214 81.6551 37.9954C81.6551 37.8694 81.6138 37.7486 81.5401 37.6594C81.4665 37.5702 81.3665 37.5199 81.2623 37.5196H62.6942Z" fill="#E6E6E6"/>
<path d="M62.6943 40.3744C62.6425 40.3742 62.5912 40.3863 62.5433 40.4101C62.4954 40.4338 62.4519 40.4688 62.4152 40.5129C62.3785 40.5569 62.3493 40.6094 62.3294 40.6671C62.3095 40.7248 62.2992 40.7867 62.2991 40.8492C62.299 40.9118 62.3091 40.9737 62.3288 41.0315C62.3485 41.0893 62.3775 41.1419 62.414 41.1862C62.4506 41.2305 62.494 41.2656 62.5418 41.2896C62.5896 41.3136 62.6408 41.326 62.6926 41.326H70.6842C70.7359 41.326 70.7871 41.3137 70.8349 41.2898C70.8827 41.2659 70.9261 41.2309 70.9627 41.1867C70.9993 41.1425 71.0283 41.09 71.0481 41.0323C71.0679 40.9746 71.0781 40.9127 71.0781 40.8502C71.0781 40.7877 71.0679 40.7259 71.0481 40.6681C71.0283 40.6104 70.9993 40.558 70.9627 40.5138C70.9261 40.4696 70.8827 40.4346 70.8349 40.4106C70.7871 40.3867 70.7359 40.3744 70.6842 40.3744H62.6943Z" fill="#E6E6E6"/>
<path d="M55.4238 44.9384C55.1242 44.9384 54.8804 45.1519 54.8804 45.4143C54.8804 45.6766 55.1242 45.8901 55.4238 45.8901H81.042C81.3417 45.8901 81.5855 45.6766 81.5855 45.4143C81.5855 45.1519 81.3416 44.9384 81.042 44.9384H55.4238Z" fill="#E6E6E6"/>
<path d="M55.4238 47.7933C55.1242 47.7933 54.8804 48.0068 54.8804 48.2691C54.8804 48.5314 55.1242 48.7449 55.4238 48.7449H75.1451C75.4447 48.7449 75.6885 48.5314 75.6885 48.2691C75.6885 48.0068 75.4447 47.7933 75.1451 47.7933H55.4238Z" fill="#E6E6E6"/>
<path d="M84.9321 52.6236H51.5967V32.6892H84.9321V52.6236ZM52.2612 51.8209H84.2676V33.492H52.2612V51.8209Z" fill="#E6E6E6"/>
<path d="M66.6501 24.2163C67.9552 24.2163 69.0133 22.9381 69.0133 21.3615C69.0133 19.7848 67.9552 18.5067 66.6501 18.5067C65.3449 18.5067 64.2869 19.7848 64.2869 21.3615C64.2869 22.9381 65.3449 24.2163 66.6501 24.2163Z" fill="#419EF3"/>
<path d="M72.108 19.4583C72.0035 19.4583 71.9033 19.5084 71.8295 19.5976C71.7556 19.6869 71.7141 19.8079 71.7141 19.9341C71.7141 20.0603 71.7556 20.1813 71.8295 20.2705C71.9033 20.3598 72.0035 20.4099 72.108 20.4099H90.6761C90.7804 20.4096 90.8803 20.3593 90.954 20.2701C91.0276 20.1809 91.069 20.0601 91.069 19.9341C91.069 19.8081 91.0276 19.6873 90.954 19.5981C90.8803 19.5089 90.7804 19.4586 90.6761 19.4583H72.108Z" fill="#E6E6E6"/>
<path d="M72.1078 22.3131C72.0561 22.3129 72.0048 22.325 71.9569 22.3487C71.909 22.3725 71.8655 22.4074 71.8288 22.4515C71.7921 22.4956 71.7629 22.548 71.743 22.6057C71.7231 22.6635 71.7128 22.7253 71.7126 22.7879C71.7125 22.8504 71.7226 22.9124 71.7424 22.9702C71.7621 23.028 71.7911 23.0806 71.8276 23.1248C71.8642 23.1691 71.9076 23.2043 71.9554 23.2283C72.0032 23.2523 72.0544 23.2646 72.1062 23.2647H86.7168C86.8213 23.2647 86.9215 23.2146 86.9953 23.1253C87.0692 23.0361 87.1107 22.9151 87.1107 22.7889C87.1107 22.6627 87.0692 22.5417 86.9953 22.4524C86.9215 22.3632 86.8213 22.3131 86.7168 22.3131H72.1078Z" fill="#E6E6E6"/>
<path d="M94.3457 28.2743H61.0103V14.6279H94.3457V28.2743ZM61.6747 27.4715H93.6812V15.4307H61.6747V27.4715Z" fill="#E6E6E6"/>
<path d="M28.8453 80.2563H30.5257L31.3252 72.4262L28.845 72.4264L28.8453 80.2563Z" fill="#FFB6B6"/>
<path d="M33.7666 82.1411L28.4853 82.1413L28.4852 79.6763L31.9749 79.6762C32.4501 79.6761 32.9058 79.9041 33.2418 80.31C33.5778 80.7158 33.7666 81.2663 33.7666 81.8403L33.7666 82.1411Z" fill="#2F2E41"/>
<path d="M12.0417 77.6255L13.5143 78.6034L17.3377 72.2074L15.1644 70.764L12.0417 77.6255Z" fill="#FFB6B6"/>
<path d="M15.6025 82.1414L10.9745 79.0677L11.9576 76.9076L15.0156 78.9386C15.432 79.2151 15.7404 79.6802 15.873 80.2314C16.0055 80.7826 15.9514 81.3748 15.7225 81.8778L15.6025 82.1414Z" fill="#2F2E41"/>
<path d="M28.7666 75.9103C28.6169 75.9101 28.4723 75.8442 28.3599 75.7247C28.2474 75.6052 28.1748 75.4404 28.1556 75.261L26.054 55.6978C26.0447 55.6113 26.013 55.5305 25.9635 55.467C25.9139 55.4036 25.849 55.3606 25.778 55.3444C25.7071 55.3281 25.6337 55.3393 25.5683 55.3765C25.503 55.4136 25.449 55.4747 25.4141 55.5512L16.6556 74.7472C16.5834 74.9039 16.4669 75.0241 16.3275 75.0859C16.1881 75.1477 16.0349 75.147 15.8959 75.084L13.9868 74.2053C13.91 74.17 13.8399 74.1164 13.7804 74.0479C13.721 73.9794 13.6735 73.8971 13.6408 73.8061C13.608 73.7151 13.5906 73.6171 13.5896 73.5178C13.5887 73.4186 13.6041 73.3201 13.6351 73.2281L19.7023 55.2232C19.7177 55.1775 19.7281 55.1295 19.7333 55.0806C20.5551 47.3971 22.6459 43.4897 23.2671 42.4752C23.3125 42.4006 23.3424 42.314 23.3542 42.2225C23.366 42.1311 23.3595 42.0376 23.3351 41.9498L23.2497 41.6403C23.2156 41.5175 23.2086 41.386 23.2294 41.2589C23.2502 41.1318 23.2982 41.0135 23.3684 40.9156C25.6069 37.8355 29.5085 39.5162 29.5477 39.5335L29.5672 39.5423L29.5795 39.5625C33.9543 46.8104 32.3368 70.3515 31.9681 74.997C31.9544 75.1715 31.8899 75.3346 31.7862 75.4573C31.6825 75.5801 31.5462 75.6545 31.4015 75.6675L28.8145 75.9082C28.7985 75.9096 28.7825 75.9103 28.7666 75.9103Z" fill="#2F2E41"/>
<path d="M27.5806 21.5512C29.646 21.5512 31.3203 19.5286 31.3203 17.0335C31.3203 14.5384 29.646 12.5158 27.5806 12.5158C25.5152 12.5158 23.8408 14.5384 23.8408 17.0335C23.8408 19.5286 25.5152 21.5512 27.5806 21.5512Z" fill="#FFB8B8"/>
<path d="M21.7988 45.7807L32.8033 46.9906C31.8439 42.9606 30.9648 38.9447 31.6813 34.9433C32.5912 31.3711 32.6758 29.3922 30.2756 27.7098L28.655 23.3427L25.7221 23.2138L24.292 22.7403C23.1366 24.9845 22.664 27.6445 22.9552 30.2638C23.5769 35.9596 23.409 41.245 21.7988 45.7807Z" fill="#419EF3"/>
<path d="M23.4693 25.6209L22.3624 19.4837C22.1315 18.0309 22.1894 16.5326 22.5315 15.1122C22.5687 14.9667 22.6136 14.8241 22.6659 14.6854C22.9723 13.8788 23.454 13.1876 24.0598 12.6855C24.6656 12.1833 25.3728 11.889 26.1061 11.8339C28.6217 11.624 28.991 11.9443 29.0819 12.1024C30.5034 12.033 31.6057 12.6965 32.1086 13.9242C32.1579 14.046 32.1844 14.1795 32.1864 14.3151C32.1883 14.4506 32.1657 14.5851 32.1199 14.709C32.0742 14.8328 32.0066 14.9431 31.9218 15.0319C31.837 15.1208 31.7371 15.1861 31.6291 15.2233C30.9266 15.468 29.9391 15.7398 29.1986 15.6599C27.7141 17.8108 28.321 21.7516 29.827 24.0997L29.8862 24.192L28.3941 24.5614L26.6601 21.6443C26.6258 21.5866 26.5761 21.5448 26.5194 21.5261C26.4626 21.5073 26.4023 21.5126 26.3484 21.5411C26.2945 21.5696 26.2504 21.6196 26.2233 21.6827C26.1963 21.7458 26.188 21.8183 26.1999 21.8879L26.7263 24.9774L23.4693 25.6209Z" fill="#2F2E41"/>
<path d="M104.35 82.189H0V81.8719H104.398L104.35 82.189Z" fill="#CACACA"/>
<path d="M44.8449 42.1467L17.6273 65.3978L11.105 54.2559L38.3226 31.0048L44.8449 42.1467Z" fill="white"/>
<path d="M20.2925 58.1509C21.3581 57.2405 21.6111 55.459 20.8575 54.1717C20.1039 52.8843 18.6292 52.5787 17.5635 53.4891C16.4979 54.3994 16.2449 56.181 16.9985 57.4683C17.7521 58.7556 19.2268 59.0612 20.2925 58.1509Z" fill="#419EF3"/>
<path d="M22.4746 50.4592C22.3893 50.5321 22.3314 50.6429 22.3138 50.7673C22.2961 50.8916 22.3201 51.0194 22.3804 51.1224C22.4407 51.2255 22.5324 51.2953 22.6354 51.3167C22.7383 51.338 22.8441 51.3091 22.9294 51.2362L38.0898 38.2852C38.1748 38.2122 38.2324 38.1014 38.2499 37.9772C38.2674 37.853 38.2434 37.7255 38.1832 37.6227C38.123 37.5198 38.0314 37.45 37.9287 37.4285C37.8259 37.4071 37.7203 37.4357 37.635 37.5082L22.4746 50.4592Z" fill="#E6E6E6"/>
<path d="M23.8392 52.7901C23.7539 52.8628 23.696 52.9735 23.6781 53.0977C23.6603 53.222 23.6841 53.3497 23.7442 53.4528C23.8043 53.5559 23.8958 53.626 23.9986 53.6476C24.1015 53.6693 24.2072 53.6407 24.2926 53.5683L24.294 53.5671L36.2219 43.3775C36.3071 43.3047 36.365 43.1939 36.3826 43.0695C36.4003 42.9451 36.3763 42.8174 36.316 42.7143C36.2862 42.6633 36.2483 42.6199 36.2045 42.5866C36.1608 42.5533 36.112 42.5307 36.061 42.5201C35.9581 42.4988 35.8523 42.5277 35.767 42.6006L23.8392 52.7901Z" fill="#E6E6E6"/>
<path d="M44.8449 42.1467L17.6273 65.3978L11.105 54.2559L38.3226 31.0048L44.8449 42.1467ZM17.7861 64.2789L43.9187 41.9548L38.1637 32.1237L12.0312 54.4478L17.7861 64.2789Z" fill="#E6E6E6"/>
<path d="M106.993 38.0187C107.09 38.0142 107.186 38.034 107.276 38.0768C107.361 38.1181 107.439 38.1802 107.503 38.2593C107.568 38.3388 107.618 38.4336 107.652 38.5377C107.687 38.648 107.703 38.7659 107.699 38.884C107.695 39.0051 107.671 39.1242 107.63 39.2346C107.589 39.3429 107.533 39.4414 107.463 39.5254C107.394 39.6089 107.313 39.6765 107.224 39.7249C107.133 39.774 107.036 39.8009 106.936 39.8042C106.84 39.8078 106.744 39.7869 106.654 39.743C106.569 39.7011 106.492 39.6385 106.428 39.5591C106.364 39.4793 106.314 39.3845 106.282 39.2806C106.247 39.1706 106.232 39.0533 106.236 38.9359C106.24 38.8153 106.263 38.6968 106.304 38.587C106.345 38.4797 106.401 38.3821 106.469 38.2988C106.538 38.2154 106.619 38.1478 106.707 38.0992C106.797 38.0499 106.895 38.0225 106.993 38.0187Z" fill="#F2F2F2"/>
<path d="M30.4725 49.3528L28.7025 37.6644L28.8272 30.4361L24.8381 30.2855L25.5861 38.4174L28.1653 49.6936C27.9513 50.008 27.8201 50.3926 27.7887 50.7979C27.7574 51.2032 27.8273 51.6105 27.9894 51.9674C28.1516 52.3242 28.3985 52.6141 28.6984 52.7998C28.9983 52.9854 29.3373 53.0582 29.6718 53.0088C30.0063 52.9594 30.3208 52.79 30.5748 52.5225C30.8288 52.2551 31.0107 51.9018 31.0968 51.5083C31.183 51.1147 31.1696 50.699 31.0583 50.3148C30.947 49.9306 30.7429 49.5955 30.4725 49.3528Z" fill="#FFB8B8"/>
<path d="M24.5889 31.0384C26.0341 30.3734 27.6313 30.3734 29.0766 31.0384L28.8272 25.0148C28.8272 24.6984 28.7757 24.3851 28.6754 24.0927C28.5752 23.8004 28.4283 23.5348 28.2431 23.3111C28.0579 23.0873 27.838 22.9098 27.596 22.7888C27.354 22.6677 27.0946 22.6053 26.8327 22.6053C26.5708 22.6053 26.3114 22.6677 26.0694 22.7888C25.8275 22.9098 25.6076 23.0873 25.4224 23.3111C25.2372 23.5348 25.0902 23.8004 24.99 24.0927C24.8898 24.3851 24.8382 24.6984 24.8382 25.0148L24.5889 31.0384Z" fill="#419EF3"/>
</g>
<defs>
<clipPath id="clip0_57_497">
<rect width="109" height="81.6" fill="white" transform="translate(0 0.588928)"/>
</clipPath>
</defs>
</svg>
