<svg width="25" height="23" viewBox="0 0 25 23" fill="none" xmlns="http://www.w3.org/2000/svg">
<path d="M6.25003 8.4379C3.08205 8.4379 0.488293 11.0086 0.0039161 14.3572C-0.027334 14.5681 0.132823 14.7658 0.328136 14.7658H12.1758C12.3711 14.7658 12.5313 14.5681 12.5 14.3572C12.0118 11.0086 9.41801 8.4379 6.25003 8.4379ZM12.1719 16.1721H0.328136C0.132823 16.1721 -0.027334 16.3698 0.0039161 16.5807C0.488293 19.9293 3.08205 22.5 6.25003 22.5C9.41801 22.5 12.0118 19.9293 12.4961 16.5807C12.5274 16.3698 12.3672 16.1721 12.1719 16.1721ZM23.1798 2.04843C20.9727 -0.434407 17.5469 -0.649733 15.0977 1.34533C14.9415 1.47277 14.9297 1.73643 15.0665 1.88584L23.3204 11.1756C23.4571 11.3294 23.6915 11.3162 23.8009 11.1405C25.5782 8.38517 25.3868 4.53127 23.1798 2.04843ZM14.1797 2.88776C14.043 2.73396 13.8086 2.74714 13.6993 2.92292C11.9258 5.67821 12.1172 9.53211 14.3204 12.0149C16.5274 14.4978 19.9532 14.7131 22.4024 12.7137C22.5587 12.5862 22.5704 12.3226 22.4337 12.1731L14.1797 2.88776Z" fill="#BB4242"/>
</svg>
