<svg width="114" height="107" viewBox="0 0 114 107" fill="none" xmlns="http://www.w3.org/2000/svg">
<path d="M103.312 21.375H85.5V10.6875C85.5 4.78711 80.7129 0 74.8125 0H39.1875C33.2871 0 28.5 4.78711 28.5 10.6875V21.375H10.6875C4.78711 21.375 0 26.1621 0 32.0625V96.1875C0 102.088 4.78711 106.875 10.6875 106.875H103.312C109.213 106.875 114 102.088 114 96.1875V32.0625C114 26.1621 109.213 21.375 103.312 21.375ZM42.75 14.25H71.25V21.375H42.75V14.25ZM78.375 69.4688C78.375 70.4484 77.5734 71.25 76.5938 71.25H64.125V83.7188C64.125 84.6984 63.3234 85.5 62.3438 85.5H51.6562C50.6766 85.5 49.875 84.6984 49.875 83.7188V71.25H37.4062C36.4266 71.25 35.625 70.4484 35.625 69.4688V58.7812C35.625 57.8016 36.4266 57 37.4062 57H49.875V44.5312C49.875 43.5516 50.6766 42.75 51.6562 42.75H62.3438C63.3234 42.75 64.125 43.5516 64.125 44.5312V57H76.5938C77.5734 57 78.375 57.8016 78.375 58.7812V69.4688Z" fill="#E6E6E6"/>
</svg>
