<svg width="212" height="174" viewBox="0 0 212 174" fill="none" xmlns="http://www.w3.org/2000/svg">
<g clip-path="url(#clip0_27_327)">
<path d="M108.583 41.3048H107.629V15.1421C107.629 11.1262 106.034 7.27473 103.194 4.43503C100.354 1.59533 96.5028 1.97521e-09 92.4868 1.97521e-09H37.0565C35.068 -3.21148e-05 33.099 0.391599 31.2618 1.15253C29.4247 1.91347 27.7554 3.0288 26.3493 4.43486C24.9432 5.84091 23.8278 7.51016 23.0668 9.34727C22.3058 11.1844 21.9142 13.1534 21.9141 15.1419V158.672C21.9141 160.661 22.3058 162.63 23.0668 164.467C23.8277 166.304 24.9431 167.973 26.3492 169.379C27.7552 170.785 29.4245 171.901 31.2616 172.662C33.0988 173.423 35.0678 173.814 37.0563 173.814H92.4861C96.502 173.814 100.353 172.219 103.193 169.379C106.033 166.54 107.628 162.688 107.628 158.672V59.9278H108.582L108.583 41.3048Z" fill="#3F3D56"/>
<path d="M104.541 14.1279V159.686C104.54 162.731 103.331 165.651 101.178 167.804C99.0252 169.957 96.1054 171.168 93.0605 171.169H36.493C33.447 171.169 30.5255 169.96 28.3712 167.806C26.2168 165.653 25.006 162.732 25.0051 159.686V14.1279C25.006 11.082 26.2168 8.16119 28.371 6.00787C30.5252 3.85454 33.4466 2.64506 36.4925 2.64545H43.3545C43.0175 3.47403 42.8893 4.37268 42.981 5.26243C43.0727 6.15218 43.3816 7.00578 43.8805 7.7482C44.3794 8.49062 45.053 9.09913 45.8421 9.52025C46.6312 9.94136 47.5117 10.1622 48.4062 10.1633H80.6563C81.5507 10.1622 82.4312 9.94136 83.2203 9.52025C84.0095 9.09913 84.6831 8.49062 85.182 7.7482C85.6808 7.00578 85.9897 6.15218 86.0814 5.26243C86.1731 4.37268 86.0449 3.47403 85.708 2.64545H93.0583C96.1031 2.64597 99.0231 3.85559 101.176 6.00839C103.33 8.16118 104.54 11.0809 104.541 14.1257V14.1279Z" fill="white"/>
<path d="M91.4091 139.942H39.1675C37.2886 139.94 35.4872 139.192 34.1587 137.864C32.8301 136.535 32.0828 134.734 32.0806 132.855V59.3625C32.0806 41.5187 46.5975 27.0017 64.4413 27.0017H91.4092C93.2881 27.0038 95.0894 27.7511 96.418 29.0797C97.7465 30.4083 98.4938 32.2096 98.4959 34.0884V132.855C98.4939 134.734 97.7465 136.535 96.4179 137.864C95.0894 139.192 93.288 139.94 91.4091 139.942Z" fill="#E6E6E6"/>
<path d="M36.0382 157.632C38.1153 157.632 39.7992 155.949 39.7992 153.871C39.7992 151.794 38.1153 150.11 36.0382 150.11C33.961 150.11 32.2771 151.794 32.2771 153.871C32.2771 155.949 33.961 157.632 36.0382 157.632Z" fill="#E6E6E6"/>
<path d="M94.6126 157.632C96.6898 157.632 98.3737 155.949 98.3737 153.871C98.3737 151.794 96.6898 150.11 94.6126 150.11C92.5354 150.11 90.8516 151.794 90.8516 153.871C90.8516 155.949 92.5354 157.632 94.6126 157.632Z" fill="#E6E6E6"/>
<path d="M95.1224 139.797L92.7907 142.338L81.881 134.554L85.3222 130.804L95.1224 139.797Z" fill="#FFB6B6"/>
<path d="M98.18 141.409L90.6622 149.602L90.5585 149.507C89.7129 148.731 89.2101 147.65 89.1608 146.504C89.1115 145.357 89.5197 144.238 90.2957 143.392L90.2959 143.392L90.5337 140.853L94.2312 139.103L94.8875 138.388L98.18 141.409Z" fill="#2F2E41"/>
<path d="M96.6468 168.152L93.1985 168.152L91.5579 154.85L96.6475 154.851L96.6468 168.152Z" fill="#FFB6B6"/>
<path d="M97.5263 171.494L86.407 171.494V171.353C86.4071 170.206 86.8631 169.105 87.6748 168.293C88.4864 167.482 89.5872 167.026 90.735 167.026H90.7352L92.7663 165.485L96.5558 167.026L97.5265 167.026L97.5263 171.494Z" fill="#2F2E41"/>
<path d="M79.994 101.005C79.994 101.005 58.9278 121.345 72.2455 127.641H76.3617C76.3617 127.641 77.5987 123.246 80.4306 119.54C80.8195 119.031 82.2764 119.134 82.681 118.638C85.1514 115.61 87.8297 113.009 89.6794 113.112L90.89 127.156L90.2927 131.273C89.9167 133.864 90.0157 136.502 90.5849 139.058L90.1637 155.487L97.55 155.491C97.55 155.491 97.8484 151.64 98.0979 146.825C98.1648 145.535 98.7197 144.636 98.7728 143.263C98.9003 139.971 98.4778 136.139 98.3964 133.452L103.966 103.911L79.994 101.005Z" fill="#2F2E41"/>
<path d="M89.724 57.91L86.2891 62.505L78.0563 67.3474L82.8987 79.9385L83.0824 89.3069L82.6317 90.4369L83.1408 92.2877C83.1408 92.2877 82.9059 94.4537 81.6534 96.0619C79.4637 98.8735 76.12 101.929 79.5088 102.7C84.8359 103.911 103.723 106.574 104.691 104.395C105.026 103.641 104.985 100.454 104.787 96.6061C104.75 95.8866 103.955 95.104 103.909 94.35C103.874 93.7842 104.589 93.2521 104.55 92.6783C104.118 86.2843 103.481 79.6966 103.481 79.6966L105.376 62.0676L97.7946 60.1111L96.9435 57.9412L89.724 57.91Z" fill="#419EF3"/>
<path d="M71.234 126.432L72.36 127.855C72.36 127.855 82.7159 135.1 83.0715 135.777L84.7082 137.326L88.6682 133.093L86.6088 130.512C84.9608 128.446 82.8315 126.816 80.4074 125.764L77.2513 122.964L71.234 126.432Z" fill="#2F2E41"/>
<path d="M77.8143 106.098L79.7001 87.8435L80.1979 80.3308L74.9194 79.3763C74.9194 79.3763 74.129 84.541 73.4375 87.5718C72.7552 90.5626 74.3466 105.697 74.3888 106.096C74.0011 106.443 73.7278 106.899 73.6051 107.404C73.4823 107.909 73.5159 108.44 73.7013 108.926C73.8867 109.412 74.2152 109.83 74.6435 110.125C75.0717 110.42 75.5794 110.578 76.0994 110.578C76.6194 110.579 77.1273 110.421 77.5558 110.126C77.9842 109.832 78.3132 109.414 78.4991 108.928C78.6849 108.442 78.719 107.912 78.5967 107.406C78.4744 106.901 78.2016 106.445 77.8143 106.098Z" fill="#FFB9B9"/>
<path d="M70.9944 90.9101L80.1065 93.2231L80.0432 90.6656L80.7348 89.9319L82.1166 82.6935L84.0991 78.4533L83.5837 63.9533L78.5485 66.6238L78.5424 66.6286C77.6631 67.5958 76.9277 68.6847 76.3589 69.8617C74.4607 73.7205 72.6373 82.2202 71.6828 87.157C71.65 87.2605 71.5867 87.3518 71.5012 87.4187C71.0277 87.8534 70.7187 88.4381 70.6264 89.0742C70.534 89.7103 70.664 90.3588 70.9944 90.9101Z" fill="#419EF3"/>
<path d="M125.107 95.5705C125.107 95.5705 114.014 83.8754 113.91 83.655C113.135 77.7705 110.907 75.1748 110.572 75.4566L104.82 77.4494C104.82 77.4494 106.531 82.8676 107.69 86.086C108.797 89.1612 121.555 96.6726 121.767 97.0435C121.539 97.5482 121.469 98.1104 121.567 98.6557C121.665 99.2011 121.926 99.7039 122.316 100.098C122.705 100.491 123.206 100.757 123.75 100.861C124.294 100.964 124.857 100.899 125.364 100.676C125.871 100.452 126.298 100.08 126.589 99.6083C126.88 99.1367 127.02 98.5879 126.993 98.0345C126.965 97.4812 126.769 96.9493 126.433 96.5094C126.096 96.0694 125.634 95.742 125.107 95.5705Z" fill="#FFB9B9"/>
<path d="M100.175 62.47C100.175 62.47 105.822 59.7026 108.012 65.138C109.213 68.2065 112.283 75.6537 113.814 80.2381C113.824 80.2672 113.838 80.2949 113.855 80.3203C114.265 80.9284 114.486 81.6438 114.49 82.3769C114.49 82.4302 114.495 82.4835 114.507 82.5356C114.507 82.5356 108.302 83.7445 106.456 86.9971L105.724 86.2027L105.594 85.6461L100.24 71.361L100.175 62.47Z" fill="#419EF3"/>
<path d="M192.391 84.6539H126.28C125.691 84.6532 125.126 84.4189 124.71 84.0023C124.293 83.5858 124.059 83.0211 124.058 82.432V72.7495C124.059 72.1605 124.293 71.5957 124.71 71.1792C125.126 70.7626 125.691 70.5283 126.28 70.5277H192.391C192.98 70.5283 193.545 70.7626 193.961 71.1792C194.378 71.5957 194.612 72.1605 194.613 72.7495V82.432C194.612 83.0211 194.378 83.5858 193.961 84.0023C193.545 84.4189 192.98 84.6532 192.391 84.6539Z" fill="#E6E6E6"/>
<path d="M185.968 83.1552H127.779C127.19 83.1545 126.625 82.9202 126.209 82.5037C125.792 82.0871 125.558 81.5224 125.557 80.9333V74.2494C125.558 73.6603 125.792 73.0956 126.209 72.6791C126.625 72.2625 127.19 72.0282 127.779 72.0275H190.892C191.481 72.0282 192.046 72.2625 192.463 72.6791C192.879 73.0956 193.114 73.6603 193.114 74.2494V76.0085C193.112 77.9033 192.358 79.7198 191.019 81.0596C189.679 82.3994 187.862 83.1531 185.968 83.1552Z" fill="white"/>
<path d="M165.896 76.902H139.324C139.172 76.902 139.027 76.8416 138.919 76.7342C138.812 76.6267 138.751 76.4809 138.751 76.329C138.751 76.177 138.812 76.0313 138.919 75.9238C139.027 75.8163 139.172 75.756 139.324 75.756H165.896C166.048 75.756 166.194 75.8163 166.301 75.9238C166.409 76.0313 166.469 76.177 166.469 76.329C166.469 76.4809 166.409 76.6267 166.301 76.7342C166.194 76.8416 166.048 76.902 165.896 76.902Z" fill="#419EF3"/>
<path d="M179.347 79.2456H139.324C139.172 79.2456 139.027 79.1853 138.919 79.0778C138.812 78.9703 138.751 78.8246 138.751 78.6726C138.751 78.5206 138.812 78.3749 138.919 78.2674C139.027 78.16 139.172 78.0996 139.324 78.0996H179.347C179.499 78.0996 179.645 78.16 179.752 78.2674C179.86 78.3749 179.92 78.5206 179.92 78.6726C179.92 78.8246 179.86 78.9703 179.752 79.0778C179.645 79.1853 179.499 79.2456 179.347 79.2456Z" fill="#E6E6E6"/>
<path d="M192.391 105.197H126.28C125.691 105.196 125.126 104.962 124.71 104.546C124.293 104.129 124.059 103.564 124.058 102.975V93.2929C124.059 92.7038 124.293 92.139 124.71 91.7225C125.126 91.306 125.691 91.0717 126.28 91.071H192.391C192.98 91.0717 193.545 91.306 193.961 91.7225C194.378 92.139 194.612 92.7038 194.613 93.2929V102.975C194.612 103.564 194.378 104.129 193.961 104.546C193.545 104.962 192.98 105.196 192.391 105.197Z" fill="#E6E6E6"/>
<path d="M185.968 103.699H127.779C127.19 103.698 126.625 103.464 126.209 103.047C125.792 102.63 125.558 102.066 125.557 101.477V94.7927C125.558 94.2037 125.792 93.6389 126.209 93.2224C126.625 92.8059 127.19 92.5716 127.779 92.5709H190.892C191.481 92.5716 192.046 92.8059 192.463 93.2224C192.879 93.6389 193.114 94.2037 193.114 94.7927V96.5519C193.112 98.4466 192.358 100.263 191.019 101.603C189.679 102.943 187.862 103.696 185.968 103.699Z" fill="white"/>
<path d="M165.896 97.4453H139.324C139.249 97.4453 139.175 97.4305 139.105 97.4017C139.036 97.3729 138.972 97.3307 138.919 97.2775C138.866 97.2243 138.824 97.1611 138.795 97.0916C138.766 97.0221 138.751 96.9475 138.751 96.8723C138.751 96.797 138.766 96.7225 138.795 96.653C138.824 96.5835 138.866 96.5203 138.919 96.4671C138.972 96.4139 139.036 96.3717 139.105 96.3429C139.175 96.3141 139.249 96.2993 139.324 96.2993H165.896C166.048 96.2993 166.194 96.3597 166.301 96.4671C166.409 96.5746 166.469 96.7203 166.469 96.8723C166.469 97.0243 166.409 97.17 166.301 97.2775C166.194 97.3849 166.048 97.4453 165.896 97.4453Z" fill="#419EF3"/>
<path d="M179.347 99.789H139.324C139.249 99.789 139.175 99.7741 139.105 99.7453C139.036 99.7165 138.972 99.6743 138.919 99.6211C138.866 99.5679 138.824 99.5048 138.795 99.4352C138.766 99.3657 138.751 99.2912 138.751 99.216C138.751 99.1407 138.766 99.0662 138.795 98.9967C138.824 98.9272 138.866 98.864 138.919 98.8108C138.972 98.7576 139.036 98.7154 139.105 98.6866C139.175 98.6578 139.249 98.6429 139.324 98.6429H179.347C179.499 98.6429 179.645 98.7033 179.752 98.8108C179.86 98.9182 179.92 99.064 179.92 99.216C179.92 99.3679 179.86 99.5137 179.752 99.6211C179.645 99.7286 179.499 99.789 179.347 99.789Z" fill="#E6E6E6"/>
<path d="M192.391 125.741H126.28C125.691 125.74 125.126 125.506 124.71 125.089C124.293 124.672 124.059 124.108 124.058 123.519V113.836C124.059 113.247 124.293 112.682 124.71 112.266C125.126 111.849 125.691 111.615 126.28 111.614H192.391C192.98 111.615 193.545 111.849 193.961 112.266C194.378 112.682 194.612 113.247 194.613 113.836V123.519C194.612 124.108 194.378 124.672 193.961 125.089C193.545 125.506 192.98 125.74 192.391 125.741Z" fill="#E6E6E6"/>
<path d="M185.968 124.242H127.779C127.19 124.241 126.625 124.007 126.209 123.59C125.792 123.174 125.558 122.609 125.557 122.02V115.336C125.558 114.747 125.792 114.182 126.209 113.766C126.625 113.349 127.19 113.115 127.779 113.114H190.892C191.481 113.115 192.046 113.349 192.463 113.766C192.879 114.182 193.114 114.747 193.114 115.336V117.095C193.112 118.99 192.358 120.807 191.019 122.146C189.679 123.486 187.862 124.24 185.968 124.242Z" fill="white"/>
<path d="M165.896 117.989H139.324C139.172 117.989 139.027 117.928 138.919 117.821C138.812 117.713 138.751 117.568 138.751 117.416C138.751 117.264 138.812 117.118 138.919 117.01C139.027 116.903 139.172 116.843 139.324 116.843H165.896C166.048 116.843 166.194 116.903 166.301 117.01C166.409 117.118 166.469 117.264 166.469 117.416C166.469 117.568 166.409 117.713 166.301 117.821C166.194 117.928 166.048 117.989 165.896 117.989Z" fill="#419EF3"/>
<path d="M179.347 120.332H139.324C139.172 120.332 139.027 120.272 138.919 120.164C138.812 120.057 138.751 119.911 138.751 119.759C138.751 119.607 138.812 119.462 138.919 119.354C139.027 119.247 139.172 119.186 139.324 119.186H179.347C179.499 119.186 179.645 119.247 179.752 119.354C179.86 119.462 179.92 119.607 179.92 119.759C179.92 119.911 179.86 120.057 179.752 120.164C179.645 120.272 179.499 120.332 179.347 120.332Z" fill="#E6E6E6"/>
<path d="M93.3435 56.4349C97.1622 56.4349 100.258 53.3393 100.258 49.5207C100.258 45.702 97.1622 42.6064 93.3435 42.6064C89.5248 42.6064 86.4292 45.702 86.4292 49.5207C86.4292 53.3393 89.5248 56.4349 93.3435 56.4349Z" fill="#FFB9B9"/>
<path d="M88.2596 53.9675C88.1767 53.9678 88.0943 53.9545 88.0157 53.9281C87.7071 53.7929 87.4491 53.5636 87.2786 53.273C86.0881 51.5608 85.5133 49.2781 85.5703 46.488C85.5944 45.3076 85.728 43.7985 86.5546 42.5955C87.2498 41.584 88.6559 40.7812 89.9664 41.1842C89.9515 40.9221 90.0097 40.6611 90.1344 40.4302C90.2592 40.1993 90.4457 40.0076 90.6731 39.8765C91.1695 39.5725 91.767 39.5165 92.2941 39.467C93.625 39.3423 95.0009 39.2133 96.3486 39.4687C97.8598 39.7553 99.0953 40.5342 99.7385 41.6056L99.7517 41.6392L99.8824 42.2741C99.9 42.3595 99.9358 42.44 99.9875 42.5101C100.039 42.5803 100.105 42.6384 100.182 42.6805C100.258 42.7226 100.343 42.7476 100.429 42.7539C100.516 42.7602 100.604 42.7476 100.685 42.7169C100.774 42.6834 100.87 42.6737 100.964 42.6887C101.058 42.7038 101.147 42.743 101.221 42.8026C101.295 42.8622 101.352 42.9402 101.387 43.0287C101.422 43.1172 101.433 43.2133 101.419 43.3074L101.383 43.5599L101.763 43.4888C101.858 43.4711 101.956 43.4789 102.047 43.5114C102.138 43.5439 102.219 43.6 102.281 43.674C102.344 43.7479 102.386 43.8371 102.402 43.9323C102.419 44.0276 102.41 44.1256 102.377 44.2164L102.269 44.5068C102.348 44.5073 102.426 44.5239 102.498 44.5556C102.57 44.5873 102.634 44.6334 102.688 44.6911C102.765 44.7737 102.813 44.8788 102.826 44.991C102.839 45.1032 102.816 45.2165 102.759 45.3145C102.335 46.0409 101.732 46.6472 101.008 47.0764C100.613 47.3143 100.18 47.4845 99.7285 47.5797C96.7975 48.2122 93.7755 48.3031 90.8117 47.8478C90.9872 48.4323 91.0547 49.044 91.0111 49.6527C90.9162 50.4139 90.4693 51.042 89.8725 51.2529C89.7366 51.2971 89.5975 51.3307 89.4564 51.3533C89.3215 51.3743 89.1886 51.4066 89.0591 51.4498C88.8672 51.5203 88.6972 51.6402 88.5664 51.7973C88.4356 51.9545 88.3485 52.1433 88.314 52.3449C88.2795 52.5464 88.2987 52.7534 88.3698 52.9452C88.4408 53.1369 88.5612 53.3065 88.7187 53.4368L89.013 53.1301L88.9173 53.52C88.8973 53.5959 88.8616 53.6668 88.8125 53.728C88.7633 53.7892 88.7019 53.8393 88.6321 53.8752C88.5175 53.9364 88.3895 53.9681 88.2596 53.9675Z" fill="#2F2E41"/>
<path d="M184.445 158.369L184.725 152.079C187.641 150.52 190.893 149.696 194.2 149.68C189.649 153.401 190.218 160.573 187.132 165.576C186.158 167.13 184.847 168.444 183.296 169.421C181.745 170.399 179.993 171.015 178.172 171.223L174.363 173.555C173.841 170.642 173.956 167.65 174.701 164.785C175.446 161.921 176.803 159.252 178.679 156.963C179.744 155.689 180.966 154.554 182.314 153.585C183.226 155.99 184.445 158.369 184.445 158.369Z" fill="#F2F2F2"/>
<path d="M211.711 173.709C211.711 173.747 211.704 173.785 211.689 173.82C211.675 173.856 211.653 173.888 211.626 173.915C211.599 173.942 211.567 173.963 211.532 173.978C211.496 173.993 211.458 174 211.42 174H0.29097C0.213784 174 0.139762 173.969 0.0851831 173.915C0.0306043 173.86 -6.10352e-05 173.786 -6.10352e-05 173.709C-6.10352e-05 173.632 0.0306043 173.558 0.0851831 173.503C0.139762 173.449 0.213784 173.418 0.29097 173.418H211.42C211.458 173.418 211.496 173.425 211.532 173.44C211.567 173.454 211.599 173.476 211.626 173.503C211.653 173.53 211.675 173.562 211.689 173.597C211.704 173.633 211.711 173.671 211.711 173.709Z" fill="#CCCCCC"/>
</g>
<defs>
<clipPath id="clip0_27_327">
<rect width="211.711" height="174" fill="white"/>
</clipPath>
</defs>
</svg>
