<svg width="224" height="256" viewBox="0 0 224 256" fill="none" xmlns="http://www.w3.org/2000/svg">
<g clip-path="url(#clip0_4_69)">
<path d="M179.658 88.4535H157.559V81.5012C157.559 69.8478 167.461 60.3867 179.658 60.3867L179.658 88.4535Z" fill="#2F2E41"/>
<path d="M174.759 75.475L178.559 91.8037L156.294 88.2713L165.367 72.8283L174.759 75.475Z" fill="#A0616A"/>
<path opacity="0.1" d="M174.759 75.475L178.559 91.8037L156.294 88.2713L165.367 72.8283L174.759 75.475Z" fill="black"/>
<path d="M153.413 140.542H174.759V110.356H153.413V140.542Z" fill="#A0616A"/>
<path d="M188.635 165.221L183.939 189.288C183.939 189.288 186.927 206.012 177.961 223.145L171.984 240.685L163.019 239.461C163.019 239.461 168.569 226.408 168.569 220.697C168.569 214.986 169.85 192.959 169.85 192.959L169.209 167.824L188.635 165.221Z" fill="#2F2E41"/>
<path d="M161.738 239.053C161.738 239.053 171.984 235.382 172.838 240.685L172.411 243.132C172.411 243.132 176.254 254.146 170.704 254.962C165.153 255.778 160.03 257.002 159.603 254.554C159.176 252.107 159.183 249.051 160.247 246.908C161.311 244.764 161.738 239.053 161.738 239.053Z" fill="#2F2E41"/>
<path d="M156.316 161.488L153.821 185.853C153.821 185.853 146.083 201.124 149.708 219.962L150.343 238.399L159.311 239.606C159.311 239.606 157.78 225.593 159.442 220.107C161.104 214.622 166.286 193.123 166.286 193.123L174.217 169.15L156.316 161.488Z" fill="#2F2E41"/>
<path d="M160.66 239.554C160.66 239.554 151.887 233.305 149.523 238.172L149.221 240.636C149.221 240.636 142.324 250.195 147.418 252.453C152.512 254.711 157.077 257.248 158.199 255.011C159.322 252.773 160.204 249.837 159.806 247.495C159.408 245.153 160.66 239.554 160.66 239.554Z" fill="#2F2E41"/>
<path d="M183.512 126.673C193.553 135.626 194.298 149.791 188.421 166.649C188.421 166.649 169.636 178.886 155.974 163.385L149.143 131.976L183.512 126.673Z" fill="#2F2E41"/>
<path d="M166.648 83.0262L177.321 84.6579L176.467 110.356L188.421 133.2L173.052 140.542C173.052 140.542 161.098 118.923 158.963 105.461C156.828 92.0003 158.109 82.2104 158.109 82.2104L166.648 83.0262Z" fill="#419EF3"/>
<path d="M158.536 83.842L147.863 85.4737L148.716 111.172L146.155 134.831L152.132 141.358C152.132 141.358 164.086 119.738 166.221 106.277C168.355 92.8161 167.075 83.0262 167.075 83.0262L158.536 83.842Z" fill="#419EF3"/>
<path d="M171.344 84.4539L173.692 83.842C173.692 83.842 182.017 82.8222 183.298 86.0856C184.579 89.3489 184.152 108.521 184.152 108.521C184.152 108.521 186.355 132.051 177.782 132.32C169.209 132.588 170.917 113.008 170.917 113.008L171.344 84.4539Z" fill="#419EF3"/>
<path d="M171.034 79.9562C177.136 79.9562 182.083 75.2296 182.083 69.399C182.083 63.5684 177.136 58.8417 171.034 58.8417C164.931 58.8417 159.984 63.5684 159.984 69.399C159.984 75.2296 164.931 79.9562 171.034 79.9562Z" fill="#A0616A"/>
<path d="M157.255 85.2697L154.907 84.6579C154.907 84.6579 146.582 83.6381 145.301 86.9014C144.02 90.1647 144.447 109.337 144.447 109.337C144.447 109.337 142.244 132.867 150.817 133.135C159.39 133.404 157.682 113.824 157.682 113.824L157.255 85.2697Z" fill="#419EF3"/>
<path d="M164.651 83.9285C162.28 83.3539 159.593 85.7728 158.648 89.3328C158.25 90.7499 158.212 92.2375 158.539 93.6711L157.521 97.7178L157.446 97.714L149.412 115.805C147.544 120.011 147.741 124.84 150.124 128.801C151.541 131.158 153.402 132.743 155.586 131.125C159.211 128.442 161.579 113.075 162.66 104.249L165.16 95.2761C166.163 94.1647 166.873 92.8398 167.231 91.4124C168.177 87.8538 167.021 84.5031 164.651 83.9285Z" fill="#A0616A"/>
<path d="M149.88 77.9399C150.442 76.3071 151.551 74.8776 152.048 73.2254C152.707 71.0318 154.11 75.8983 154.247 73.6198C154.507 69.2891 161.425 58.1491 165.374 56.0093C169.323 53.8695 171.592 54.5146 175.615 56.5243C175.615 56.5243 177.568 56.643 180 57.7899C182.431 58.9369 184.62 60.7738 185.566 63.2019C186.315 65.1266 186.232 67.2402 186.483 69.2798C187.18 74.962 190.514 80.3661 189.799 86.0463C189.575 87.8185 188.87 89.6511 187.354 90.6934C185.837 91.7358 183.387 91.6224 182.389 90.1136C182.048 89.5988 181.904 88.9879 181.612 88.4464C181.32 87.9049 180.793 87.4001 180.156 87.417C179.198 87.4423 178.71 88.6703 179.088 89.5117C179.466 90.3532 180.353 90.8612 181.187 91.3131C179.202 92.1662 176.74 91.9006 175.004 90.646C173.268 89.3913 172.331 87.1998 172.65 85.1428C173.1 82.2441 177.52 82.8441 178.041 79.9562C178.42 77.8539 179.751 74.3363 179.388 72.2314C179.026 70.1265 177.284 72.6751 179.119 71.4589C177.101 72.3884 172.784 66.0296 170.672 65.3174C168.559 64.6052 166.768 63.063 165.807 61.1293C163.566 64.2328 161.595 63.39 160.793 67.0815C159.99 70.773 160.732 79.1598 164.037 81.2208C162.714 82.0828 161.66 83.3156 161.04 84.7256C160.688 85.5244 160.46 86.3984 159.877 87.0618C158.762 88.3288 156.705 88.4059 155.065 87.8732C153.032 87.2126 151.293 85.7617 150.334 83.9254C149.376 82.089 149.209 79.8892 149.88 77.9399Z" fill="#2F2E41"/>
<path d="M0 255.41C0 255.679 0.226288 255.895 0.508078 255.895H223.492C223.774 255.895 224 255.679 224 255.41C224 255.14 223.774 254.924 223.492 254.924H0.508078C0.226288 254.924 0 255.14 0 255.41Z" fill="#3F3D56"/>
<path d="M145.174 0.407852H57.3668C47.4094 0.407852 39.3373 8.12028 39.3373 17.634V238.084C39.3373 247.598 47.4093 255.31 57.3667 255.31H145.174C155.131 255.31 163.203 247.598 163.203 238.084V17.634C163.203 8.12028 155.131 0.407852 145.174 0.407852Z" fill="white"/>
<path d="M145.174 255.718H57.3668C47.1899 255.718 38.9104 247.808 38.9104 238.084V17.6341C38.9104 7.91071 47.1899 0 57.3668 0H145.174C155.351 0 163.63 7.91071 163.63 17.6341V238.084C163.63 247.808 155.351 255.718 145.174 255.718ZM57.3668 0.815828C47.6607 0.815828 39.7642 8.36045 39.7642 17.6341V238.084C39.7642 247.358 47.6607 254.902 57.3668 254.902H145.174C154.88 254.902 162.777 247.358 162.777 238.084V17.6341C162.777 8.36044 154.88 0.815828 145.174 0.815828H57.3668Z" fill="#3F3D56"/>
<path d="M32.0814 38.575C31.3106 38.575 30.6837 39.1739 30.6837 39.9105V50.5943C30.6837 51.3308 31.3106 51.9298 32.0814 51.9298C32.8523 51.9298 33.4792 51.3308 33.4792 50.5943V39.9105C33.4792 39.1739 32.8523 38.575 32.0814 38.575Z" fill="#3F3D56"/>
<path d="M151.534 35.6767H116.241C114.744 35.6767 113.526 34.513 113.526 33.0827C113.526 31.6524 114.744 30.4888 116.241 30.4888H151.534C153.031 30.4888 154.249 31.6524 154.249 33.0827C154.249 34.513 153.031 35.6767 151.534 35.6767Z" fill="#E6E6E6"/>
<path d="M118.424 56.0753H84.1169C83.252 56.0753 82.5482 55.4029 82.5482 54.5766C82.5482 53.7502 83.252 53.0781 84.1169 53.0781H118.424C119.289 53.0781 119.993 53.7502 119.993 54.5766C119.993 55.4029 119.289 56.0753 118.424 56.0753Z" fill="#419EF3"/>
<path d="M33.4385 63.4721C48.7411 63.4721 61.1462 51.8694 61.1462 37.5567C61.1462 23.244 48.7411 11.6412 33.4385 11.6412C18.136 11.6412 5.73089 23.244 5.73089 37.5567C5.73089 51.8694 18.136 63.4721 33.4385 63.4721Z" fill="#419EF3"/>
<path d="M42.8425 24.4848C39.1538 30.9023 35.465 37.32 31.7763 43.7376C29.4253 39.7687 27.0871 35.7929 24.7304 31.8272C23.9164 30.4576 21.7025 31.6895 22.5185 33.0625C25.2505 37.6597 27.9542 42.2721 30.6862 46.8692C31.1533 47.6553 32.4358 47.6735 32.8981 46.8692C36.9502 39.8195 41.0023 32.7698 45.0544 25.72C45.8484 24.3387 43.6371 23.1023 42.8425 24.4848Z" fill="white"/>
<path d="M69.9343 5.97914H50.3475C50.2744 5.97914 50.2151 6.03579 50.2151 6.10568V8.2843C50.2151 8.35418 50.2744 8.41084 50.3475 8.41084H69.9343C70.0074 8.41084 70.0667 8.35418 70.0667 8.2843V6.10568C70.0667 6.03579 70.0074 5.97914 69.9343 5.97914Z" fill="#E6E6E6"/>
<path d="M135.909 8.41084C137.033 8.41084 137.945 7.53987 137.945 6.46548C137.945 5.39109 137.033 4.52013 135.909 4.52013C134.784 4.52013 133.873 5.39109 133.873 6.46548C133.873 7.53987 134.784 8.41084 135.909 8.41084Z" fill="#E6E6E6"/>
<path d="M141.508 8.41084C142.633 8.41084 143.544 7.53987 143.544 6.46548C143.544 5.39109 142.633 4.52013 141.508 4.52013C140.384 4.52013 139.472 5.39109 139.472 6.46548C139.472 7.53987 140.384 8.41084 141.508 8.41084Z" fill="#E6E6E6"/>
<path d="M147.107 8.41084C148.232 8.41084 149.143 7.53987 149.143 6.46548C149.143 5.39109 148.232 4.52013 147.107 4.52013C145.983 4.52013 145.071 5.39109 145.071 6.46548C145.071 7.53987 145.983 8.41084 147.107 8.41084Z" fill="#E6E6E6"/>
<path d="M57.153 64.0979C57.153 64.3671 57.3793 64.5833 57.6611 64.5833H144.88C145.161 64.5833 145.388 64.3671 145.388 64.0979C145.388 63.8287 145.161 63.6125 144.88 63.6125H57.6611C57.3793 63.6125 57.153 63.8287 57.153 64.0979Z" fill="#3F3D56"/>
<path d="M136.516 102.25H84.1744C83.3095 102.25 82.6057 101.578 82.6057 100.752C82.6057 99.9253 83.3095 99.2532 84.1744 99.2532H136.516C137.381 99.2532 138.084 99.9253 138.084 100.752C138.084 101.578 137.381 102.25 136.516 102.25Z" fill="#419EF3"/>
<path d="M136.516 123.87H84.1744C83.3095 123.87 82.6057 123.197 82.6057 122.371C82.6057 121.545 83.3095 120.873 84.1744 120.873H136.516C137.381 120.873 138.084 121.545 138.084 122.371C138.084 123.197 137.381 123.87 136.516 123.87Z" fill="#419EF3"/>
<path d="M136.516 145.489H84.1744C83.3095 145.489 82.6057 144.817 82.6057 143.991C82.6057 143.164 83.3095 142.492 84.1744 142.492H136.516C137.381 142.492 138.084 143.164 138.084 143.991C138.084 144.817 137.381 145.489 136.516 145.489Z" fill="#419EF3"/>
<path d="M68.299 104.238C70.4211 104.238 72.1414 102.594 72.1414 100.567C72.1414 98.5389 70.4211 96.8953 68.299 96.8953C66.1769 96.8953 64.4566 98.5389 64.4566 100.567C64.4566 102.594 66.1769 104.238 68.299 104.238Z" fill="#419EF3"/>
<path d="M67.872 106.685V105.869C71.0501 105.869 73.6357 103.399 73.6357 100.363C73.6357 97.3261 71.0501 94.8557 67.872 94.8557V94.0399C71.521 94.0399 74.4895 96.8761 74.4895 100.363C74.4895 103.849 71.521 106.685 67.872 106.685Z" fill="#3F3D56"/>
<path d="M68.299 125.857C70.4211 125.857 72.1414 124.214 72.1414 122.186C72.1414 120.158 70.4211 118.515 68.299 118.515C66.1769 118.515 64.4566 120.158 64.4566 122.186C64.4566 124.214 66.1769 125.857 68.299 125.857Z" fill="#419EF3"/>
<path d="M67.872 128.305V127.489C71.0501 127.489 73.6357 125.019 73.6357 121.982C73.6357 118.946 71.0501 116.475 67.872 116.475V115.659C71.521 115.659 74.4895 118.496 74.4895 121.982C74.4895 125.468 71.521 128.305 67.872 128.305Z" fill="#3F3D56"/>
<path d="M68.299 147.477C70.4211 147.477 72.1414 145.833 72.1414 143.805C72.1414 141.778 70.4211 140.134 68.299 140.134C66.1769 140.134 64.4566 141.778 64.4566 143.805C64.4566 145.833 66.1769 147.477 68.299 147.477Z" fill="#419EF3"/>
<path d="M67.872 149.924V149.108C71.0501 149.108 73.6357 146.638 73.6357 143.601C73.6357 140.565 71.0501 138.095 67.872 138.095V137.279C71.521 137.279 74.4895 140.115 74.4895 143.601C74.4895 147.088 71.521 149.924 67.872 149.924Z" fill="#3F3D56"/>
<path d="M163.948 83.1127C166.319 82.5381 169.006 84.957 169.951 88.5169C170.35 89.9341 170.387 91.4216 170.06 92.8552L171.078 96.9019L171.153 96.8982L179.187 114.989C181.055 119.195 180.858 124.024 178.475 127.986C177.058 130.342 175.197 131.927 173.013 130.309C169.388 127.626 167.02 112.26 165.939 103.433L163.439 94.4603C162.436 93.3489 161.726 92.024 161.368 90.5966C160.423 87.038 161.578 83.6873 163.948 83.1127Z" fill="#A0616A"/>
<path d="M173.075 93.026L164.086 99.1308L168.58 126.173L174.217 133.138L180.783 130.968L182.703 118.185L180.444 105.822L173.075 93.026Z" fill="#419EF3"/>
</g>
<defs>
<clipPath id="clip0_4_69">
<rect width="224" height="256" fill="white"/>
</clipPath>
</defs>
</svg>
