<svg width="109" height="82" viewBox="0 0 109 82" fill="none" xmlns="http://www.w3.org/2000/svg">
<g clip-path="url(#clip0_54_244)">
<path d="M83.2484 61.1938L75.5868 57.8137V54.9078L78.3172 54.8925C78.7409 54.8901 79.1533 54.7551 79.4963 54.5064C79.8393 54.2576 80.0958 53.9077 80.2298 53.5058L82.1479 47.7514C82.2496 47.4465 82.2773 47.1219 82.2288 46.8042C82.1804 46.4865 82.0571 46.1849 81.8692 45.9242C81.6813 45.6635 81.4342 45.4512 81.1481 45.3048C80.8621 45.1584 80.5453 45.082 80.224 45.082H75.5868V42.3779H81.4083C81.8672 42.3779 82.3125 42.2223 82.6715 41.9364C83.0305 41.6506 83.282 41.2515 83.3848 40.8042L84.7057 35.058C84.7741 34.7608 84.7745 34.4521 84.707 34.1547C84.6395 33.8573 84.5058 33.579 84.3158 33.3404C84.1259 33.1019 83.8846 32.9092 83.6099 32.7768C83.3352 32.6444 83.0342 32.5756 82.7292 32.5756H75.5868V31.8996C75.5868 31.722 75.5518 31.5462 75.4839 31.3822C75.4159 31.2181 75.3163 31.0691 75.1908 30.9435C75.0652 30.818 74.9162 30.7184 74.7521 30.6505C74.5881 30.5825 74.4123 30.5475 74.2347 30.5475C74.0572 30.5475 73.8814 30.5825 73.7173 30.6505C73.5533 30.7184 73.4042 30.818 73.2787 30.9435C73.1531 31.0691 73.0536 31.2181 72.9856 31.3822C72.9177 31.5462 72.8827 31.722 72.8827 31.8996V32.5756H24.9979V31.8996C24.9979 31.541 24.8554 31.1971 24.6019 30.9435C24.3483 30.69 24.0044 30.5475 23.6458 30.5475C23.2872 30.5475 22.9433 30.69 22.6898 30.9435C22.4362 31.1971 22.2938 31.541 22.2938 31.8996V32.5756H16.616C16.3111 32.5756 16.0101 32.6444 15.7354 32.7768C15.4607 32.9092 15.2194 33.1019 15.0294 33.3404C14.8395 33.579 14.7058 33.8573 14.6383 34.1547C14.5708 34.4521 14.5712 34.7608 14.6395 35.058L15.9605 40.8042C16.0633 41.2515 16.3147 41.6506 16.6738 41.9364C17.0328 42.2223 17.4781 42.3779 17.937 42.3779H22.2938V45.082H19.1212C18.8016 45.082 18.4865 45.1575 18.2016 45.3025C17.9167 45.4474 17.6701 45.6576 17.4819 45.916C17.2938 46.1744 17.1693 46.4735 17.1187 46.7891C17.0681 47.1047 17.0929 47.4278 17.1909 47.7321L19.1487 53.8079C19.2809 54.2182 19.5404 54.5757 19.8895 54.8286C20.2387 55.0814 20.6593 55.2164 21.0904 55.214L22.2938 55.2072V57.8137L16.0969 61.1938C15.8306 61.1938 15.5669 61.2463 15.3208 61.3482C15.0748 61.4501 14.8512 61.5995 14.6629 61.7878C14.4745 61.9762 14.3251 62.1997 14.2232 62.4458C14.1213 62.6918 14.0688 62.9556 14.0688 63.2219C14.0688 63.7598 14.2825 64.2756 14.6629 64.656C15.0432 65.0363 15.559 65.25 16.0969 65.25H22.2938V80.1224C22.2938 80.481 22.4362 80.8249 22.6898 81.0785C22.9433 81.332 23.2872 81.4745 23.6458 81.4745C24.0044 81.4745 24.3483 81.332 24.6019 81.0785C24.8554 80.8249 24.9979 80.481 24.9979 80.1224V65.25H72.8827V80.1224C72.8827 80.481 73.0251 80.8249 73.2787 81.0785C73.5322 81.332 73.8761 81.4745 74.2347 81.4745C74.5933 81.4745 74.9372 81.332 75.1908 81.0785C75.4443 80.8249 75.5868 80.481 75.5868 80.1224V65.25H83.2484C83.7862 65.25 84.3021 65.0363 84.6824 64.656C85.0627 64.2756 85.2764 63.7598 85.2764 63.2219C85.2764 62.9556 85.224 62.6918 85.122 62.4458C85.0201 62.1997 84.8707 61.9762 84.6824 61.7878C84.4941 61.5995 84.2705 61.4501 84.0245 61.3482C83.7784 61.2463 83.5147 61.1938 83.2484 61.1938ZM24.9979 42.3779H72.8827V45.082H24.9979V42.3779ZM24.9979 57.8137V55.192L72.8827 54.923V57.8137H24.9979Z" fill="#E6E6E6"/>
<path d="M77.7083 61.1842C78.5505 54.4116 82.7478 47.7387 89.2067 45.5347C86.6595 52.5056 86.66 60.1527 89.2083 67.1232C90.2008 69.8079 91.5842 72.6905 90.6506 75.3963C90.0698 77.0799 88.6488 78.3679 87.0604 79.1733C85.4719 79.9788 83.709 80.3626 81.9682 80.7388L81.6256 81.0222C78.8621 74.782 76.866 67.9567 77.7083 61.1842Z" fill="#E6E6E6"/>
<path d="M89.2706 45.6628C85.5475 49.8318 83.1322 55.2173 82.5892 60.7887C82.4718 61.9932 82.4575 63.2253 82.7209 64.4126C82.9843 65.6004 83.5579 66.5972 84.3718 67.4915C85.116 68.3091 85.9718 69.0592 86.5043 70.0434C87.0655 71.0809 87.087 72.2596 86.7028 73.3616C86.2327 74.7098 85.3062 75.8088 84.3628 76.852C83.3154 78.0103 82.209 79.1968 81.7638 80.7324C81.7098 80.9184 81.4243 80.8239 81.4782 80.6381C82.2528 77.9664 84.8463 76.4489 86.0831 74.0426C86.6602 72.9197 86.9025 71.6162 86.3614 70.4309C85.8883 69.3945 85.0064 68.6202 84.2458 67.7989C83.4472 66.9365 82.8348 65.9903 82.5193 64.8485C82.1966 63.6806 82.1627 62.4453 82.2488 61.243C82.4644 58.5182 83.107 55.8443 84.1532 53.3191C85.3312 50.4306 86.9946 47.7648 89.0716 45.4372C89.2002 45.2931 89.3984 45.5197 89.2706 45.6628Z" fill="white"/>
<path d="M82.6703 58.9684C81.7409 58.7427 80.9219 58.194 80.3596 57.4203C79.7974 56.6465 79.5285 55.6981 79.601 54.7444C79.6163 54.5515 79.9168 54.5662 79.9014 54.7594C79.8323 55.6474 80.0829 56.5308 80.6079 57.2503C81.133 57.9697 81.8979 58.4778 82.7646 58.6828C82.9529 58.7275 82.8575 59.0129 82.6703 58.9684Z" fill="white"/>
<path d="M83.9403 67.1267C85.619 66.1243 86.8583 64.5261 87.4109 62.6506C87.4655 62.4647 87.7511 62.5593 87.6965 62.7449C87.1178 64.6955 85.8248 66.3561 84.0756 67.3953C83.9088 67.4942 83.7744 67.2251 83.9403 67.1267Z" fill="white"/>
<path d="M85.6104 50.7155C85.9518 50.8778 86.3282 50.9527 86.7057 50.9335C87.0833 50.9143 87.4501 50.8017 87.7734 50.6057C87.9389 50.5047 88.0731 50.774 87.9087 50.8744C87.5505 51.0892 87.1452 51.2131 86.7281 51.2352C86.3111 51.2573 85.8949 51.177 85.5161 51.0011C85.479 50.9876 85.4484 50.9604 85.4307 50.9251C85.4129 50.8898 85.4092 50.8491 85.4204 50.8112C85.4331 50.7734 85.4602 50.7422 85.4957 50.7243C85.5313 50.7064 85.5725 50.7032 85.6104 50.7155Z" fill="white"/>
<path d="M108.895 57.6313C108.793 57.6973 108.692 57.7633 108.59 57.8318C107.23 58.7263 105.944 59.7298 104.747 60.8325C104.653 60.9163 104.559 61.0026 104.467 61.0889C101.61 63.7761 99.2763 66.9705 97.5851 70.5097C96.9134 71.9186 96.3499 73.3766 95.8994 74.871C95.2774 76.9349 94.7672 79.2222 93.536 80.9104C93.4095 81.088 93.2721 81.2575 93.1247 81.4181H81.9979C81.9726 81.4054 81.9472 81.3953 81.9218 81.3826L81.4775 81.4029C81.4954 81.3242 81.5156 81.243 81.5334 81.1643C81.5436 81.1186 81.5563 81.0729 81.5664 81.0272C81.574 80.9967 81.5817 80.9662 81.5867 80.9383C81.5892 80.9282 81.5918 80.918 81.5943 80.9104C81.5994 80.8825 81.6071 80.8571 81.6122 80.8317C81.7238 80.3773 81.8389 79.9229 81.9574 79.4685C81.9574 79.4659 81.9574 79.4659 81.9599 79.4634C82.8713 76.0033 84.0796 72.5888 85.7678 69.4663C85.8186 69.3724 85.8693 69.2759 85.9252 69.182C86.694 67.7787 87.5761 66.4407 88.5629 65.1811C89.1054 64.4932 89.6824 63.8331 90.2917 63.2035C91.8691 61.5798 93.692 60.2143 95.6938 59.157C99.6845 57.05 104.305 56.2427 108.57 57.5298C108.679 57.5627 108.786 57.5957 108.895 57.6313Z" fill="#E6E6E6"/>
<path d="M108.869 57.7725C103.387 58.8597 98.2157 61.7055 94.4278 65.8271C93.6089 66.7181 92.8556 67.6933 92.3511 68.7998C91.8463 69.9068 91.7041 71.048 91.8156 72.2522C91.9175 73.353 92.1492 74.4672 91.9818 75.5736C91.8052 76.7398 91.1128 77.694 90.1426 78.3425C88.9555 79.136 87.554 79.4556 86.1727 79.7206C84.639 80.0148 83.0413 80.296 81.7613 81.254C81.6062 81.3701 81.4351 81.1227 81.59 81.0068C83.817 79.34 86.8014 79.6898 89.2377 78.5131C90.3745 77.9641 91.3528 77.0691 91.6344 75.797C91.8807 74.6846 91.6427 73.5354 91.5299 72.4217C91.4114 71.2523 91.4922 70.1281 91.9277 69.0265C92.3732 67.8997 93.0899 66.893 93.8825 65.9849C95.6951 63.9391 97.8181 62.191 100.174 60.8047C102.853 59.2075 105.787 58.0806 108.846 57.4726C109.036 57.435 109.058 57.7352 108.869 57.7725Z" fill="white"/>
<path d="M95.5886 64.4224C94.9823 63.6827 94.6588 62.7515 94.6757 61.7952C94.6926 60.8389 95.0489 59.9197 95.681 59.2018C95.8094 59.057 96.0404 59.2497 95.9119 59.3947C95.3221 60.0621 94.9902 60.9184 94.9763 61.8089C94.9624 62.6994 95.2672 63.5656 95.8358 64.2512C95.9592 64.4003 95.7113 64.5707 95.5886 64.4224Z" fill="white"/>
<path d="M91.6905 71.7008C93.6343 71.9112 95.586 71.3812 97.1565 70.2165C97.312 70.101 97.483 70.3484 97.3277 70.4638C95.6912 71.6727 93.6591 72.2202 91.6367 71.9968C91.444 71.9754 91.4988 71.6795 91.6905 71.7008Z" fill="white"/>
<path d="M102.905 59.6031C103.08 59.9382 103.335 60.2246 103.648 60.4366C103.961 60.6486 104.322 60.7796 104.698 60.8177C104.891 60.8367 104.836 61.1325 104.644 61.1136C104.229 61.0696 103.831 60.9245 103.484 60.691C103.138 60.4576 102.854 60.1428 102.657 59.7744C102.636 59.7412 102.628 59.7011 102.635 59.6622C102.642 59.6233 102.664 59.5886 102.695 59.5651C102.728 59.5426 102.769 59.5339 102.808 59.5411C102.847 59.5482 102.882 59.5705 102.905 59.6031Z" fill="white"/>
<path d="M2.61202 67.1981C3.20393 62.4384 6.15369 57.7488 10.6929 56.1999C8.90278 61.0989 8.90317 66.4732 10.694 71.3719C11.3915 73.2587 12.3638 75.2845 11.7077 77.1861C11.2995 78.3693 10.3008 79.2745 9.18454 79.8405C8.06818 80.4066 6.82926 80.6763 5.60585 80.9407L5.36507 81.1399C3.42292 76.7544 2.02011 71.9577 2.61202 67.1981Z" fill="#E6E6E6"/>
<path d="M10.7377 56.2899C8.09427 59.2518 6.45129 62.9713 6.04214 66.9201C5.95964 67.7667 5.94962 68.6326 6.13467 69.467C6.32128 70.2789 6.72192 71.026 7.29494 71.6307C7.81791 72.2053 8.41938 72.7325 8.79357 73.4242C9.18798 74.1533 9.20313 74.9817 8.93312 75.7561C8.60276 76.7037 7.95162 77.476 7.28862 78.2092C6.55248 79.0232 5.77497 79.857 5.46205 80.9362C5.42414 81.067 5.22347 81.0005 5.26132 80.8699C5.80574 78.9923 7.62838 77.9258 8.49759 76.2347C8.90318 75.4456 9.07342 74.5295 8.69319 73.6965C8.36069 72.9681 7.74091 72.424 7.20637 71.8468C6.64509 71.2407 6.21473 70.5757 5.99303 69.7733C5.76624 68.9525 5.74243 68.0844 5.80293 67.2394C5.95442 65.3245 6.40605 63.4453 7.14128 61.6707C7.96916 59.6406 9.1382 57.7672 10.5978 56.1313C10.6882 56.0301 10.8275 56.1893 10.7377 56.2899Z" fill="white"/>
<path d="M6.09909 65.6409C5.44588 65.4823 4.87031 65.0967 4.47518 64.5529C4.08004 64.0091 3.89106 63.3426 3.94199 62.6723C3.95276 62.5367 4.16395 62.5471 4.15317 62.6829C4.10459 63.3069 4.28069 63.9278 4.64967 64.4334C5.01866 64.939 5.55623 65.2961 6.16536 65.4401C6.2977 65.4716 6.23066 65.6721 6.09909 65.6409Z" fill="white"/>
<path d="M6.9915 71.3743C8.17127 70.6699 9.04219 69.5467 9.43059 68.2286C9.46897 68.098 9.66965 68.1645 9.63133 68.2949C9.22458 69.6657 8.31588 70.8328 7.08657 71.5631C6.96935 71.6327 6.87492 71.4435 6.9915 71.3743Z" fill="white"/>
<path d="M8.1658 59.8409C8.40576 59.9549 8.67028 60.0076 8.9356 59.9941C9.20093 59.9806 9.45876 59.9015 9.68593 59.7637C9.80221 59.6927 9.89653 59.882 9.781 59.9525C9.5293 60.1035 9.24445 60.1906 8.95134 60.2061C8.65823 60.2217 8.36577 60.1652 8.09952 60.0416C8.07345 60.0321 8.05199 60.013 8.0395 59.9882C8.02702 59.9634 8.02444 59.9347 8.0323 59.9081C8.04121 59.8816 8.06023 59.8596 8.08523 59.8471C8.11022 59.8345 8.13918 59.8322 8.1658 59.8409Z" fill="white"/>
<path d="M24.5292 64.7012C24.4579 64.7475 24.3865 64.7939 24.3151 64.8421C23.3591 65.4707 22.4558 66.176 21.614 66.9509C21.548 67.0098 21.482 67.0704 21.4177 67.1311C19.4097 69.0197 17.7697 71.2646 16.5811 73.7519C16.109 74.742 15.713 75.7667 15.3964 76.8169C14.9593 78.2674 14.6007 79.8749 13.7354 81.0613C13.6465 81.1861 13.55 81.3053 13.4464 81.4181H5.62669C5.60892 81.4092 5.59106 81.4021 5.5732 81.3931L5.26099 81.4074C5.27353 81.3521 5.28773 81.295 5.30027 81.2397C5.30742 81.2076 5.3163 81.1755 5.32345 81.1434C5.32876 81.122 5.33416 81.1005 5.33773 81.0809C5.33947 81.0738 5.3413 81.0667 5.34305 81.0613C5.34662 81.0417 5.35202 81.0238 5.35559 81.006C5.43408 80.6866 5.51495 80.3673 5.5982 80.0479C5.5982 80.0462 5.5982 80.0462 5.59995 80.0444C6.24049 77.6126 7.08968 75.213 8.27609 73.0186C8.3118 72.9526 8.34743 72.8848 8.38672 72.8188C8.92699 71.8326 9.54695 70.8922 10.2404 70.0071C10.6217 69.5236 11.0272 69.0597 11.4554 68.6172C12.564 67.4761 13.8451 66.5164 15.2519 65.7734C18.0565 64.2926 21.3035 63.7253 24.3009 64.6298C24.3775 64.653 24.4525 64.6762 24.5292 64.7012Z" fill="#E6E6E6"/>
<path d="M24.5117 64.8004C20.6178 65.5738 17.0665 67.5544 14.3624 70.461C13.7868 71.0872 13.2575 71.7726 12.9029 72.5502C12.563 73.3109 12.4331 74.1486 12.5266 74.9765C12.5982 75.7501 12.761 76.5331 12.6433 77.3107C12.5193 78.1303 12.0326 78.8009 11.3508 79.2566C10.5165 79.8143 9.53162 80.0389 8.56084 80.2251C7.48298 80.4319 6.36014 80.6296 5.46056 81.3028C5.35156 81.3844 5.23136 81.2105 5.34019 81.129C6.90531 79.9577 9.00269 80.2035 10.7149 79.3766C11.5138 78.9907 12.2013 78.3617 12.3992 77.4677C12.5723 76.6859 12.4051 75.8783 12.3258 75.0956C12.2425 74.2738 12.2993 73.4837 12.6053 72.7096C12.9185 71.9176 13.4221 71.2101 13.9791 70.572C15.253 69.1342 16.745 67.9057 18.4005 66.9314C20.2837 65.8089 22.3451 65.0169 24.4954 64.5896C24.6285 64.5632 24.6439 64.7742 24.5117 64.8004Z" fill="white"/>
<path d="M15.1779 69.4739C14.7518 68.954 14.5244 68.2995 14.5363 67.6275C14.5482 66.9554 14.7986 66.3094 15.2428 65.8049C15.3331 65.7032 15.4955 65.8386 15.4051 65.9405C14.9906 66.4095 14.7574 67.0113 14.7476 67.6371C14.7378 68.263 14.952 68.8717 15.3517 69.3535C15.4384 69.4583 15.2641 69.5781 15.1779 69.4739Z" fill="white"/>
<path d="M12.4384 74.589C13.8044 74.7368 15.1761 74.3643 16.2798 73.5458C16.389 73.4646 16.5093 73.6385 16.4001 73.7196C15.25 74.5692 13.8218 74.9539 12.4006 74.7969C12.2651 74.7819 12.3036 74.574 12.4384 74.589Z" fill="white"/>
<path d="M20.3197 66.0869C20.4426 66.3224 20.6221 66.5237 20.8421 66.6727C21.0621 66.8217 21.3156 66.9137 21.5799 66.9405C21.7155 66.9538 21.6768 67.1617 21.5421 67.1485C21.2502 67.1175 20.9704 67.0156 20.727 66.8515C20.4836 66.6874 20.2841 66.4662 20.1459 66.2073C20.1308 66.184 20.1252 66.1558 20.1302 66.1285C20.1351 66.1011 20.1503 66.0767 20.1726 66.0602C20.1957 66.0444 20.2241 66.0383 20.2516 66.0433C20.2792 66.0483 20.3036 66.064 20.3197 66.0869Z" fill="white"/>
<path d="M41.5997 78.904L39.5841 79.487L36.3757 71.9902L39.3506 71.1295L41.5997 78.904Z" fill="#9E616A"/>
<path d="M46.4201 51.7348L44.3407 53.9529C44.3407 53.9529 33.3889 58.8049 33.3889 61.3003C33.3889 63.7956 36.0229 74.6087 37.1319 75.4405C37.7999 75.9443 37.498 76.4868 37.8294 77.255L41.7067 75.8564C41.7067 75.8564 41.4294 75.0246 41.7067 74.6087C41.9839 74.1928 41.7067 73.9156 41.7067 73.9156C41.7067 73.9156 41.2908 74.0542 41.4294 73.6383C41.5681 73.2224 41.5681 73.0838 41.4294 72.9452C41.2908 72.8065 40.8749 71.5589 40.8749 71.5589C40.8749 71.5589 41.0135 66.5682 39.0727 64.766C39.0727 64.766 48.0836 62.1321 49.1927 60.3299C50.3017 58.5277 50.579 52.0121 50.579 52.0121L46.4201 51.7348Z" fill="#2F2E41"/>
<path d="M42.4213 80.0531L35.7049 81.4392L35.6874 81.3543C35.5443 80.661 35.6825 79.9392 36.0716 79.3478C36.4606 78.7564 37.0687 78.3437 37.762 78.2005L37.7621 78.2005L38.7968 77.0165L41.278 77.4749L41.8643 77.3539L42.4213 80.0531Z" fill="#2F2E41"/>
<path d="M48.9318 70.4839L46.3596 72.2084L51.6959 78.3746L53.4387 77.2061L48.9318 70.4839Z" fill="#9E616A"/>
<path d="M52.7741 47.9135C51.4002 45.0167 55.5881 53.5824 55.0336 56.2352C54.6006 58.3065 46.514 64.9016 46.514 64.9016C48.9506 65.9398 50.5108 70.6823 50.5108 70.6823C50.5108 70.6823 51.3247 71.7153 51.5021 71.7988C51.6795 71.8823 51.7265 72.0127 51.7369 72.451C51.7474 72.8892 52.0917 72.6179 52.0917 72.6179C52.0917 72.6179 52.4465 72.7849 52.3266 73.2701C52.2066 73.7553 52.7492 74.444 52.7492 74.444L49.7518 77.2384C49.1797 76.6278 49.1032 75.8501 48.304 75.6024C46.9788 75.1955 40.8375 65.9141 39.9922 63.5663C39.1468 61.2185 47.8073 52.9433 47.8073 52.9433L48.5428 48.8476L52.7741 47.9135Z" fill="#2F2E41"/>
<path d="M54.3174 79.2739L47.8649 81.5969L47.8355 81.5153C47.5957 80.8492 47.6304 80.1152 47.9318 79.4746C48.2332 78.8341 48.7767 78.3395 49.4427 78.0996L49.4429 78.0996L50.2996 76.781L52.8206 76.8836L53.3838 76.6808L54.3174 79.2739Z" fill="#2F2E41"/>
<path d="M47.8568 34.076L45.989 35.4983L41.0273 36.8123C41.0273 36.8123 42.8052 49.2897 41.9661 50.1288C41.127 50.9678 41.8838 50.9904 41.7152 52.0804C41.5466 53.1705 41.1368 55.4049 41.1368 55.4049C46.8007 58.4031 51.6835 58.4835 55.6057 54.9751C55.6559 54.7581 55.6304 54.5305 55.5335 54.3299C55.4365 54.1294 55.274 53.968 55.0727 53.8725C54.3427 53.4851 55.7456 51.6773 55.1491 51.375C54.5525 51.0727 55.3916 48.4506 55.3916 48.4506L57.21 39.8657L52.3733 36.0814L51.6377 34.3091L47.8568 34.076Z" fill="#419EF3"/>
<path d="M50.1875 45.2257C50.5444 45.2257 50.8338 44.9363 50.8338 44.5794C50.8338 44.2225 50.5444 43.9332 50.1875 43.9332C49.8306 43.9332 49.5413 44.2225 49.5413 44.5794C49.5413 44.9363 49.8306 45.2257 50.1875 45.2257Z" fill="#F2F2F2"/>
<path d="M49.769 33.2844C51.8095 33.2844 53.4636 31.6303 53.4636 29.5899C53.4636 27.5494 51.8095 25.8953 49.769 25.8953C47.7286 25.8953 46.0745 27.5494 46.0745 29.5899C46.0745 31.6303 47.7286 33.2844 49.769 33.2844Z" fill="#9E616A"/>
<path opacity="0.1" d="M55.1492 44.064L55.7598 44.522L56.0652 42.3846L55.1492 44.064Z" fill="black"/>
<path d="M41.3199 36.8002C41.3199 36.8002 40.5566 36.6475 40.0986 38.0215C39.6406 39.3955 37.3416 46.6308 37.3416 47.5468C37.3416 48.4629 48.4195 50.4598 48.4195 50.4598L47.3313 46.6424L42.2992 45.0681L41.3199 36.8002Z" fill="#419EF3"/>
<path d="M48.9047 49.8938C49.8894 49.8938 50.6877 49.0955 50.6877 48.1108C50.6877 47.126 49.8894 46.3277 48.9047 46.3277C47.9199 46.3277 47.1216 47.126 47.1216 48.1108C47.1216 49.0955 47.9199 49.8938 48.9047 49.8938Z" fill="#9E616A"/>
<path opacity="0.1" d="M42.627 43.2512L42.7666 45.1422L47.1961 47.4671L43.2563 44.8245L42.627 43.2512Z" fill="black"/>
<path d="M53.0502 42.5067H52.9927V40.9325C52.9927 40.8129 52.9691 40.6944 52.9234 40.5839C52.8776 40.4734 52.8105 40.3729 52.7259 40.2883C52.6413 40.2037 52.5408 40.1366 52.4303 40.0908C52.3197 40.045 52.2013 40.0215 52.0816 40.0215H48.7465C48.6269 40.0215 48.5084 40.045 48.3979 40.0908C48.2873 40.1366 48.1869 40.2037 48.1023 40.2883C48.0177 40.3729 47.9506 40.4733 47.9048 40.5839C47.859 40.6944 47.8354 40.8129 47.8354 40.9325V49.5685C47.8354 49.6882 47.859 49.8067 47.9048 49.9172C47.9506 50.0277 48.0177 50.1282 48.1023 50.2128C48.1869 50.2974 48.2873 50.3645 48.3979 50.4103C48.5084 50.4561 48.6269 50.4796 48.7465 50.4796H52.0816C52.2013 50.4796 52.3197 50.4561 52.4303 50.4103C52.5408 50.3645 52.6412 50.2974 52.7258 50.2128C52.8104 50.1282 52.8776 50.0277 52.9234 49.9172C52.9691 49.8067 52.9927 49.6882 52.9927 49.5685V43.6272H53.0502V42.5067Z" fill="#F0F0F0"/>
<path d="M57.2103 39.8656C57.2103 39.8656 57.6683 40.171 57.9736 41.545C58.279 42.919 60.2636 48.1096 59.5003 49.331C58.737 50.5523 58.5116 51.8558 55.9163 50.0238L52.325 46.7356L54.9203 44.293L55.989 45.0563L57.2103 39.8656Z" fill="#419EF3"/>
<path d="M50.4547 43.8706C50.8763 43.8706 51.2181 43.5288 51.2181 43.1072C51.2181 42.6857 50.8763 42.3439 50.4547 42.3439C50.0332 42.3439 49.6914 42.6857 49.6914 43.1072C49.6914 43.5288 50.0332 43.8706 50.4547 43.8706Z" fill="#419EF3"/>
<path d="M52.6647 46.5626C53.6494 46.5626 54.4477 45.7643 54.4477 44.7795C54.4477 43.7948 53.6494 42.9965 52.6647 42.9965C51.6799 42.9965 50.8816 43.7948 50.8816 44.7795C50.8816 45.7643 51.6799 46.5626 52.6647 46.5626Z" fill="#9E616A"/>
<path opacity="0.1" d="M42.0117 49.2211L47.5133 50.2512L42.1568 50.4568L42.0117 49.2211Z" fill="black"/>
<path d="M53.0219 27.1492C53.0219 27.1492 53.9839 25.3102 51.8676 25.1431C51.8676 25.1431 50.0634 23.5065 48.2245 24.8439C48.2245 24.8439 47.2214 24.8439 46.6729 25.9789C46.6729 25.9789 45.884 25.6798 45.7107 26.4805C45.7107 26.4805 45.1334 28.1522 45.7107 29.6568C46.2879 31.1614 46.4797 31.3286 46.4797 31.3286C46.4797 31.3286 46.0746 29.4615 48.3835 29.2943C50.6924 29.1271 52.8106 27.6807 53.003 29.5196C53.1954 31.3586 53.4069 30.5279 53.4069 30.5279C53.4069 30.5279 55.2345 27.9015 53.0219 27.1492Z" fill="#2F2E41"/>
<path d="M88.9059 23.1815H58.9965C58.538 23.1815 58.0982 23.3637 57.774 23.6879C57.4497 24.0121 57.2676 24.4519 57.2676 24.9104V32.1037C57.2676 32.5622 57.4497 33.002 57.774 33.3262C58.0982 33.6505 58.538 33.8326 58.9965 33.8326H59.4355V35.1322C59.4355 35.2111 59.4589 35.2882 59.5027 35.3537C59.5465 35.4193 59.6088 35.4704 59.6816 35.5006C59.7545 35.5308 59.8347 35.5387 59.912 35.5233C59.9894 35.5079 60.0604 35.4699 60.1162 35.4142L61.6977 33.8326H88.9059C89.3644 33.8326 89.8042 33.6505 90.1284 33.3262C90.4527 33.002 90.6348 32.5622 90.6348 32.1037V24.9104C90.6348 24.6834 90.5901 24.4586 90.5032 24.2488C90.4163 24.039 90.289 23.8484 90.1284 23.6879C89.9679 23.5274 89.7773 23.4 89.5675 23.3131C89.3578 23.2262 89.1329 23.1815 88.9059 23.1815Z" fill="#3F3D56"/>
<path d="M88.906 32.9553H58.9966C58.7708 32.955 58.5543 32.8652 58.3947 32.7056C58.2351 32.546 58.1453 32.3295 58.145 32.1037V24.9104C58.1453 24.6847 58.2351 24.4682 58.3947 24.3086C58.5543 24.1489 58.7708 24.0591 58.9966 24.0589H81.7128C83.8456 24.0613 85.8905 24.9097 87.3986 26.4179C88.9068 27.926 89.7551 29.9709 89.7575 32.1037C89.7572 32.3295 89.6674 32.546 89.5078 32.7056C89.3482 32.8652 89.1317 32.955 88.906 32.9553Z" fill="white"/>
<path d="M80.3743 25.6322H67.5904C67.3204 25.6322 67.1016 25.8511 67.1016 26.1211V26.2744C67.1016 26.5444 67.3204 26.7633 67.5904 26.7633H80.3743C80.6443 26.7633 80.8632 26.5444 80.8632 26.2744V26.1211C80.8632 25.8511 80.6443 25.6322 80.3743 25.6322Z" fill="#419EF3"/>
<path d="M83.0607 27.8944H64.9042C64.6342 27.8944 64.4153 28.1133 64.4153 28.3833V28.5366C64.4153 28.8066 64.6342 29.0255 64.9042 29.0255H83.0607C83.3307 29.0255 83.5496 28.8066 83.5496 28.5366V28.3833C83.5496 28.1133 83.3307 27.8944 83.0607 27.8944Z" fill="#E6E6E6"/>
<path d="M83.0607 30.1566H64.9042C64.6342 30.1566 64.4153 30.3755 64.4153 30.6455V30.7988C64.4153 31.0688 64.6342 31.2877 64.9042 31.2877H83.0607C83.3307 31.2877 83.5496 31.0688 83.5496 30.7988V30.6455C83.5496 30.3755 83.3307 30.1566 83.0607 30.1566Z" fill="#E6E6E6"/>
<path d="M107.653 2.28882e-05H84.3393C84.1624 2.27402e-05 83.9871 0.03488 83.8236 0.102605C83.6601 0.17033 83.5116 0.269596 83.3864 0.394735C83.2613 0.519874 83.162 0.668436 83.0943 0.831938C83.0266 0.99544 82.9917 1.17068 82.9917 1.34765V6.95453C82.9917 7.13151 83.0266 7.30675 83.0943 7.47025C83.162 7.63375 83.2613 7.78231 83.3864 7.90745C83.5116 8.03259 83.6601 8.13186 83.8236 8.19958C83.9871 8.26731 84.1624 8.30217 84.3393 8.30217H84.6815V9.31514C84.6815 9.37661 84.6997 9.4367 84.7339 9.48781C84.768 9.53892 84.8166 9.57875 84.8734 9.60227C84.9302 9.6258 84.9927 9.63195 85.0529 9.61996C85.1132 9.60797 85.1686 9.57837 85.2121 9.5349L86.4448 8.30217H107.653C107.83 8.30217 108.005 8.26731 108.168 8.19958C108.332 8.13186 108.48 8.03259 108.605 7.90745C108.731 7.78231 108.83 7.63375 108.898 7.47025C108.965 7.30675 109 7.13151 109 6.95453V1.34765C109 1.17068 108.965 0.99544 108.898 0.831938C108.83 0.668436 108.731 0.519874 108.605 0.394735C108.48 0.269596 108.332 0.17033 108.168 0.102605C108.005 0.03488 107.83 2.27402e-05 107.653 2.28882e-05Z" fill="#F2F2F2"/>
<path d="M107.652 7.61832H84.3393C84.1633 7.61812 83.9946 7.54813 83.8702 7.4237C83.7457 7.29926 83.6757 7.13055 83.6755 6.95458V1.34767C83.6757 1.17169 83.7457 1.00298 83.8702 0.878545C83.9946 0.754111 84.1633 0.684118 84.3393 0.683922H102.046C103.708 0.685814 105.302 1.34708 106.478 2.52265C107.653 3.69822 108.314 5.29208 108.316 6.95458C108.316 7.13055 108.246 7.29926 108.122 7.4237C107.997 7.54813 107.828 7.61812 107.652 7.61832Z" fill="white"/>
<path d="M100.943 1.91026H91.0978C90.8543 1.91026 90.657 2.10762 90.657 2.35108V2.35108C90.657 2.59454 90.8543 2.7919 91.0978 2.7919H100.943C101.186 2.7919 101.384 2.59454 101.384 2.35108C101.384 2.10762 101.186 1.91026 100.943 1.91026Z" fill="#F2F2F2"/>
<path d="M103.037 3.67355H89.0038C88.7603 3.67355 88.563 3.87091 88.563 4.11437V4.11437C88.563 4.35783 88.7603 4.55519 89.0038 4.55519H103.037C103.28 4.55519 103.477 4.35783 103.477 4.11437C103.477 3.87091 103.28 3.67355 103.037 3.67355Z" fill="#F2F2F2"/>
<path d="M103.037 5.43683H89.0038C88.7603 5.43683 88.563 5.63419 88.563 5.87765V5.87765C88.563 6.12111 88.7603 6.31848 89.0038 6.31848H103.037C103.28 6.31848 103.477 6.12111 103.477 5.87765C103.477 5.63419 103.28 5.43683 103.037 5.43683Z" fill="#F2F2F2"/>
<path d="M55.4992 9.23899H78.8125C78.9894 9.23899 79.1647 9.27385 79.3282 9.34157C79.4917 9.4093 79.6402 9.50856 79.7654 9.6337C79.8905 9.75884 79.9898 9.9074 80.0575 10.0709C80.1252 10.2344 80.1601 10.4096 80.1601 10.5866V16.1935C80.1601 16.3705 80.1252 16.5457 80.0575 16.7092C79.9898 16.8727 79.8905 17.0213 79.7654 17.1464C79.6402 17.2716 79.4917 17.3708 79.3282 17.4386C79.1647 17.5063 78.9894 17.5411 78.8125 17.5411H78.4703V18.5541C78.4703 18.6156 78.452 18.6757 78.4179 18.7268C78.3837 18.7779 78.3352 18.8177 78.2784 18.8412C78.2216 18.8648 78.1591 18.8709 78.0989 18.8589C78.0386 18.8469 77.9832 18.8173 77.9397 18.7739L76.707 17.5411H55.4992C55.3223 17.5411 55.147 17.5063 54.9835 17.4386C54.82 17.3708 54.6715 17.2716 54.5463 17.1464C54.4212 17.0213 54.3219 16.8727 54.2542 16.7092C54.1865 16.5457 54.1516 16.3705 54.1516 16.1935V10.5866C54.1516 10.4096 54.1865 10.2344 54.2542 10.0709C54.3219 9.9074 54.4212 9.75884 54.5463 9.6337C54.6715 9.50856 54.82 9.4093 54.9835 9.34157C55.147 9.27385 55.3223 9.23899 55.4992 9.23899Z" fill="#F2F2F2"/>
<path d="M54.8357 16.1935C54.8376 14.5311 55.4988 12.9372 56.6743 11.7616C57.8499 10.5861 59.4437 9.92478 61.1062 9.92289H78.8127C78.9886 9.92309 79.1573 9.99308 79.2818 10.1175C79.4062 10.2419 79.4762 10.4107 79.4764 10.5866V16.1935C79.4762 16.3695 79.4062 16.5382 79.2818 16.6627C79.1573 16.7871 78.9886 16.8571 78.8127 16.8573H55.4994C55.3235 16.8571 55.1547 16.7871 55.0303 16.6627C54.9059 16.5382 54.8359 16.3695 54.8357 16.1935Z" fill="white"/>
<path d="M62.209 12.0309L72.054 12.0309C72.2975 12.0309 72.4949 11.8335 72.4949 11.59C72.4949 11.3466 72.2975 11.1492 72.054 11.1492L62.209 11.1492C61.9656 11.1492 61.7682 11.3466 61.7682 11.59C61.7682 11.8335 61.9656 12.0309 62.209 12.0309Z" fill="#F2F2F2"/>
<path d="M60.1152 13.7942L74.148 13.7942C74.3915 13.7942 74.5889 13.5968 74.5889 13.3533V13.3533C74.5889 13.1099 74.3915 12.9125 74.148 12.9125L60.1152 12.9125C59.8718 12.9125 59.6744 13.1099 59.6744 13.3533C59.6744 13.5968 59.8718 13.7942 60.1152 13.7942Z" fill="#F2F2F2"/>
<path d="M60.1152 15.5575L74.148 15.5575C74.3915 15.5575 74.5889 15.3601 74.5889 15.1166C74.5889 14.8732 74.3915 14.6758 74.148 14.6758L60.1152 14.6758C59.8718 14.6758 59.6744 14.8732 59.6744 15.1166C59.6744 15.3601 59.8718 15.5575 60.1152 15.5575Z" fill="#F2F2F2"/>
<path d="M96.951 81.5887H0.134153C0.0985736 81.5887 0.0644513 81.5745 0.0392926 81.5494C0.0141338 81.5242 0 81.4901 0 81.4545C0 81.4189 0.0141338 81.3848 0.0392926 81.3597C0.0644513 81.3345 0.0985736 81.3204 0.134153 81.3204H96.951C96.9865 81.3204 97.0207 81.3345 97.0458 81.3597C97.071 81.3848 97.0851 81.4189 97.0851 81.4545C97.0851 81.4901 97.071 81.5242 97.0458 81.5494C97.0207 81.5745 96.9865 81.5887 96.951 81.5887Z" fill="#CCCCCC"/>
</g>
<defs>
<clipPath id="clip0_54_244">
<rect width="109" height="81.5969" fill="white"/>
</clipPath>
</defs>
</svg>
