<svg width="65" height="65" viewBox="0 0 65 65" fill="none" xmlns="http://www.w3.org/2000/svg">
<path fill-rule="evenodd" clip-rule="evenodd" d="M27.5349 17.6977C28.4796 19.9302 30.8309 21.5806 35.5745 23.3845C37.1322 19.8715 39.535 17.5227 42.3034 16.2591C45.3807 14.8547 48.8038 14.8401 51.8133 15.9114C54.8226 16.9826 57.4665 19.157 58.9641 22.19C60.4718 25.2435 60.7658 29.0609 59.2556 33.3034L54.1319 47.6964C52.6963 51.7293 50.5253 55.7022 47.338 58.2231C44.058 60.8174 39.827 61.7696 34.6562 59.9288C29.3687 58.0466 26.8042 53.5981 24.4718 49.4954L24.3702 49.3168C22.0219 45.1845 19.8337 41.3344 15.5599 39.1257C13.3517 38.3583 11.6297 38.5035 10.2667 39.0564C8.8532 39.6297 7.69349 40.6964 6.75932 41.9528C5.82692 43.2069 5.16837 44.5846 4.741 45.667C4.52891 46.2042 4.37765 46.6587 4.28042 46.975C4.23185 47.133 4.19698 47.2557 4.17491 47.3363C4.16388 47.3766 4.15608 47.4063 4.15136 47.4245L4.14658 47.4432L4.14622 47.4447C4.14632 47.4443 4.14645 47.4437 2.7974 47.1134C1.44839 46.783 1.44857 46.7823 1.44869 46.7818L1.44911 46.7801L1.45003 46.7763L1.45289 46.765L1.46222 46.7285C1.47003 46.6982 1.48122 46.6559 1.49573 46.6029C1.52486 46.4965 1.5677 46.346 1.62526 46.1588C1.74026 45.7847 1.91488 45.261 2.15733 44.6469C2.639 43.4269 3.40409 41.81 4.53015 40.2955C5.65445 38.7833 7.188 37.3074 9.22277 36.4822C11.2907 35.6435 13.7456 35.531 16.5754 36.5384C17.2336 36.7727 17.8483 37.0083 18.439 37.2346C19.5365 37.6554 20.5506 38.0441 21.6045 38.3326C23.1555 38.7572 24.5188 38.8716 25.8231 38.4664C28.3197 37.6908 31.2835 34.7723 34.5832 25.9802C29.7529 24.147 26.3973 22.1374 24.9768 18.7801C24.2052 16.9569 24.0671 14.8811 24.3898 12.4887C24.7113 10.1051 25.5027 7.31924 26.6788 4.01541L29.2957 4.94698C28.1428 8.18541 27.4259 10.7597 27.1426 12.86C26.8605 14.9516 27.0211 16.4834 27.5349 17.6977ZM52.8003 43.1543L56.6387 32.3719C57.9232 28.7635 57.6153 25.7325 56.4734 23.42C55.3215 21.087 53.2682 19.3779 50.8817 18.5284C48.4952 17.6788 45.8237 17.706 43.4567 18.7863C41.1105 19.8571 38.9566 22.0118 37.6721 25.6201C36.3824 29.2429 35.0913 32.1317 33.7736 34.3977C38.982 33.5916 41.6949 36.4519 44.2497 39.1454C46.6164 41.6405 48.8472 43.9927 52.8003 43.1543Z" fill="#FDB813"/>
</svg>
