<svg width="180" height="180" viewBox="0 0 180 180" fill="none" xmlns="http://www.w3.org/2000/svg">
<g clip-path="url(#clip0_175_666)">
<path d="M90 101.25C117.949 101.25 140.625 78.5742 140.625 50.625C140.625 22.6758 117.949 0 90 0C62.0508 0 39.375 22.6758 39.375 50.625C39.375 78.5742 62.0508 101.25 90 101.25ZM135 112.5H115.629C107.824 116.086 99.1406 118.125 90 118.125C80.8594 118.125 72.2109 116.086 64.3711 112.5H45C20.1445 112.5 0 132.645 0 157.5V163.125C0 172.441 7.55859 180 16.875 180H163.125C172.441 180 180 172.441 180 163.125V157.5C180 132.645 159.855 112.5 135 112.5Z" fill="#419EF3"/>
</g>
<defs>
<clipPath id="clip0_175_666">
<rect width="180" height="180" fill="white"/>
</clipPath>
</defs>
</svg>
