<svg width="286" height="248" viewBox="0 0 286 248" fill="none" xmlns="http://www.w3.org/2000/svg">
<g clip-path="url(#clip0_29_521)">
<path d="M264.552 229.845L272.249 227.403C273.208 223.273 273.144 218.97 272.063 214.869C268.971 221.745 259.899 223.429 254.73 228.917C253.131 230.641 251.94 232.703 251.246 234.949C250.552 237.196 250.373 239.57 250.721 241.895L249.102 247.389C252.884 247.065 256.551 245.926 259.85 244.049C263.15 242.173 266.003 239.603 268.213 236.517C269.436 234.774 270.435 232.883 271.186 230.89C267.903 230.562 264.552 229.845 264.552 229.845Z" fill="#F2F2F2"/>
<path d="M256.327 219.687L262.128 214.069C261.144 209.944 259.168 206.122 256.372 202.933C256.67 210.466 249.302 216.02 247.123 223.237C246.46 225.493 246.314 227.869 246.695 230.19C247.076 232.51 247.974 234.715 249.323 236.641L250.323 242.28C253.564 240.304 256.338 237.649 258.454 234.498C260.57 231.346 261.978 227.774 262.58 224.026C262.898 221.92 262.948 219.783 262.731 217.664C259.647 218.834 256.327 219.687 256.327 219.687Z" fill="#F2F2F2"/>
<path d="M217.771 16.4664H0.844094C0.618465 16.4616 0.403694 16.3686 0.245813 16.2074C0.087932 16.0461 -0.000488281 15.8294 -0.000488281 15.6037C-0.000488281 15.378 0.087932 15.1613 0.245813 15.0001C0.403694 14.8388 0.618465 14.7458 0.844094 14.7411H217.771C217.997 14.7458 218.212 14.8388 218.37 15.0001C218.528 15.1613 218.616 15.378 218.616 15.6037C218.616 15.8294 218.528 16.0461 218.37 16.2074C218.212 16.3686 217.997 16.4616 217.771 16.4664Z" fill="#3F3D56"/>
<path d="M15.6105 10.3365C18.4027 10.3365 20.6661 8.02261 20.6661 5.16826C20.6661 2.31391 18.4027 0 15.6105 0C12.8184 0 10.5549 2.31391 10.5549 5.16826C10.5549 8.02261 12.8184 10.3365 15.6105 10.3365Z" fill="#3F3D56"/>
<path d="M33.0754 10.3365C35.8675 10.3365 38.131 8.02261 38.131 5.16826C38.131 2.31391 35.8675 0 33.0754 0C30.2832 0 28.0198 2.31391 28.0198 5.16826C28.0198 8.02261 30.2832 10.3365 33.0754 10.3365Z" fill="#3F3D56"/>
<path d="M50.5402 10.3365C53.3323 10.3365 55.5958 8.02261 55.5958 5.16826C55.5958 2.31391 53.3323 0 50.5402 0C47.7481 0 45.4846 2.31391 45.4846 5.16826C45.4846 8.02261 47.7481 10.3365 50.5402 10.3365Z" fill="#3F3D56"/>
<path d="M207.256 1.28102H194.85C194.604 1.28592 194.37 1.38704 194.198 1.56267C194.026 1.7383 193.929 1.97444 193.929 2.22038C193.929 2.46633 194.026 2.70246 194.198 2.8781C194.37 3.05373 194.604 3.15485 194.85 3.15974H207.256C207.502 3.15485 207.736 3.05373 207.908 2.8781C208.08 2.70246 208.177 2.46633 208.177 2.22038C208.177 1.97444 208.08 1.7383 207.908 1.56267C207.736 1.38704 207.502 1.28592 207.256 1.28102Z" fill="#3F3D56"/>
<path d="M207.256 4.80708H194.85C194.604 4.81195 194.37 4.91306 194.198 5.08869C194.026 5.26433 193.929 5.50048 193.929 5.74644C193.929 5.99241 194.026 6.22857 194.198 6.4042C194.37 6.57984 194.604 6.68094 194.85 6.6858H207.256C207.502 6.68094 207.736 6.57984 207.908 6.4042C208.081 6.22857 208.177 5.99241 208.177 5.74644C208.177 5.50048 208.081 5.26433 207.908 5.08869C207.736 4.91306 207.502 4.81195 207.256 4.80708Z" fill="#3F3D56"/>
<path d="M207.256 8.32852H194.85C194.604 8.33339 194.37 8.43449 194.198 8.61012C194.026 8.78576 193.929 9.02192 193.929 9.26788C193.929 9.51385 194.026 9.75 194.198 9.92563C194.37 10.1013 194.604 10.2024 194.85 10.2072H207.256C207.502 10.2024 207.736 10.1013 207.908 9.92563C208.081 9.75 208.177 9.51385 208.177 9.26788C208.177 9.02192 208.081 8.78576 207.908 8.61012C207.736 8.43449 207.502 8.33339 207.256 8.32852Z" fill="#3F3D56"/>
<path d="M16.8052 51.5155C20.2571 51.5155 23.0554 48.7171 23.0554 45.2652C23.0554 41.8133 20.2571 39.015 16.8052 39.015C13.3533 39.015 10.5549 41.8133 10.5549 45.2652C10.5549 48.7171 13.3533 51.5155 16.8052 51.5155Z" fill="#E6E7E8"/>
<path d="M175.968 59.1054H12.4161C11.9225 59.1054 11.4491 58.9094 11.1001 58.5603C10.751 58.2113 10.5549 57.7379 10.5549 57.2442C10.5549 56.7506 10.751 56.2772 11.1001 55.9282C11.4491 55.5791 11.9225 55.383 12.4161 55.383H175.968C176.462 55.383 176.935 55.5791 177.285 55.9282C177.634 56.2772 177.83 56.7506 177.83 57.2442C177.83 57.7379 177.634 58.2113 177.285 58.5603C176.935 58.9094 176.462 59.1054 175.968 59.1054Z" fill="#E6E7E8"/>
<path d="M133.074 66.46H12.4162C11.9226 66.46 11.4492 66.2639 11.1001 65.9148C10.751 65.5658 10.5549 65.0923 10.5549 64.5987C10.5549 64.105 10.751 63.6316 11.1001 63.2826C11.4492 62.9335 11.9226 62.7374 12.4162 62.7374H133.074C133.568 62.7374 134.041 62.9335 134.39 63.2826C134.739 63.6316 134.935 64.105 134.935 64.5987C134.935 65.0923 134.739 65.5658 134.39 65.9148C134.041 66.2639 133.568 66.46 133.074 66.46Z" fill="#E6E7E8"/>
<path d="M16.8052 149.072C20.2571 149.072 23.0554 146.274 23.0554 142.822C23.0554 139.37 20.2571 136.572 16.8052 136.572C13.3533 136.572 10.5549 139.37 10.5549 142.822C10.5549 146.274 13.3533 149.072 16.8052 149.072Z" fill="#E6E7E8"/>
<path d="M175.969 156.662H12.4162C12.1715 156.662 11.9292 156.615 11.703 156.521C11.4769 156.428 11.2713 156.291 11.0982 156.118C10.925 155.945 10.7877 155.74 10.694 155.514C10.6002 155.288 10.552 155.046 10.552 154.801C10.552 154.556 10.6002 154.314 10.694 154.088C10.7877 153.862 10.925 153.657 11.0982 153.484C11.2713 153.311 11.4769 153.174 11.703 153.08C11.9292 152.987 12.1715 152.939 12.4162 152.94H175.969C176.487 152.969 176.976 153.19 177.34 153.561C177.703 153.932 177.915 154.425 177.933 154.944C177.918 155.187 177.855 155.423 177.748 155.641C177.64 155.858 177.491 156.053 177.308 156.212C177.126 156.372 176.913 156.494 176.683 156.571C176.453 156.648 176.211 156.679 175.969 156.662Z" fill="#E6E7E8"/>
<path d="M133.074 164.017H12.4162C11.9226 164.017 11.4492 163.82 11.1001 163.471C10.751 163.122 10.5549 162.649 10.5549 162.155C10.5549 161.662 10.751 161.188 11.1001 160.839C11.4492 160.49 11.9226 160.294 12.4162 160.294H133.074C133.568 160.294 134.041 160.49 134.39 160.839C134.739 161.188 134.935 161.662 134.935 162.155C134.935 162.649 134.739 163.122 134.39 163.471C134.041 163.82 133.568 164.017 133.074 164.017Z" fill="#E6E7E8"/>
<path d="M16.8052 96.6165C20.2571 96.6165 23.0554 93.8182 23.0554 90.3663C23.0554 86.9144 20.2571 84.116 16.8052 84.116C13.3533 84.116 10.5549 86.9144 10.5549 90.3663C10.5549 93.8182 13.3533 96.6165 16.8052 96.6165Z" fill="#E6E7E8"/>
<path d="M175.968 104.206H12.4161C11.9225 104.206 11.4491 104.01 11.1001 103.661C10.751 103.312 10.5549 102.839 10.5549 102.345C10.5549 101.852 10.751 101.378 11.1001 101.029C11.4491 100.68 11.9225 100.484 12.4161 100.484H175.968C176.462 100.484 176.935 100.68 177.285 101.029C177.634 101.378 177.83 101.852 177.83 102.345C177.83 102.839 177.634 103.312 177.285 103.661C176.935 104.01 176.462 104.206 175.968 104.206Z" fill="#E6E7E8"/>
<path d="M153.193 111.561H12.4162C11.9226 111.561 11.4492 111.365 11.1001 111.016C10.751 110.667 10.5549 110.193 10.5549 109.7C10.5549 109.206 10.751 108.733 11.1001 108.384C11.4492 108.035 11.9226 107.838 12.4162 107.838H153.193C153.686 107.838 154.16 108.035 154.509 108.384C154.858 108.733 155.054 109.206 155.054 109.7C155.054 110.193 154.858 110.667 154.509 111.016C154.16 111.365 153.686 111.561 153.193 111.561Z" fill="#E6E7E8"/>
<path d="M143.638 118.916H12.4162C11.9226 118.916 11.4492 118.719 11.1001 118.37C10.751 118.021 10.5549 117.548 10.5549 117.054C10.5549 116.561 10.751 116.087 11.1001 115.738C11.4492 115.389 11.9226 115.193 12.4162 115.193H143.638C144.131 115.193 144.605 115.389 144.954 115.738C145.303 116.087 145.499 116.561 145.499 117.054C145.499 117.548 145.303 118.021 144.954 118.37C144.605 118.719 144.131 118.916 143.638 118.916Z" fill="#E6E7E8"/>
<path d="M146.353 201.199C171.916 201.199 192.639 180.476 192.639 154.913C192.639 129.349 171.916 108.626 146.353 108.626C120.79 108.626 100.067 129.349 100.067 154.913C100.067 180.476 120.79 201.199 146.353 201.199Z" fill="#419EF3"/>
<path d="M146.289 171.062C149.941 171.062 152.902 168.102 152.902 164.45C152.902 160.798 149.941 157.837 146.289 157.837C142.637 157.837 139.677 160.798 139.677 164.45C139.677 168.102 142.637 171.062 146.289 171.062Z" fill="#3F3D56"/>
<path d="M146.289 167.502C147.975 167.502 149.341 166.135 149.341 164.45C149.341 162.764 147.975 161.398 146.289 161.398C144.604 161.398 143.238 162.764 143.238 164.45C143.238 166.135 144.604 167.502 146.289 167.502Z" fill="#419EF3"/>
<path d="M158.564 179.169H134.142C131.724 179.166 129.406 178.205 127.696 176.495C125.986 174.785 125.024 172.466 125.021 170.048V158.851C125.024 156.433 125.986 154.115 127.696 152.405C129.406 150.695 131.724 149.733 134.142 149.73H158.564C160.982 149.733 163.3 150.695 165.01 152.405C166.72 154.115 167.682 156.433 167.685 158.851V170.048C167.682 172.466 166.72 174.785 165.01 176.495C163.3 178.204 160.982 179.166 158.564 179.169ZM134.142 150.685C131.977 150.688 129.902 151.549 128.371 153.08C126.84 154.611 125.979 156.686 125.976 158.851V170.048C125.979 172.213 126.84 174.289 128.371 175.82C129.902 177.351 131.977 178.212 134.142 178.214H158.564C160.729 178.212 162.804 177.351 164.335 175.82C165.866 174.289 166.727 172.213 166.73 170.048V158.851C166.727 156.686 165.866 154.611 164.335 153.08C162.804 151.549 160.729 150.688 158.564 150.685L134.142 150.685Z" fill="white"/>
<path d="M132.696 173.091H154.372C155.497 173.091 156.612 172.869 157.651 172.439C158.691 172.008 159.635 171.377 160.431 170.582C161.226 169.786 161.857 168.841 162.288 167.802C162.718 166.762 162.94 165.648 162.94 164.523V155.153C162.938 154.114 162.747 153.084 162.375 152.113C163.432 152.91 164.29 153.941 164.881 155.125C165.472 156.31 165.78 157.616 165.78 158.939V168.31C165.78 169.435 165.558 170.549 165.128 171.588C164.697 172.628 164.066 173.572 163.271 174.368C162.475 175.164 161.53 175.795 160.491 176.225C159.452 176.656 158.337 176.877 157.212 176.877H135.536C133.799 176.877 132.103 176.347 130.673 175.36C129.244 174.372 128.149 172.974 127.533 171.349C129.017 172.479 130.831 173.091 132.696 173.091Z" fill="#3F3D56"/>
<path d="M199.076 241.877L193.75 241.876L191.216 221.33L199.078 221.331L199.076 241.877Z" fill="#A0616A"/>
<path d="M199.264 247.433L182.885 247.432V247.225C182.885 245.534 183.557 243.913 184.752 242.717C185.948 241.522 187.569 240.85 189.26 240.85L192.253 238.58L197.835 240.85L199.265 240.85L199.264 247.433Z" fill="#2F2E41"/>
<path d="M236.765 241.877L242.092 241.876L244.626 221.33L236.764 221.331L236.765 241.877Z" fill="#A0616A"/>
<path d="M236.578 247.433L252.958 247.432V247.225C252.958 245.534 252.286 243.913 251.09 242.717C249.895 241.522 248.273 240.85 246.582 240.85L243.59 238.58L238.008 240.85L236.578 240.85L236.578 247.433Z" fill="#2F2E41"/>
<path d="M190.982 206.233C191.06 205.06 191.686 198.577 191.686 198.577L193.184 184.827L195.825 148.38L195.997 145.995L209.829 143.339L219.282 138.807L230.519 142.399L239.268 145.68C239.268 145.68 239.283 147.084 239.351 148.781C239.441 151.002 239.598 153.725 239.972 154.433C240.598 155.684 240.441 162.4 240.441 162.4C240.441 162.4 241.062 176.063 241.845 177.561C242.628 179.059 242.785 182.179 242.549 182.805C242.313 183.43 243.332 199.839 243.332 199.839C243.332 199.839 245.947 228.877 244.306 233.255C242.666 237.634 236.467 234.766 236.467 234.766C236.467 234.766 236.766 233.597 234.968 233.046C233.171 232.496 227.695 191.322 227.695 191.322C227.695 191.322 226.676 182.88 225.74 180.46C224.803 178.041 223.942 171.243 223.942 171.243C223.942 171.243 218.159 159.991 218.084 157.489C218.084 157.489 217.327 155.148 216.612 157.725C215.897 160.302 213.788 166.475 213.788 166.475L211.732 174.055L209.312 185.382L207.746 194.918C207.746 194.918 205.402 207.574 205.027 208.12C204.653 208.667 205.027 220.23 205.027 220.23C205.027 220.23 203.214 230.076 200.653 231.795C198.091 233.515 191.303 231.823 191.303 231.823C191.303 231.823 190.903 207.405 190.982 206.233Z" fill="#2F2E41"/>
<path d="M196.883 112.753L199.958 122.016L196.164 126.533L197.834 128.252L196.602 130.683L193.388 156.16L211.007 162.841L216.94 155.403L221.618 162.841L242.005 157.86L236.806 125.372V123.248L235.338 119.147V110.465L239.214 84.6211L227.644 80.5686L222.112 76.1903L220.322 82.3477L212.7 80.9921L212.502 76.366L206.67 81.876L201.759 83.2765L195.879 84.6211L195.13 86.4939L196.628 86.1196L196.385 110.484L196.883 112.753Z" fill="#2F2E41"/>
<path d="M191.617 146.644L194.576 118.002L195.357 106.214L187.074 104.717C187.074 104.717 187.403 113.146 186.318 117.901C185.247 122.594 186.176 146.015 186.242 146.641C185.633 147.185 185.205 147.901 185.012 148.694C184.819 149.487 184.872 150.32 185.163 151.082C185.454 151.844 185.969 152.5 186.641 152.963C187.313 153.426 188.11 153.674 188.926 153.675C189.742 153.675 190.539 153.428 191.211 152.965C191.883 152.503 192.399 151.847 192.691 151.085C192.983 150.323 193.036 149.491 192.844 148.698C192.652 147.905 192.224 147.188 191.617 146.644Z" fill="#A0616A"/>
<path d="M183.538 123.937L185.842 124.413L193.744 126.05L194.183 126.14L195.115 122.432L196.198 121.278L198.258 110.484L198.366 109.922L201.479 103.27L203.632 83.2766L195.624 84.7148C195.583 84.756 195.546 84.801 195.508 84.8459C194.358 86.1493 193.538 87.9621 192.197 89.7862C187.834 95.7228 184.486 110.147 184.617 118.049C184.621 118.177 184.489 118.315 184.332 118.458C183.59 119.14 183.105 120.058 182.96 121.056C182.816 122.054 183.02 123.072 183.538 123.937Z" fill="#2F2E41"/>
<path d="M243.102 146.644L240.143 118.002L239.362 106.214L247.644 104.717C247.644 104.717 247.316 113.146 248.401 117.901C249.472 122.594 248.543 146.015 248.477 146.641C249.085 147.185 249.514 147.901 249.707 148.694C249.899 149.487 249.847 150.32 249.556 151.082C249.265 151.844 248.749 152.5 248.077 152.963C247.406 153.426 246.609 153.674 245.793 153.675C244.977 153.675 244.18 153.428 243.508 152.965C242.836 152.503 242.319 151.847 242.028 151.085C241.736 150.323 241.683 149.491 241.875 148.698C242.066 147.905 242.494 147.188 243.102 146.644Z" fill="#A0616A"/>
<path d="M251.181 123.937L248.877 124.413L240.974 126.05L240.536 126.14L239.604 122.432L238.521 121.278L236.461 110.484L236.353 109.922L233.24 103.27L233.952 83.2766L239.094 84.7149C239.136 84.756 239.173 84.801 239.211 84.8459C240.36 86.1493 241.181 87.9621 242.522 89.7862C246.885 95.7228 250.233 110.147 250.102 118.049C250.098 118.177 250.229 118.315 250.387 118.458C251.129 119.14 251.614 120.058 251.758 121.056C251.903 122.054 251.699 123.072 251.181 123.937Z" fill="#2F2E41"/>
<path d="M208.739 86.2348L212.501 76.3662L222.112 76.1902L225.301 86.2348L236.764 150.27C236.764 150.27 201.647 160.05 202.003 148.294C202.377 135.934 204.067 119.516 204.067 119.516L208.739 86.2348Z" fill="#419EF3"/>
<path d="M217.092 73.6059C223.345 73.6059 228.414 68.537 228.414 62.2843C228.414 56.0315 223.345 50.9626 217.092 50.9626C210.839 50.9626 205.77 56.0315 205.77 62.2843C205.77 68.537 210.839 73.6059 217.092 73.6059Z" fill="#A0616A"/>
<path d="M205.103 54.0711C206.946 52.0649 209.251 48.3926 216.235 46.8505C224.863 44.945 228.941 52.7399 226.765 52.8676C233.127 54.7944 229.04 67.9619 227.216 66.8576C227.2 66.8466 227.185 66.8349 227.171 66.8224C226.19 66.0999 225.366 65.185 224.751 64.1336C224.135 63.0822 223.741 61.9163 223.591 60.7072L223.245 57.5912C223.195 60.1264 220.604 60.4618 217.957 59.5281C218.113 58.9723 218.412 58.4669 218.823 58.0617C219.235 57.6566 219.745 57.3657 220.303 57.2178C218.458 58.8908 216.114 59.9108 213.632 60.1207C213.762 59.4859 214.026 58.8863 214.407 58.3621C214.788 57.838 215.276 57.4014 215.84 57.0817L215.736 56.9791C214.702 57.8509 213.515 58.5229 212.235 58.9609C210.776 59.3792 209.028 59.1529 208.028 58.0106C207.759 57.6953 207.555 57.3294 207.43 56.9342C207.646 58.942 206.299 61.2339 205.253 60.8404C204.383 60.6713 203.876 55.4066 205.103 54.0711Z" fill="#2F2E41"/>
<path d="M285.731 247.432C285.731 247.506 285.717 247.58 285.688 247.649C285.66 247.719 285.618 247.781 285.565 247.834C285.512 247.887 285.45 247.929 285.381 247.957C285.312 247.986 285.238 248 285.163 248H151.323C151.172 248 151.028 247.94 150.921 247.834C150.815 247.727 150.755 247.582 150.755 247.432C150.755 247.281 150.815 247.137 150.921 247.03C151.028 246.923 151.172 246.864 151.323 246.864H285.163C285.238 246.863 285.312 246.878 285.381 246.906C285.45 246.935 285.512 246.977 285.565 247.029C285.618 247.082 285.66 247.145 285.688 247.214C285.717 247.283 285.731 247.357 285.731 247.432Z" fill="#CCCCCC"/>
<path d="M146.729 129.816C142.202 129.816 138.222 131.865 135.969 134.942C138.378 133.189 141.286 132.256 144.265 132.28C151.276 132.28 156.979 137.191 156.979 143.227V148.244H159.443V140.763C159.443 134.727 153.74 129.816 146.729 129.816Z" fill="#3F3D56"/>
<path d="M161.136 150.812H131.57V142.113C131.57 135.095 138.202 129.385 146.353 129.385C154.504 129.385 161.136 135.095 161.136 142.113V150.812ZM132.525 149.857H160.181V142.113C160.181 135.621 153.978 130.34 146.353 130.34C138.728 130.34 132.525 135.621 132.525 142.113V149.857Z" fill="white"/>
<path d="M153.925 147.491H138.781C138.1 147.491 137.446 147.22 136.965 146.738C136.483 146.256 136.212 145.603 136.211 144.921V141.46C136.211 136.633 140.761 132.706 146.353 132.706C151.945 132.706 156.495 136.633 156.495 141.46V144.921C156.494 145.603 156.223 146.256 155.741 146.738C155.259 147.22 154.606 147.491 153.925 147.491ZM146.353 133.661C141.287 133.661 137.166 137.159 137.166 141.46V144.921C137.167 145.35 137.337 145.76 137.64 146.063C137.942 146.366 138.353 146.536 138.781 146.536H153.925C154.353 146.536 154.763 146.366 155.066 146.063C155.369 145.76 155.539 145.35 155.54 144.921V141.46C155.54 137.159 151.419 133.661 146.353 133.661Z" fill="white"/>
</g>
<defs>
<clipPath id="clip0_29_521">
<rect width="285.731" height="248" fill="white"/>
</clipPath>
</defs>
</svg>
